G04 #@! TF.FileFunction,Soldermask,Top*
%FSLAX46Y46*%
G04 Gerber Fmt 4.6, Leading zero omitted, Abs format (unit mm)*
G04 Created by KiCad (PCBNEW 4.0.7) date 10/26/17 10:54:27*
%MOMM*%
%LPD*%
G01*
G04 APERTURE LIST*
%ADD10C,0.100000*%
%ADD11C,3.810000*%
%ADD12C,3.600000*%
%ADD13C,2.400000*%
%ADD14C,2.000000*%
%ADD15R,2.000000X1.400000*%
%ADD16R,2.100000X2.100000*%
%ADD17O,2.100000X2.100000*%
%ADD18C,1.840000*%
%ADD19R,2.000000X2.000000*%
%ADD20O,2.000000X2.000000*%
%ADD21R,2.200000X1.000000*%
%ADD22O,2.398980X2.398980*%
%ADD23R,2.398980X2.398980*%
%ADD24R,2.900000X1.300000*%
%ADD25R,2.400000X2.400000*%
%ADD26R,2.000000X2.400000*%
%ADD27R,2.100000X2.400000*%
%ADD28R,1.650000X1.900000*%
%ADD29R,1.700000X1.700000*%
%ADD30C,1.700000*%
%ADD31R,2.600000X2.600000*%
%ADD32O,2.600000X2.600000*%
%ADD33C,2.900000*%
%ADD34C,3.400000*%
%ADD35C,3.000000*%
%ADD36C,2.940000*%
%ADD37R,0.900000X1.000000*%
%ADD38R,1.000000X2.200000*%
%ADD39R,1.200000X3.600000*%
%ADD40R,3.600000X1.200000*%
%ADD41R,1.900000X1.650000*%
%ADD42R,1.150000X1.600000*%
%ADD43R,1.600000X1.150000*%
%ADD44R,1.100000X1.000000*%
%ADD45R,1.300000X2.900000*%
%ADD46R,1.300000X1.600000*%
%ADD47R,1.050000X1.960000*%
%ADD48R,1.960000X1.050000*%
%ADD49R,1.500000X0.800000*%
%ADD50R,1.850000X0.850000*%
%ADD51R,1.950000X1.000000*%
%ADD52R,0.700000X1.800000*%
%ADD53C,1.924000*%
%ADD54R,1.600000X1.300000*%
%ADD55C,2.800000*%
%ADD56C,4.049980*%
%ADD57R,1.901140X1.901140*%
%ADD58C,1.901140*%
%ADD59R,0.900000X1.300000*%
%ADD60R,1.050000X1.460000*%
%ADD61R,1.150000X1.200000*%
%ADD62R,1.200000X1.150000*%
%ADD63R,2.100000X1.700000*%
%ADD64R,1.700000X2.100000*%
%ADD65R,1.300000X0.900000*%
%ADD66R,1.700000X1.100000*%
%ADD67R,1.100000X1.700000*%
%ADD68R,1.400000X2.000000*%
%ADD69R,1.900000X1.000000*%
%ADD70R,2.200000X2.200000*%
%ADD71C,2.200000*%
%ADD72R,1.650000X1.400000*%
G04 APERTURE END LIST*
D10*
D11*
X237000000Y-73600000D02*
X237000000Y-70400000D01*
X235200000Y-75200000D02*
X237000000Y-73600000D01*
X219800000Y-75200000D02*
X235200000Y-75200000D01*
X211400000Y-75200000D02*
X219800000Y-75200000D01*
X237000000Y-63200000D02*
X237000000Y-64800000D01*
X234600000Y-60800000D02*
X237000000Y-63200000D01*
X219600000Y-60600000D02*
X234600000Y-60800000D01*
X211400000Y-60600000D02*
X219600000Y-60600000D01*
X237200000Y-122200000D02*
X237200000Y-119600000D01*
X234800000Y-124600000D02*
X237200000Y-122200000D01*
X220000000Y-124600000D02*
X234800000Y-124600000D01*
X211400000Y-124600000D02*
X220000000Y-124600000D01*
X237200000Y-112200000D02*
X237200000Y-114000000D01*
X235000000Y-110000000D02*
X237200000Y-112200000D01*
X211600000Y-110000000D02*
X235000000Y-110000000D01*
X250800000Y-39000000D02*
X254000000Y-39000000D01*
X246400000Y-34600000D02*
X250800000Y-39000000D01*
X228400000Y-34600000D02*
X246400000Y-34600000D01*
X228400000Y-32400000D02*
X228400000Y-34600000D01*
X224800000Y-32400000D02*
X228400000Y-32400000D01*
X224800000Y-36800000D02*
X224800000Y-32400000D01*
X221200000Y-36800000D02*
X224800000Y-36800000D01*
X221200000Y-32400000D02*
X221200000Y-36800000D01*
X217400000Y-32400000D02*
X221200000Y-32400000D01*
X217400000Y-36800000D02*
X217400000Y-32400000D01*
X213800000Y-36800000D02*
X217400000Y-36800000D01*
X213800000Y-32200000D02*
X213800000Y-36800000D01*
X210200000Y-32200000D02*
X213800000Y-32200000D01*
X210200000Y-37000000D02*
X210200000Y-32200000D01*
X206600000Y-37000000D02*
X210200000Y-37000000D01*
X206600000Y-32200000D02*
X206600000Y-37000000D01*
X203000000Y-32200000D02*
X206600000Y-32200000D01*
X203000000Y-36800000D02*
X203000000Y-32200000D01*
X199400000Y-36800000D02*
X203000000Y-36800000D01*
X199400000Y-32200000D02*
X199400000Y-36800000D01*
X195600000Y-32200000D02*
X199400000Y-32200000D01*
X195600000Y-36800000D02*
X195600000Y-32200000D01*
X192000000Y-36800000D02*
X195600000Y-36800000D01*
X192000000Y-32400000D02*
X192000000Y-36800000D01*
X188400000Y-32400000D02*
X192000000Y-32400000D01*
X188400000Y-36800000D02*
X188400000Y-32400000D01*
X184600000Y-36800000D02*
X188400000Y-36800000D01*
X184600000Y-34600000D02*
X184600000Y-36800000D01*
X179400000Y-34600000D02*
X184600000Y-34600000D01*
X169000000Y-45000000D02*
X179400000Y-34600000D01*
X160800000Y-45000000D02*
X169000000Y-45000000D01*
X248600000Y-41600000D02*
X253800000Y-41600000D01*
X247600000Y-40600000D02*
X248600000Y-41600000D01*
X194600000Y-40600000D02*
X247600000Y-40600000D01*
X193400000Y-41800000D02*
X194600000Y-40600000D01*
X192200000Y-41800000D02*
X193400000Y-41800000D01*
X191000000Y-40600000D02*
X192200000Y-41800000D01*
X185000000Y-40600000D02*
X191000000Y-40600000D01*
X184400000Y-40600000D02*
X185000000Y-40600000D01*
X184000000Y-40400000D02*
X184400000Y-40600000D01*
X183400000Y-40200000D02*
X184000000Y-40400000D01*
X182000000Y-38800000D02*
X183400000Y-40200000D01*
X181000000Y-38800000D02*
X182000000Y-38800000D01*
X180200000Y-39200000D02*
X181000000Y-38800000D01*
X179600000Y-40200000D02*
X180200000Y-39200000D01*
X179600000Y-41000000D02*
X179600000Y-40200000D01*
X180000000Y-41600000D02*
X179600000Y-41000000D01*
X185600000Y-47200000D02*
X180000000Y-41600000D01*
X186000000Y-48000000D02*
X185600000Y-47200000D01*
X186000000Y-48800000D02*
X186000000Y-48000000D01*
X185600000Y-49600000D02*
X186000000Y-48800000D01*
X185000000Y-50000000D02*
X185600000Y-49600000D01*
X184200000Y-50200000D02*
X185000000Y-50000000D01*
X183000000Y-49600000D02*
X184200000Y-50200000D01*
X181400000Y-48000000D02*
X183000000Y-49600000D01*
X181000000Y-47600000D02*
X181400000Y-48000000D01*
X180200000Y-47600000D02*
X181000000Y-47600000D01*
X179400000Y-47800000D02*
X180200000Y-47600000D01*
X178800000Y-48400000D02*
X179400000Y-47800000D01*
X178800000Y-58600000D02*
X178800000Y-48400000D01*
X176800000Y-60800000D02*
X178800000Y-58600000D01*
X176000000Y-60800000D02*
X176800000Y-60800000D01*
X175400000Y-60800000D02*
X176000000Y-60800000D01*
X175200000Y-60400000D02*
X175400000Y-60800000D01*
X174000000Y-59400000D02*
X175200000Y-60400000D01*
X173400000Y-59000000D02*
X174000000Y-59400000D01*
X172600000Y-59000000D02*
X173400000Y-59000000D01*
X171800000Y-59400000D02*
X172600000Y-59000000D01*
X171200000Y-60200000D02*
X171800000Y-59400000D01*
X171200000Y-61000000D02*
X171200000Y-60200000D01*
X171600000Y-61800000D02*
X171200000Y-61000000D01*
X175800000Y-66200000D02*
X171600000Y-61800000D01*
X176200000Y-66800000D02*
X175800000Y-66200000D01*
X176400000Y-67400000D02*
X176200000Y-66800000D01*
X176200000Y-68000000D02*
X176400000Y-67400000D01*
X175800000Y-68600000D02*
X176200000Y-68000000D01*
X175000000Y-69000000D02*
X175800000Y-68600000D01*
X174200000Y-69000000D02*
X175000000Y-69000000D01*
X173600000Y-68800000D02*
X174200000Y-69000000D01*
X172600000Y-67600000D02*
X173600000Y-68800000D01*
X171800000Y-67400000D02*
X172600000Y-67600000D01*
X171000000Y-67200000D02*
X171800000Y-67400000D01*
X160400000Y-67200000D02*
X171000000Y-67200000D01*
X250400000Y-44200000D02*
X254200000Y-44200000D01*
X249200000Y-45200000D02*
X250400000Y-44200000D01*
X195400000Y-45200000D02*
X249200000Y-45200000D01*
X183000000Y-57600000D02*
X195400000Y-45200000D01*
X183000000Y-83400000D02*
X183000000Y-57600000D01*
X182000000Y-84400000D02*
X183000000Y-83400000D01*
X181400000Y-84800000D02*
X182000000Y-84400000D01*
X180600000Y-84800000D02*
X181400000Y-84800000D01*
X179800000Y-84600000D02*
X180600000Y-84800000D01*
X178800000Y-83600000D02*
X179800000Y-84600000D01*
X178200000Y-83000000D02*
X178800000Y-83600000D01*
X177200000Y-82800000D02*
X178200000Y-83000000D01*
X176200000Y-83200000D02*
X177200000Y-82800000D01*
X175600000Y-84000000D02*
X176200000Y-83200000D01*
X175600000Y-85400000D02*
X175600000Y-84000000D01*
X176200000Y-86400000D02*
X175600000Y-85400000D01*
X180200000Y-90200000D02*
X176200000Y-86400000D01*
X180600000Y-90800000D02*
X180200000Y-90200000D01*
X180800000Y-92000000D02*
X180600000Y-90800000D01*
X180400000Y-93000000D02*
X180800000Y-92000000D01*
X179200000Y-93600000D02*
X180400000Y-93000000D01*
X178000000Y-93400000D02*
X179200000Y-93600000D01*
X176800000Y-92200000D02*
X178000000Y-93400000D01*
X176200000Y-92000000D02*
X176800000Y-92200000D01*
X175400000Y-91800000D02*
X176200000Y-92000000D01*
X174800000Y-92000000D02*
X175400000Y-91800000D01*
X174000000Y-92400000D02*
X174800000Y-92000000D01*
X160600000Y-92400000D02*
X174000000Y-92400000D01*
X249400000Y-49800000D02*
X252400000Y-46800000D01*
X197200000Y-49800000D02*
X249400000Y-49800000D01*
X187800000Y-59200000D02*
X197200000Y-49800000D01*
X187800000Y-96600000D02*
X187800000Y-59200000D01*
X170000000Y-114400000D02*
X187800000Y-96600000D01*
X161200000Y-114400000D02*
X170000000Y-114400000D01*
D12*
X126400000Y-39000000D03*
X237800000Y-135400000D03*
X264200000Y-25600000D03*
X50600000Y-25600000D03*
X264400000Y-180600000D03*
D13*
X57800000Y-146400000D03*
D14*
X219800000Y-75300000D03*
X222340000Y-72760000D03*
X222340000Y-77840000D03*
X217260000Y-77840000D03*
X217260000Y-72760000D03*
X261860000Y-80860000D03*
X264400000Y-83400000D03*
X264400000Y-78320000D03*
X259320000Y-78320000D03*
X259320000Y-83400000D03*
D15*
X263600000Y-109900000D03*
X263600000Y-112900000D03*
D16*
X254400000Y-70460000D03*
D17*
X254400000Y-73000000D03*
X254400000Y-75540000D03*
D14*
X118400000Y-50400000D03*
X120940000Y-47860000D03*
X120940000Y-52940000D03*
X115860000Y-52940000D03*
X115860000Y-47860000D03*
X118400000Y-72600000D03*
X120940000Y-70060000D03*
X120940000Y-75140000D03*
X115860000Y-75140000D03*
X115860000Y-70060000D03*
D18*
X42540000Y-129860000D03*
X40000000Y-132400000D03*
X42540000Y-134940000D03*
D19*
X248312364Y-113423332D03*
D20*
X240692364Y-121043332D03*
X248312364Y-115963332D03*
X240692364Y-118503332D03*
X248312364Y-118503332D03*
X240692364Y-115963332D03*
X248312364Y-121043332D03*
X240692364Y-113423332D03*
D18*
X138340000Y-97940000D03*
X135800000Y-95400000D03*
X133260000Y-97940000D03*
D21*
X80800000Y-112108000D03*
X80800000Y-111092000D03*
D22*
X35165000Y-166580000D03*
D23*
X35165000Y-174200000D03*
D22*
X35165000Y-171660000D03*
X35165000Y-169120000D03*
X35000000Y-130420000D03*
D23*
X35000000Y-138040000D03*
D22*
X35000000Y-135500000D03*
X35000000Y-132960000D03*
D14*
X53200000Y-115400000D03*
X50660000Y-112860000D03*
X50660000Y-117940000D03*
X55740000Y-117940000D03*
X55740000Y-112860000D03*
D24*
X90000000Y-118350000D03*
X90000000Y-121250000D03*
D10*
G36*
X73265054Y-118690581D02*
X71709419Y-117134946D01*
X72416526Y-116427839D01*
X73972161Y-117983474D01*
X73265054Y-118690581D01*
X73265054Y-118690581D01*
G37*
G36*
X73983474Y-117972161D02*
X72427839Y-116416526D01*
X73134946Y-115709419D01*
X74690581Y-117265054D01*
X73983474Y-117972161D01*
X73983474Y-117972161D01*
G37*
D25*
X235000000Y-153000000D03*
D13*
X230000000Y-153000000D03*
D25*
X98500000Y-154000000D03*
D13*
X98500000Y-149000000D03*
D19*
X222000000Y-162000000D03*
D14*
X222000000Y-165500000D03*
D19*
X146200000Y-156500000D03*
D14*
X146200000Y-151500000D03*
D19*
X137090000Y-162500000D03*
D14*
X137090000Y-167500000D03*
D19*
X137200000Y-156500000D03*
D14*
X137200000Y-151500000D03*
D19*
X146200000Y-162500000D03*
D14*
X146200000Y-167500000D03*
D26*
X131200000Y-156500000D03*
X131200000Y-152500000D03*
X129200000Y-167500000D03*
X129200000Y-163500000D03*
X129200000Y-156500000D03*
X129200000Y-152500000D03*
X131200000Y-167500000D03*
X131200000Y-163500000D03*
D27*
X76800000Y-162600000D03*
X76800000Y-158600000D03*
D28*
X125200000Y-156750000D03*
X125200000Y-154250000D03*
X127200000Y-167750000D03*
X127200000Y-165250000D03*
X127200000Y-156750000D03*
X127200000Y-154250000D03*
X125200000Y-167750000D03*
X125200000Y-165250000D03*
D29*
X78000000Y-170500000D03*
D30*
X78000000Y-168500000D03*
D19*
X58000000Y-165500000D03*
D14*
X58000000Y-162000000D03*
D31*
X96000000Y-175000000D03*
D32*
X85840000Y-175000000D03*
D33*
X255700000Y-164500000D03*
X231570000Y-164500000D03*
D34*
X98500000Y-160500000D03*
X98500000Y-168400000D03*
D35*
X219500000Y-152500000D03*
X224500000Y-152500000D03*
D13*
X86000000Y-154000000D03*
X90000000Y-154000000D03*
D12*
X154200000Y-153100000D03*
X160700000Y-153100000D03*
X154200000Y-166100000D03*
X160700000Y-166100000D03*
D36*
X200160000Y-156960000D03*
X200160000Y-162040000D03*
X179840000Y-149340000D03*
X179840000Y-159500000D03*
X179840000Y-169660000D03*
D14*
X71540000Y-170390000D03*
X71540000Y-167850000D03*
X71540000Y-165310000D03*
X71540000Y-162770000D03*
X71540000Y-157690000D03*
X71540000Y-155150000D03*
X71540000Y-152610000D03*
D37*
X59678000Y-117506000D03*
X59678000Y-118606000D03*
X59678000Y-113148000D03*
X59678000Y-112048000D03*
D21*
X61400000Y-117492000D03*
X61400000Y-118508000D03*
D38*
X62692000Y-112000000D03*
X63708000Y-112000000D03*
D10*
G36*
X63265054Y-118488581D02*
X61709419Y-116932946D01*
X62416526Y-116225839D01*
X63972161Y-117781474D01*
X63265054Y-118488581D01*
X63265054Y-118488581D01*
G37*
G36*
X63983474Y-117770161D02*
X62427839Y-116214526D01*
X63134946Y-115507419D01*
X64690581Y-117063054D01*
X63983474Y-117770161D01*
X63983474Y-117770161D01*
G37*
D21*
X61202000Y-113106000D03*
X61202000Y-112090000D03*
D37*
X69600000Y-117050000D03*
X69600000Y-118150000D03*
X69200000Y-112150000D03*
X69200000Y-111050000D03*
D21*
X71098000Y-117092000D03*
X71098000Y-118108000D03*
X70600000Y-112108000D03*
X70600000Y-111092000D03*
D10*
G36*
X71109419Y-112065054D02*
X72665054Y-110509419D01*
X73372161Y-111216526D01*
X71816526Y-112772161D01*
X71109419Y-112065054D01*
X71109419Y-112065054D01*
G37*
G36*
X71827839Y-112783474D02*
X73383474Y-111227839D01*
X74090581Y-111934946D01*
X72534946Y-113490581D01*
X71827839Y-112783474D01*
X71827839Y-112783474D01*
G37*
D38*
X75092000Y-114600000D03*
X76108000Y-114600000D03*
D37*
X80400000Y-117050000D03*
X80400000Y-118150000D03*
X79400000Y-112150000D03*
X79400000Y-111050000D03*
D10*
G36*
X83863054Y-118090581D02*
X82307419Y-116534946D01*
X83014526Y-115827839D01*
X84570161Y-117383474D01*
X83863054Y-118090581D01*
X83863054Y-118090581D01*
G37*
G36*
X84581474Y-117372161D02*
X83025839Y-115816526D01*
X83732946Y-115109419D01*
X85288581Y-116665054D01*
X84581474Y-117372161D01*
X84581474Y-117372161D01*
G37*
D21*
X81800000Y-117092000D03*
X81800000Y-118108000D03*
D38*
X82692000Y-111600000D03*
X83708000Y-111600000D03*
D37*
X92000000Y-117650000D03*
X92000000Y-118750000D03*
X91200000Y-112750000D03*
X91200000Y-111650000D03*
D21*
X93400000Y-117692000D03*
X93400000Y-118708000D03*
X92800000Y-112708000D03*
X92800000Y-111692000D03*
D10*
G36*
X95465054Y-118690581D02*
X93909419Y-117134946D01*
X94616526Y-116427839D01*
X96172161Y-117983474D01*
X95465054Y-118690581D01*
X95465054Y-118690581D01*
G37*
G36*
X96183474Y-117972161D02*
X94627839Y-116416526D01*
X95334946Y-115709419D01*
X96890581Y-117265054D01*
X96183474Y-117972161D01*
X96183474Y-117972161D01*
G37*
G36*
X93509419Y-113265054D02*
X95065054Y-111709419D01*
X95772161Y-112416526D01*
X94216526Y-113972161D01*
X93509419Y-113265054D01*
X93509419Y-113265054D01*
G37*
G36*
X94227839Y-113983474D02*
X95783474Y-112427839D01*
X96490581Y-113134946D01*
X94934946Y-114690581D01*
X94227839Y-113983474D01*
X94227839Y-113983474D01*
G37*
D39*
X161826000Y-110180000D03*
X163426000Y-110180000D03*
X160176000Y-110680000D03*
X158576000Y-110680000D03*
D40*
X167876000Y-119230000D03*
X167876000Y-117630000D03*
X142401000Y-111268000D03*
X142401000Y-109668000D03*
D41*
X44150000Y-132400000D03*
X46650000Y-132400000D03*
X44150000Y-168400000D03*
X46650000Y-168400000D03*
X44150000Y-144400000D03*
X46650000Y-144400000D03*
D42*
X248200000Y-61950000D03*
X248200000Y-60050000D03*
D43*
X234750000Y-117400000D03*
X232850000Y-117400000D03*
X234150000Y-68200000D03*
X232250000Y-68200000D03*
X242750000Y-92600000D03*
X240850000Y-92600000D03*
D42*
X261548438Y-92459612D03*
X261548438Y-94359612D03*
D44*
X138400000Y-113500000D03*
X138400000Y-112100000D03*
X138400000Y-111100000D03*
X138400000Y-109700000D03*
D14*
X118400000Y-119800000D03*
X120940000Y-117260000D03*
X120940000Y-122340000D03*
X115860000Y-122340000D03*
X115860000Y-117260000D03*
D22*
X35165000Y-154515000D03*
D23*
X35165000Y-162135000D03*
D22*
X35165000Y-159595000D03*
X35165000Y-157055000D03*
D16*
X208860000Y-124600000D03*
D17*
X211400000Y-124600000D03*
D45*
X59150000Y-121600000D03*
X62050000Y-121600000D03*
X59752000Y-109042000D03*
X62652000Y-109042000D03*
D24*
X67600000Y-117350000D03*
X67600000Y-120250000D03*
X67000000Y-112050000D03*
X67000000Y-109150000D03*
X78210000Y-117350000D03*
X78210000Y-120250000D03*
X77800000Y-112050000D03*
X77800000Y-109150000D03*
X88800000Y-113050000D03*
X88800000Y-110150000D03*
D46*
X243292364Y-115803332D03*
X243292364Y-113603332D03*
X243000000Y-66500000D03*
X243000000Y-64300000D03*
X240800000Y-111700000D03*
X240800000Y-109500000D03*
X241000000Y-62300000D03*
X241000000Y-60100000D03*
X247000000Y-96300000D03*
X247000000Y-98500000D03*
X253948438Y-93959612D03*
X253948438Y-96159612D03*
X253948438Y-90959612D03*
X253948438Y-88759612D03*
X248148438Y-88759612D03*
X248148438Y-86559612D03*
D18*
X137940000Y-119740000D03*
X135400000Y-117200000D03*
X132860000Y-119740000D03*
X169626000Y-122430000D03*
X172166000Y-124970000D03*
X174706000Y-122430000D03*
X42540000Y-153960000D03*
X40000000Y-156500000D03*
X42540000Y-159040000D03*
X42540000Y-165920000D03*
X40000000Y-168460000D03*
X42540000Y-171000000D03*
X42500000Y-141920000D03*
X39960000Y-144460000D03*
X42500000Y-147000000D03*
D47*
X137326000Y-122580000D03*
X136376000Y-122580000D03*
X135426000Y-122580000D03*
X135426000Y-125280000D03*
X137326000Y-125280000D03*
D48*
X148726000Y-121880000D03*
X148726000Y-120930000D03*
X148726000Y-119980000D03*
X146026000Y-119980000D03*
X146026000Y-121880000D03*
D49*
X155850000Y-113425000D03*
X155850000Y-114075000D03*
X155850000Y-114725000D03*
X155850000Y-115375000D03*
X160150000Y-115375000D03*
X160150000Y-114725000D03*
X160150000Y-114075000D03*
X160150000Y-113425000D03*
D50*
X142106000Y-112795000D03*
X142106000Y-113445000D03*
X142106000Y-114095000D03*
X142106000Y-114745000D03*
X146506000Y-114745000D03*
X146506000Y-114095000D03*
X146506000Y-113445000D03*
X146506000Y-112795000D03*
D51*
X159176000Y-119275000D03*
X159176000Y-120545000D03*
X159176000Y-121815000D03*
X159176000Y-123085000D03*
X164576000Y-123085000D03*
X164576000Y-121815000D03*
X164576000Y-120545000D03*
X164576000Y-119275000D03*
D19*
X248200000Y-64120000D03*
D20*
X240580000Y-71740000D03*
X248200000Y-66660000D03*
X240580000Y-69200000D03*
X248200000Y-69200000D03*
X240580000Y-66660000D03*
X248200000Y-71740000D03*
X240580000Y-64120000D03*
D52*
X237200000Y-115200000D03*
X236700000Y-115200000D03*
X236200000Y-115200000D03*
X235700000Y-115200000D03*
X235200000Y-115200000D03*
X235200000Y-119600000D03*
X235700000Y-119600000D03*
X236200000Y-119600000D03*
X236700000Y-119600000D03*
X237200000Y-119600000D03*
X237000000Y-65800000D03*
X236500000Y-65800000D03*
X236000000Y-65800000D03*
X235500000Y-65800000D03*
X235000000Y-65800000D03*
X235000000Y-70200000D03*
X235500000Y-70200000D03*
X236000000Y-70200000D03*
X236500000Y-70200000D03*
X237000000Y-70200000D03*
X245348438Y-90459612D03*
X244848438Y-90459612D03*
X244348438Y-90459612D03*
X243848438Y-90459612D03*
X243348438Y-90459612D03*
X243348438Y-94859612D03*
X243848438Y-94859612D03*
X244348438Y-94859612D03*
X244848438Y-94859612D03*
X245348438Y-94859612D03*
D19*
X258948438Y-88659612D03*
D20*
X251328438Y-96279612D03*
X258948438Y-91199612D03*
X251328438Y-93739612D03*
X258948438Y-93739612D03*
X251328438Y-91199612D03*
X258948438Y-96279612D03*
X251328438Y-88659612D03*
D53*
X259420000Y-175540000D03*
X259420000Y-173000000D03*
X259420000Y-170460000D03*
X264500000Y-175540000D03*
X264500000Y-170460000D03*
D40*
X143326000Y-123680000D03*
X143326000Y-125280000D03*
D46*
X240800000Y-122900000D03*
X240800000Y-125100000D03*
D54*
X240500000Y-73500000D03*
X242700000Y-73500000D03*
D46*
X243292364Y-118603332D03*
X243292364Y-120803332D03*
X243000000Y-69300000D03*
X243000000Y-71500000D03*
D37*
X59800000Y-95650000D03*
X59800000Y-96750000D03*
X59600000Y-91150000D03*
X59600000Y-90050000D03*
D10*
G36*
X63265054Y-96490581D02*
X61709419Y-94934946D01*
X62416526Y-94227839D01*
X63972161Y-95783474D01*
X63265054Y-96490581D01*
X63265054Y-96490581D01*
G37*
G36*
X63983474Y-95772161D02*
X62427839Y-94216526D01*
X63134946Y-93509419D01*
X64690581Y-95065054D01*
X63983474Y-95772161D01*
X63983474Y-95772161D01*
G37*
D21*
X61000000Y-91108000D03*
X61000000Y-90092000D03*
X61400000Y-95492000D03*
X61400000Y-96508000D03*
D38*
X62692000Y-90000000D03*
X63708000Y-90000000D03*
D37*
X69600000Y-95050000D03*
X69600000Y-96150000D03*
X69000000Y-90150000D03*
X69000000Y-89050000D03*
D10*
G36*
X73465054Y-96890581D02*
X71909419Y-95334946D01*
X72616526Y-94627839D01*
X74172161Y-96183474D01*
X73465054Y-96890581D01*
X73465054Y-96890581D01*
G37*
G36*
X74183474Y-96172161D02*
X72627839Y-94616526D01*
X73334946Y-93909419D01*
X74890581Y-95465054D01*
X74183474Y-96172161D01*
X74183474Y-96172161D01*
G37*
G36*
X71109419Y-90065054D02*
X72665054Y-88509419D01*
X73372161Y-89216526D01*
X71816526Y-90772161D01*
X71109419Y-90065054D01*
X71109419Y-90065054D01*
G37*
G36*
X71827839Y-90783474D02*
X73383474Y-89227839D01*
X74090581Y-89934946D01*
X72534946Y-91490581D01*
X71827839Y-90783474D01*
X71827839Y-90783474D01*
G37*
D21*
X71200000Y-95092000D03*
X71200000Y-96108000D03*
X70400000Y-90108000D03*
X70400000Y-89092000D03*
D38*
X75092000Y-92600000D03*
X76108000Y-92600000D03*
D37*
X80400000Y-95050000D03*
X80400000Y-96150000D03*
X79800000Y-90090000D03*
X79800000Y-88990000D03*
D21*
X81800000Y-95092000D03*
X81800000Y-96108000D03*
X81200000Y-90108000D03*
X81200000Y-89092000D03*
D10*
G36*
X83865054Y-96090581D02*
X82309419Y-94534946D01*
X83016526Y-93827839D01*
X84572161Y-95383474D01*
X83865054Y-96090581D01*
X83865054Y-96090581D01*
G37*
G36*
X84583474Y-95372161D02*
X83027839Y-93816526D01*
X83734946Y-93109419D01*
X85290581Y-94665054D01*
X84583474Y-95372161D01*
X84583474Y-95372161D01*
G37*
D38*
X82692000Y-89600000D03*
X83708000Y-89600000D03*
D37*
X92000000Y-95650000D03*
X92000000Y-96750000D03*
X91200000Y-90750000D03*
X91200000Y-89650000D03*
D21*
X93400000Y-95692000D03*
X93400000Y-96708000D03*
D10*
G36*
X93509419Y-91265054D02*
X95065054Y-89709419D01*
X95772161Y-90416526D01*
X94216526Y-91972161D01*
X93509419Y-91265054D01*
X93509419Y-91265054D01*
G37*
G36*
X94227839Y-91983474D02*
X95783474Y-90427839D01*
X96490581Y-91134946D01*
X94934946Y-92690581D01*
X94227839Y-91983474D01*
X94227839Y-91983474D01*
G37*
G36*
X95465054Y-96690581D02*
X93909419Y-95134946D01*
X94616526Y-94427839D01*
X96172161Y-95983474D01*
X95465054Y-96690581D01*
X95465054Y-96690581D01*
G37*
G36*
X96183474Y-95972161D02*
X94627839Y-94416526D01*
X95334946Y-93709419D01*
X96890581Y-95265054D01*
X96183474Y-95972161D01*
X96183474Y-95972161D01*
G37*
D21*
X92800000Y-90708000D03*
X92800000Y-89692000D03*
D22*
X35000000Y-142460000D03*
D23*
X35000000Y-150080000D03*
D22*
X35000000Y-147540000D03*
X35000000Y-145000000D03*
D45*
X59150000Y-99600000D03*
X62050000Y-99600000D03*
X59750000Y-87000000D03*
X62650000Y-87000000D03*
D24*
X67600000Y-95350000D03*
X67600000Y-98250000D03*
X67000000Y-90050000D03*
X67000000Y-87150000D03*
X78200000Y-95350000D03*
X78200000Y-98250000D03*
X77800000Y-90050000D03*
X77800000Y-87150000D03*
X90000000Y-96300000D03*
X90000000Y-99200000D03*
X88800000Y-91050000D03*
X88800000Y-88150000D03*
D39*
X145400000Y-110400000D03*
X147000000Y-110400000D03*
D41*
X44100000Y-156600000D03*
X46600000Y-156600000D03*
D42*
X248296668Y-123250000D03*
X248296668Y-125150000D03*
D14*
X53200000Y-93400000D03*
X50660000Y-90860000D03*
X50660000Y-95940000D03*
X55740000Y-95940000D03*
X55740000Y-90860000D03*
D34*
X257000000Y-152500000D03*
X263000000Y-152500000D03*
X260000000Y-147800000D03*
D55*
X264630000Y-34855000D03*
X264630000Y-50345000D03*
D56*
X260950000Y-36885000D03*
X260950000Y-48315000D03*
D57*
X254600000Y-47045000D03*
D58*
X252060000Y-45775000D03*
X254600000Y-44505000D03*
X252060000Y-43235000D03*
X254600000Y-41965000D03*
X252060000Y-40695000D03*
X254600000Y-39425000D03*
X252060000Y-38155000D03*
D14*
X199600000Y-124600000D03*
X202140000Y-122060000D03*
X202140000Y-127140000D03*
X197060000Y-127140000D03*
X197060000Y-122060000D03*
X220000000Y-124600000D03*
X217460000Y-122060000D03*
X222540000Y-122060000D03*
X222540000Y-127140000D03*
X217460000Y-127140000D03*
D59*
X68750000Y-114600000D03*
X67250000Y-114600000D03*
X68750000Y-92600000D03*
X67250000Y-92600000D03*
D60*
X61517000Y-114247000D03*
X60567000Y-114247000D03*
X59617000Y-114247000D03*
X59617000Y-116447000D03*
X61517000Y-116447000D03*
X61550000Y-92300000D03*
X60600000Y-92300000D03*
X59650000Y-92300000D03*
X59650000Y-94500000D03*
X61550000Y-94500000D03*
D61*
X90000000Y-115050000D03*
X90000000Y-116550000D03*
D62*
X96450000Y-115200000D03*
X97950000Y-115200000D03*
D61*
X133126000Y-122680000D03*
X133126000Y-124180000D03*
D62*
X151350000Y-125400000D03*
X149850000Y-125400000D03*
D61*
X90000000Y-93050000D03*
X90000000Y-94550000D03*
D62*
X96450000Y-93200000D03*
X97950000Y-93200000D03*
D63*
X136200000Y-113150000D03*
X136200000Y-109650000D03*
D64*
X155126000Y-122930000D03*
X151626000Y-122930000D03*
D65*
X88800000Y-116350000D03*
X88800000Y-114850000D03*
D66*
X141766000Y-117392000D03*
X141766000Y-119292000D03*
D67*
X167576000Y-126180000D03*
X165676000Y-126180000D03*
D65*
X88800000Y-94350000D03*
X88800000Y-92850000D03*
D60*
X71550000Y-113500000D03*
X70600000Y-113500000D03*
X69650000Y-113500000D03*
X69650000Y-115700000D03*
X71550000Y-115700000D03*
X70600000Y-115700000D03*
X82150000Y-113500000D03*
X81200000Y-113500000D03*
X80250000Y-113500000D03*
X80250000Y-115700000D03*
X82150000Y-115700000D03*
X93350000Y-114100000D03*
X92400000Y-114100000D03*
X91450000Y-114100000D03*
X91450000Y-116300000D03*
X93350000Y-116300000D03*
X92400000Y-116300000D03*
X71550000Y-91500000D03*
X70600000Y-91500000D03*
X69650000Y-91500000D03*
X69650000Y-93700000D03*
X71550000Y-93700000D03*
X70600000Y-93700000D03*
X82150000Y-91500000D03*
X81200000Y-91500000D03*
X80250000Y-91500000D03*
X80250000Y-93700000D03*
X82150000Y-93700000D03*
X93350000Y-92100000D03*
X92400000Y-92100000D03*
X91450000Y-92100000D03*
X91450000Y-94300000D03*
X93350000Y-94300000D03*
X92400000Y-94300000D03*
D66*
X118400000Y-116250000D03*
X118400000Y-118150000D03*
D37*
X103200000Y-117650000D03*
X103200000Y-118750000D03*
X102400000Y-112750000D03*
X102400000Y-111650000D03*
D21*
X104800000Y-117692000D03*
X104800000Y-118708000D03*
X104000000Y-112708000D03*
X104000000Y-111692000D03*
D10*
G36*
X106865054Y-118690581D02*
X105309419Y-117134946D01*
X106016526Y-116427839D01*
X107572161Y-117983474D01*
X106865054Y-118690581D01*
X106865054Y-118690581D01*
G37*
G36*
X107583474Y-117972161D02*
X106027839Y-116416526D01*
X106734946Y-115709419D01*
X108290581Y-117265054D01*
X107583474Y-117972161D01*
X107583474Y-117972161D01*
G37*
D38*
X105800000Y-112200000D03*
X106816000Y-112200000D03*
D37*
X103000000Y-95650000D03*
X103000000Y-96750000D03*
X102400000Y-90750000D03*
X102400000Y-89650000D03*
D21*
X104800000Y-95692000D03*
X104800000Y-96708000D03*
X104000000Y-90708000D03*
X104000000Y-89692000D03*
D10*
G36*
X106865054Y-96690581D02*
X105309419Y-95134946D01*
X106016526Y-94427839D01*
X107572161Y-95983474D01*
X106865054Y-96690581D01*
X106865054Y-96690581D01*
G37*
G36*
X107583474Y-95972161D02*
X106027839Y-94416526D01*
X106734946Y-93709419D01*
X108290581Y-95265054D01*
X107583474Y-95972161D01*
X107583474Y-95972161D01*
G37*
D38*
X105784000Y-90200000D03*
X106800000Y-90200000D03*
D24*
X100800000Y-117750000D03*
X100800000Y-120650000D03*
X100400000Y-112650000D03*
X100400000Y-109750000D03*
X100800000Y-95750000D03*
X100800000Y-98650000D03*
X100400000Y-90650000D03*
X100400000Y-87750000D03*
D60*
X104950000Y-114100000D03*
X104000000Y-114100000D03*
X103050000Y-114100000D03*
X103050000Y-116300000D03*
X104950000Y-116300000D03*
X104950000Y-92100000D03*
X104000000Y-92100000D03*
X103050000Y-92100000D03*
X103050000Y-94300000D03*
X104950000Y-94300000D03*
D61*
X133300000Y-100500000D03*
X133300000Y-102000000D03*
D40*
X143500000Y-101700000D03*
X143500000Y-103300000D03*
D39*
X160399999Y-88700000D03*
X158799999Y-88700000D03*
X162000000Y-88200000D03*
X163600000Y-88200000D03*
D40*
X168076000Y-97230001D03*
X168076000Y-95630001D03*
D62*
X151350000Y-103500000D03*
X149850000Y-103500000D03*
D39*
X145600000Y-88500000D03*
X147200000Y-88500000D03*
D40*
X142600000Y-89200000D03*
X142600000Y-87600000D03*
D44*
X138600000Y-91400000D03*
X138600000Y-90000000D03*
X138600000Y-89100000D03*
X138600000Y-87700000D03*
D63*
X136400000Y-91150000D03*
X136400000Y-87650000D03*
D64*
X155350000Y-101000000D03*
X151850000Y-101000000D03*
D14*
X118400000Y-98000000D03*
X120940000Y-95460000D03*
X120940000Y-100540000D03*
X115860000Y-100540000D03*
X115860000Y-95460000D03*
D66*
X118400000Y-94299999D03*
X118400000Y-96199999D03*
X142000000Y-95150000D03*
X142000000Y-97050000D03*
D67*
X167750000Y-104200000D03*
X165850000Y-104200000D03*
D18*
X169860000Y-100460000D03*
X172400000Y-103000000D03*
X174940000Y-100460000D03*
D47*
X137550000Y-100650000D03*
X136600000Y-100650000D03*
X135650000Y-100650000D03*
X135650000Y-103350000D03*
X137550000Y-103350000D03*
D48*
X148950000Y-99950000D03*
X148950000Y-99000000D03*
X148950000Y-98050000D03*
X146250000Y-98050000D03*
X146250000Y-99950000D03*
D49*
X156050000Y-91425000D03*
X156050000Y-92075000D03*
X156050000Y-92725000D03*
X156050000Y-93375000D03*
X160350000Y-93375000D03*
X160350000Y-92725000D03*
X160350000Y-92075000D03*
X160350000Y-91425000D03*
D50*
X142400000Y-90825000D03*
X142400000Y-91475000D03*
X142400000Y-92125000D03*
X142400000Y-92775000D03*
X146800000Y-92775000D03*
X146800000Y-92125000D03*
X146800000Y-91475000D03*
X146800000Y-90825000D03*
D51*
X159300000Y-97295000D03*
X159300000Y-98565000D03*
X159300000Y-99835000D03*
X159300000Y-101105000D03*
X164700000Y-101105000D03*
X164700000Y-99835000D03*
X164700000Y-98565000D03*
X164700000Y-97295000D03*
D67*
X44850000Y-154000000D03*
X46750000Y-154000000D03*
X45050000Y-129800000D03*
X46950000Y-129800000D03*
X44850000Y-166000000D03*
X46750000Y-166000000D03*
X44850000Y-142000000D03*
X46750000Y-142000000D03*
D68*
X210000000Y-94000000D03*
X213000000Y-94000000D03*
D15*
X223200000Y-88500000D03*
X223200000Y-91500000D03*
D14*
X199600000Y-110000000D03*
X202140000Y-107460000D03*
X202140000Y-112540000D03*
X197060000Y-112540000D03*
X197060000Y-107460000D03*
X220000000Y-110000000D03*
X222540000Y-107460000D03*
X222540000Y-112540000D03*
X217460000Y-112540000D03*
X217460000Y-107460000D03*
D16*
X209000000Y-110000000D03*
D17*
X211540000Y-110000000D03*
D18*
X255060000Y-102600000D03*
X257600000Y-105140000D03*
X260140000Y-102600000D03*
D69*
X215500000Y-88755000D03*
X215500000Y-90025000D03*
X215500000Y-91295000D03*
X215500000Y-92565000D03*
X215500000Y-93835000D03*
X215500000Y-95105000D03*
X215500000Y-96375000D03*
X215500000Y-97645000D03*
X220900000Y-97645000D03*
X220900000Y-96375000D03*
X220900000Y-95105000D03*
X220900000Y-93835000D03*
X220900000Y-92565000D03*
X220900000Y-91295000D03*
X220900000Y-90025000D03*
X220900000Y-88755000D03*
D53*
X208400000Y-90860000D03*
X205860000Y-90860000D03*
X210940000Y-90860000D03*
X205860000Y-95940000D03*
X208400000Y-95940000D03*
X210940000Y-95940000D03*
D69*
X255300000Y-110355000D03*
X255300000Y-111625000D03*
X255300000Y-112895000D03*
X255300000Y-114165000D03*
X255300000Y-115435000D03*
X255300000Y-116705000D03*
X255300000Y-117975000D03*
X255300000Y-119245000D03*
X260700000Y-119245000D03*
X260700000Y-117975000D03*
X260700000Y-116705000D03*
X260700000Y-115435000D03*
X260700000Y-114165000D03*
X260700000Y-112895000D03*
X260700000Y-111625000D03*
X260700000Y-110355000D03*
D37*
X59800000Y-70450000D03*
X59800000Y-71550000D03*
X59600000Y-65950000D03*
X59600000Y-64850000D03*
D21*
X61400000Y-70292000D03*
X61400000Y-71308000D03*
D38*
X62692000Y-64800000D03*
X63708000Y-64800000D03*
D10*
G36*
X63265054Y-71290581D02*
X61709419Y-69734946D01*
X62416526Y-69027839D01*
X63972161Y-70583474D01*
X63265054Y-71290581D01*
X63265054Y-71290581D01*
G37*
G36*
X63983474Y-70572161D02*
X62427839Y-69016526D01*
X63134946Y-68309419D01*
X64690581Y-69865054D01*
X63983474Y-70572161D01*
X63983474Y-70572161D01*
G37*
D21*
X61200000Y-65908000D03*
X61200000Y-64892000D03*
D37*
X69400000Y-69850000D03*
X69400000Y-70950000D03*
X68800000Y-64950000D03*
X68800000Y-63850000D03*
D10*
G36*
X73265054Y-71490581D02*
X71709419Y-69934946D01*
X72416526Y-69227839D01*
X73972161Y-70783474D01*
X73265054Y-71490581D01*
X73265054Y-71490581D01*
G37*
G36*
X73983474Y-70772161D02*
X72427839Y-69216526D01*
X73134946Y-68509419D01*
X74690581Y-70065054D01*
X73983474Y-70772161D01*
X73983474Y-70772161D01*
G37*
D21*
X70400000Y-64908000D03*
X70400000Y-63892000D03*
X71000000Y-69892000D03*
X71000000Y-70908000D03*
D10*
G36*
X71109419Y-64865054D02*
X72665054Y-63309419D01*
X73372161Y-64016526D01*
X71816526Y-65572161D01*
X71109419Y-64865054D01*
X71109419Y-64865054D01*
G37*
G36*
X71827839Y-65583474D02*
X73383474Y-64027839D01*
X74090581Y-64734946D01*
X72534946Y-66290581D01*
X71827839Y-65583474D01*
X71827839Y-65583474D01*
G37*
D38*
X75092000Y-67400000D03*
X76108000Y-67400000D03*
D37*
X80400000Y-69850000D03*
X80400000Y-70950000D03*
X79600000Y-64950000D03*
X79600000Y-63850000D03*
D21*
X81800000Y-69892000D03*
X81800000Y-70908000D03*
D38*
X82692000Y-64400000D03*
X83708000Y-64400000D03*
D61*
X90000000Y-67850000D03*
X90000000Y-69350000D03*
D10*
G36*
X83865054Y-70890581D02*
X82309419Y-69334946D01*
X83016526Y-68627839D01*
X84572161Y-70183474D01*
X83865054Y-70890581D01*
X83865054Y-70890581D01*
G37*
G36*
X84583474Y-70172161D02*
X83027839Y-68616526D01*
X83734946Y-67909419D01*
X85290581Y-69465054D01*
X84583474Y-70172161D01*
X84583474Y-70172161D01*
G37*
D21*
X81200000Y-64908000D03*
X81200000Y-63892000D03*
D37*
X92042000Y-70492000D03*
X92042000Y-71592000D03*
X91200000Y-65550000D03*
X91200000Y-64450000D03*
D62*
X96450000Y-68000000D03*
X97950000Y-68000000D03*
D10*
G36*
X95505844Y-71449791D02*
X93950209Y-69894156D01*
X94657316Y-69187049D01*
X96212951Y-70742684D01*
X95505844Y-71449791D01*
X95505844Y-71449791D01*
G37*
G36*
X96224264Y-70731371D02*
X94668629Y-69175736D01*
X95375736Y-68468629D01*
X96931371Y-70024264D01*
X96224264Y-70731371D01*
X96224264Y-70731371D01*
G37*
D21*
X92800000Y-65508000D03*
X92800000Y-64492000D03*
X93600000Y-70492000D03*
X93600000Y-71508000D03*
D10*
G36*
X93509419Y-66065054D02*
X95065054Y-64509419D01*
X95772161Y-65216526D01*
X94216526Y-66772161D01*
X93509419Y-66065054D01*
X93509419Y-66065054D01*
G37*
G36*
X94227839Y-66783474D02*
X95783474Y-65227839D01*
X96490581Y-65934946D01*
X94934946Y-67490581D01*
X94227839Y-66783474D01*
X94227839Y-66783474D01*
G37*
D37*
X102800000Y-70450000D03*
X102800000Y-71550000D03*
X102400000Y-65550000D03*
X102400000Y-64450000D03*
D10*
G36*
X106865054Y-71490581D02*
X105309419Y-69934946D01*
X106016526Y-69227839D01*
X107572161Y-70783474D01*
X106865054Y-71490581D01*
X106865054Y-71490581D01*
G37*
G36*
X107583474Y-70772161D02*
X106027839Y-69216526D01*
X106734946Y-68509419D01*
X108290581Y-70065054D01*
X107583474Y-70772161D01*
X107583474Y-70772161D01*
G37*
D21*
X104000000Y-65508000D03*
X104000000Y-64492000D03*
X104600000Y-70492000D03*
X104600000Y-71508000D03*
D38*
X105892000Y-65000000D03*
X106908000Y-65000000D03*
D14*
X53200000Y-68200000D03*
X50660000Y-65660000D03*
X50660000Y-70740000D03*
X55740000Y-70740000D03*
X55740000Y-65660000D03*
D45*
X59150000Y-74400000D03*
X62050000Y-74400000D03*
X59750000Y-62200000D03*
X62650000Y-62200000D03*
D24*
X67600000Y-70150000D03*
X67600000Y-73050000D03*
X67000000Y-64850000D03*
X67000000Y-61950000D03*
X78200000Y-70150000D03*
X78200000Y-73050000D03*
X77800000Y-64850000D03*
X77800000Y-61950000D03*
X90000000Y-71150000D03*
X90000000Y-74050000D03*
X88800000Y-65850000D03*
X88800000Y-62950000D03*
X100800000Y-70550000D03*
X100800000Y-73450000D03*
X100400000Y-65450000D03*
X100400000Y-62550000D03*
D66*
X118400000Y-69050000D03*
X118400000Y-70950000D03*
D59*
X68750000Y-67400000D03*
X67250000Y-67400000D03*
D65*
X88800000Y-69150000D03*
X88800000Y-67650000D03*
D60*
X61550000Y-67100000D03*
X60600000Y-67100000D03*
X59650000Y-67100000D03*
X59650000Y-69300000D03*
X61550000Y-69300000D03*
X71550000Y-66300000D03*
X70600000Y-66300000D03*
X69650000Y-66300000D03*
X69650000Y-68500000D03*
X71550000Y-68500000D03*
X70600000Y-68500000D03*
X82150000Y-66300000D03*
X81200000Y-66300000D03*
X80250000Y-66300000D03*
X80250000Y-68500000D03*
X82150000Y-68500000D03*
X93350000Y-66900000D03*
X92400000Y-66900000D03*
X91450000Y-66900000D03*
X91450000Y-69100000D03*
X93350000Y-69100000D03*
X92400000Y-69100000D03*
X104950000Y-66900000D03*
X104000000Y-66900000D03*
X103050000Y-66900000D03*
X103050000Y-69100000D03*
X104950000Y-69100000D03*
D37*
X59800000Y-48250000D03*
X59800000Y-49350000D03*
X59600000Y-43750000D03*
X59600000Y-42650000D03*
D21*
X61400000Y-48184000D03*
X61400000Y-49200000D03*
X61200000Y-43708000D03*
X61200000Y-42692000D03*
D10*
G36*
X63265054Y-49090581D02*
X61709419Y-47534946D01*
X62416526Y-46827839D01*
X63972161Y-48383474D01*
X63265054Y-49090581D01*
X63265054Y-49090581D01*
G37*
G36*
X63983474Y-48372161D02*
X62427839Y-46816526D01*
X63134946Y-46109419D01*
X64690581Y-47665054D01*
X63983474Y-48372161D01*
X63983474Y-48372161D01*
G37*
D38*
X62692000Y-42800000D03*
X63708000Y-42800000D03*
D37*
X69400000Y-47650000D03*
X69400000Y-48750000D03*
X68800000Y-42750000D03*
X68800000Y-41650000D03*
D10*
G36*
X73265054Y-49290581D02*
X71709419Y-47734946D01*
X72416526Y-47027839D01*
X73972161Y-48583474D01*
X73265054Y-49290581D01*
X73265054Y-49290581D01*
G37*
G36*
X73983474Y-48572161D02*
X72427839Y-47016526D01*
X73134946Y-46309419D01*
X74690581Y-47865054D01*
X73983474Y-48572161D01*
X73983474Y-48572161D01*
G37*
D21*
X70400000Y-42708000D03*
X70400000Y-41692000D03*
X71000000Y-47692000D03*
X71000000Y-48708000D03*
D10*
G36*
X71109419Y-42665054D02*
X72665054Y-41109419D01*
X73372161Y-41816526D01*
X71816526Y-43372161D01*
X71109419Y-42665054D01*
X71109419Y-42665054D01*
G37*
G36*
X71827839Y-43383474D02*
X73383474Y-41827839D01*
X74090581Y-42534946D01*
X72534946Y-44090581D01*
X71827839Y-43383474D01*
X71827839Y-43383474D01*
G37*
D38*
X75162000Y-45230000D03*
X76178000Y-45230000D03*
D37*
X80400000Y-47650000D03*
X80400000Y-48750000D03*
X79600000Y-42750000D03*
X79600000Y-41650000D03*
D21*
X82000000Y-47692000D03*
X82000000Y-48708000D03*
D38*
X82692000Y-42200000D03*
X83708000Y-42200000D03*
D61*
X90000000Y-45650000D03*
X90000000Y-47150000D03*
D10*
G36*
X83905844Y-48649791D02*
X82350209Y-47094156D01*
X83057316Y-46387049D01*
X84612951Y-47942684D01*
X83905844Y-48649791D01*
X83905844Y-48649791D01*
G37*
G36*
X84624264Y-47931371D02*
X83068629Y-46375736D01*
X83775736Y-45668629D01*
X85331371Y-47224264D01*
X84624264Y-47931371D01*
X84624264Y-47931371D01*
G37*
D21*
X81200000Y-42708000D03*
X81200000Y-41692000D03*
D37*
X91800000Y-48250000D03*
X91800000Y-49350000D03*
X91200000Y-43300000D03*
X91200000Y-42200000D03*
D62*
X96450000Y-45800000D03*
X97950000Y-45800000D03*
D21*
X93400000Y-48292000D03*
X93400000Y-49308000D03*
X92800000Y-43308000D03*
X92800000Y-42292000D03*
D10*
G36*
X95465054Y-49290581D02*
X93909419Y-47734946D01*
X94616526Y-47027839D01*
X96172161Y-48583474D01*
X95465054Y-49290581D01*
X95465054Y-49290581D01*
G37*
G36*
X96183474Y-48572161D02*
X94627839Y-47016526D01*
X95334946Y-46309419D01*
X96890581Y-47865054D01*
X96183474Y-48572161D01*
X96183474Y-48572161D01*
G37*
G36*
X93509419Y-43865054D02*
X95065054Y-42309419D01*
X95772161Y-43016526D01*
X94216526Y-44572161D01*
X93509419Y-43865054D01*
X93509419Y-43865054D01*
G37*
G36*
X94227839Y-44583474D02*
X95783474Y-43027839D01*
X96490581Y-43734946D01*
X94934946Y-45290581D01*
X94227839Y-44583474D01*
X94227839Y-44583474D01*
G37*
D37*
X103000000Y-48250000D03*
X103000000Y-49350000D03*
X102400000Y-43350000D03*
X102400000Y-42250000D03*
D21*
X104800000Y-48292000D03*
X104800000Y-49308000D03*
X104000000Y-43308000D03*
X104000000Y-42292000D03*
D10*
G36*
X106905844Y-49249791D02*
X105350209Y-47694156D01*
X106057316Y-46987049D01*
X107612951Y-48542684D01*
X106905844Y-49249791D01*
X106905844Y-49249791D01*
G37*
G36*
X107624264Y-48531371D02*
X106068629Y-46975736D01*
X106775736Y-46268629D01*
X108331371Y-47824264D01*
X107624264Y-48531371D01*
X107624264Y-48531371D01*
G37*
D38*
X105784000Y-42800000D03*
X106800000Y-42800000D03*
D14*
X53200000Y-46000000D03*
X50660000Y-43460000D03*
X50660000Y-48540000D03*
X55740000Y-48540000D03*
X55740000Y-43460000D03*
D45*
X59150000Y-52200000D03*
X62050000Y-52200000D03*
X59700000Y-39800000D03*
X62600000Y-39800000D03*
D24*
X67600000Y-47950000D03*
X67600000Y-50850000D03*
X67000000Y-42650000D03*
X67000000Y-39750000D03*
X78200000Y-47950000D03*
X78200000Y-50850000D03*
X77800000Y-42650000D03*
X77800000Y-39750000D03*
X90000000Y-48950000D03*
X90000000Y-51850000D03*
X88800000Y-43650000D03*
X88800000Y-40750000D03*
X100800000Y-48350000D03*
X100800000Y-51250000D03*
X100400000Y-43300000D03*
X100400000Y-40400000D03*
D66*
X118400000Y-47050000D03*
X118400000Y-48950000D03*
D59*
X68750000Y-45200000D03*
X67250000Y-45200000D03*
D65*
X88800000Y-46950000D03*
X88800000Y-45450000D03*
D60*
X61550000Y-44900000D03*
X60600000Y-44900000D03*
X59650000Y-44900000D03*
X59650000Y-47100000D03*
X61550000Y-47100000D03*
X71500000Y-44200000D03*
X70550000Y-44200000D03*
X69600000Y-44200000D03*
X69600000Y-46400000D03*
X71500000Y-46400000D03*
X70550000Y-46400000D03*
X82150000Y-44100000D03*
X81200000Y-44100000D03*
X80250000Y-44100000D03*
X80250000Y-46300000D03*
X82150000Y-46300000D03*
X93350000Y-44700000D03*
X92400000Y-44700000D03*
X91450000Y-44700000D03*
X91450000Y-46900000D03*
X93350000Y-46900000D03*
X92400000Y-46900000D03*
X104950000Y-44700000D03*
X104000000Y-44700000D03*
X103050000Y-44700000D03*
X103050000Y-46900000D03*
X104950000Y-46900000D03*
D61*
X133400000Y-75250000D03*
X133400000Y-76750000D03*
D40*
X143400000Y-76600000D03*
X143400000Y-78200000D03*
D39*
X160400000Y-63600000D03*
X158800000Y-63600000D03*
X162200000Y-63000000D03*
X163800000Y-63000000D03*
D40*
X168000000Y-71999999D03*
X168000000Y-70399999D03*
D62*
X151300000Y-78400000D03*
X149800000Y-78400000D03*
D40*
X142600000Y-64000001D03*
X142600000Y-62400001D03*
D39*
X145600000Y-63400000D03*
X147200000Y-63400000D03*
D44*
X138600000Y-66100000D03*
X138600000Y-64700000D03*
X138600000Y-63800000D03*
X138600000Y-62400000D03*
D63*
X136400000Y-65950000D03*
X136400000Y-62450000D03*
D64*
X155350000Y-75800000D03*
X151850000Y-75800000D03*
D66*
X142000000Y-69850000D03*
X142000000Y-71750000D03*
D67*
X167750000Y-79000000D03*
X165850000Y-79000000D03*
D18*
X138340000Y-72740000D03*
X135800000Y-70200000D03*
X133260000Y-72740000D03*
X169860000Y-75260000D03*
X172400000Y-77800000D03*
X174940000Y-75260000D03*
D47*
X137550000Y-75450000D03*
X136600000Y-75450000D03*
X135650000Y-75450000D03*
X135650000Y-78150000D03*
X137550000Y-78150000D03*
D48*
X149150000Y-74750000D03*
X149150000Y-73800000D03*
X149150000Y-72850000D03*
X146450000Y-72850000D03*
X146450000Y-74750000D03*
D49*
X156050000Y-66225000D03*
X156050000Y-66875000D03*
X156050000Y-67525000D03*
X156050000Y-68175000D03*
X160350000Y-68175000D03*
X160350000Y-67525000D03*
X160350000Y-66875000D03*
X160350000Y-66225000D03*
D50*
X142400000Y-65625000D03*
X142400000Y-66275000D03*
X142400000Y-66925000D03*
X142400000Y-67575000D03*
X146800000Y-67575000D03*
X146800000Y-66925000D03*
X146800000Y-66275000D03*
X146800000Y-65625000D03*
D51*
X159300000Y-72095000D03*
X159300000Y-73365000D03*
X159300000Y-74635000D03*
X159300000Y-75905000D03*
X164700000Y-75905000D03*
X164700000Y-74635000D03*
X164700000Y-73365000D03*
X164700000Y-72095000D03*
D61*
X133726000Y-53080000D03*
X133726000Y-54580000D03*
D40*
X143800000Y-54200000D03*
X143800000Y-55800000D03*
D39*
X160800000Y-41400000D03*
X159200000Y-41400000D03*
X162600000Y-41000000D03*
X164200000Y-41000000D03*
D40*
X168400000Y-49800000D03*
X168400000Y-48200000D03*
D62*
X151750000Y-56200000D03*
X150250000Y-56200000D03*
D40*
X143000000Y-41700000D03*
X143000000Y-40100000D03*
D39*
X146000000Y-41200000D03*
X147600000Y-41200000D03*
D44*
X139000000Y-44100000D03*
X139000000Y-42700000D03*
X139000000Y-41700000D03*
X139000000Y-40300000D03*
D63*
X136800000Y-43550000D03*
X136800000Y-40050000D03*
D64*
X155750000Y-53600000D03*
X152250000Y-53600000D03*
D66*
X142400000Y-47650000D03*
X142400000Y-49550000D03*
D67*
X168150000Y-56800000D03*
X166250000Y-56800000D03*
D18*
X138740000Y-50600000D03*
X136200000Y-48060000D03*
X133660000Y-50600000D03*
X170200000Y-53060000D03*
X172740000Y-55600000D03*
X175280000Y-53060000D03*
D47*
X137950000Y-53250000D03*
X137000000Y-53250000D03*
X136050000Y-53250000D03*
X136050000Y-55950000D03*
X137950000Y-55950000D03*
D48*
X149350000Y-52550000D03*
X149350000Y-51600000D03*
X149350000Y-50650000D03*
X146650000Y-50650000D03*
X146650000Y-52550000D03*
D49*
X156450000Y-44025000D03*
X156450000Y-44675000D03*
X156450000Y-45325000D03*
X156450000Y-45975000D03*
X160750000Y-45975000D03*
X160750000Y-45325000D03*
X160750000Y-44675000D03*
X160750000Y-44025000D03*
D50*
X142800000Y-43425000D03*
X142800000Y-44075000D03*
X142800000Y-44725000D03*
X142800000Y-45375000D03*
X147200000Y-45375000D03*
X147200000Y-44725000D03*
X147200000Y-44075000D03*
X147200000Y-43425000D03*
D51*
X159700000Y-49895000D03*
X159700000Y-51165000D03*
X159700000Y-52435000D03*
X159700000Y-53705000D03*
X165100000Y-53705000D03*
X165100000Y-52435000D03*
X165100000Y-51165000D03*
X165100000Y-49895000D03*
D14*
X199460000Y-75240000D03*
X202000000Y-72700000D03*
X202000000Y-77780000D03*
X196920000Y-77780000D03*
X196920000Y-72700000D03*
X199460000Y-60660000D03*
X202000000Y-58120000D03*
X202000000Y-63200000D03*
X196920000Y-63200000D03*
X196920000Y-58120000D03*
X219740000Y-60740000D03*
X222280000Y-58200000D03*
X222280000Y-63280000D03*
X217200000Y-63280000D03*
X217200000Y-58200000D03*
D16*
X208800000Y-75300000D03*
D17*
X211340000Y-75300000D03*
D16*
X208800000Y-60600000D03*
D17*
X211340000Y-60600000D03*
D67*
X236350000Y-121400000D03*
X234450000Y-121400000D03*
D66*
X238600000Y-112550000D03*
X238600000Y-110650000D03*
D67*
X235550000Y-72000000D03*
X233650000Y-72000000D03*
D66*
X238500000Y-64050000D03*
X238500000Y-62150000D03*
D43*
X221000000Y-86200000D03*
X222900000Y-86200000D03*
X264350000Y-60800000D03*
X262450000Y-60800000D03*
D16*
X277200000Y-62400000D03*
D17*
X277200000Y-64940000D03*
D16*
X241600000Y-106800000D03*
D17*
X244140000Y-106800000D03*
X246680000Y-106800000D03*
D16*
X241660000Y-78200000D03*
D17*
X244200000Y-78200000D03*
X246740000Y-78200000D03*
D69*
X259100000Y-62790000D03*
X259100000Y-64060000D03*
X259100000Y-65330000D03*
X259100000Y-66600000D03*
X259100000Y-67870000D03*
X259100000Y-69140000D03*
X259100000Y-70410000D03*
X264500000Y-70410000D03*
X264500000Y-69140000D03*
X264500000Y-67870000D03*
X264500000Y-66600000D03*
X264500000Y-65330000D03*
X264500000Y-64060000D03*
X264500000Y-62790000D03*
D43*
X260750000Y-108600000D03*
X258850000Y-108600000D03*
D10*
G36*
X262118719Y-51714555D02*
X263285445Y-52881281D01*
X262295495Y-53871231D01*
X261128769Y-52704505D01*
X262118719Y-51714555D01*
X262118719Y-51714555D01*
G37*
G36*
X260704505Y-53128769D02*
X261871231Y-54295495D01*
X260881281Y-55285445D01*
X259714555Y-54118719D01*
X260704505Y-53128769D01*
X260704505Y-53128769D01*
G37*
G36*
X263392552Y-32425826D02*
X262225826Y-33592552D01*
X261235876Y-32602602D01*
X262402602Y-31435876D01*
X263392552Y-32425826D01*
X263392552Y-32425826D01*
G37*
G36*
X261978338Y-31011612D02*
X260811612Y-32178338D01*
X259821662Y-31188388D01*
X260988388Y-30021662D01*
X261978338Y-31011612D01*
X261978338Y-31011612D01*
G37*
D70*
X95260000Y-135000000D03*
D71*
X97800000Y-135000000D03*
D70*
X81866644Y-135077632D03*
D71*
X79326644Y-135077632D03*
D70*
X61500000Y-135100000D03*
D71*
X64040000Y-135100000D03*
D72*
X101200000Y-135000000D03*
X101200000Y-137000000D03*
X85200000Y-135100000D03*
X85200000Y-137100000D03*
X67300000Y-135100000D03*
X67300000Y-137100000D03*
D13*
X121800000Y-143200000D03*
X96600000Y-129800000D03*
X80600000Y-129800000D03*
X179400000Y-126600000D03*
X56200000Y-80400000D03*
X230200000Y-93000000D03*
X118600000Y-85200000D03*
X248200000Y-55600000D03*
X246400000Y-144000000D03*
X62800000Y-129800000D03*
D12*
X50800000Y-180400000D03*
X76600000Y-146800000D03*
M02*
