G04 #@! TF.FileFunction,Soldermask,Top*
%FSLAX46Y46*%
G04 Gerber Fmt 4.6, Leading zero omitted, Abs format (unit mm)*
G04 Created by KiCad (PCBNEW 4.0.7) date 10/30/17 11:50:10*
%MOMM*%
%LPD*%
G01*
G04 APERTURE LIST*
%ADD10C,0.100000*%
%ADD11C,3.810000*%
%ADD12C,3.600000*%
%ADD13C,2.400000*%
%ADD14C,2.000000*%
%ADD15R,2.000000X1.400000*%
%ADD16R,2.100000X2.100000*%
%ADD17O,2.100000X2.100000*%
%ADD18C,1.840000*%
%ADD19R,2.000000X2.000000*%
%ADD20O,2.000000X2.000000*%
%ADD21R,2.200000X1.000000*%
%ADD22O,2.398980X2.398980*%
%ADD23R,2.398980X2.398980*%
%ADD24R,2.900000X1.300000*%
%ADD25R,2.400000X2.400000*%
%ADD26R,2.000000X2.400000*%
%ADD27R,2.100000X2.400000*%
%ADD28R,1.650000X1.900000*%
%ADD29R,1.700000X1.700000*%
%ADD30C,1.700000*%
%ADD31R,2.600000X2.600000*%
%ADD32O,2.600000X2.600000*%
%ADD33C,2.900000*%
%ADD34C,3.400000*%
%ADD35C,3.000000*%
%ADD36C,2.940000*%
%ADD37R,0.900000X1.000000*%
%ADD38R,1.000000X2.200000*%
%ADD39R,1.200000X3.600000*%
%ADD40R,3.600000X1.200000*%
%ADD41R,1.900000X1.650000*%
%ADD42R,1.150000X1.600000*%
%ADD43R,1.600000X1.150000*%
%ADD44R,1.100000X1.000000*%
%ADD45R,1.300000X2.900000*%
%ADD46R,1.300000X1.600000*%
%ADD47R,1.050000X1.960000*%
%ADD48R,1.960000X1.050000*%
%ADD49R,1.500000X0.800000*%
%ADD50R,1.850000X0.850000*%
%ADD51R,1.950000X1.000000*%
%ADD52R,0.700000X1.800000*%
%ADD53C,1.924000*%
%ADD54R,1.600000X1.300000*%
%ADD55C,2.800000*%
%ADD56C,4.049980*%
%ADD57R,1.901140X1.901140*%
%ADD58C,1.901140*%
%ADD59R,0.900000X1.300000*%
%ADD60R,1.050000X1.460000*%
%ADD61R,1.150000X1.200000*%
%ADD62R,1.200000X1.150000*%
%ADD63R,2.100000X1.700000*%
%ADD64R,1.700000X2.100000*%
%ADD65R,1.300000X0.900000*%
%ADD66R,1.700000X1.100000*%
%ADD67R,1.100000X1.700000*%
%ADD68R,1.400000X2.000000*%
%ADD69R,1.900000X1.000000*%
%ADD70R,2.200000X2.200000*%
%ADD71C,2.200000*%
%ADD72R,1.650000X1.400000*%
%ADD73R,1.000000X0.900000*%
G04 APERTURE END LIST*
D10*
D11*
X227400000Y-71400000D02*
X227400000Y-68200000D01*
X225600000Y-73000000D02*
X227400000Y-71400000D01*
X210200000Y-73000000D02*
X225600000Y-73000000D01*
X201800000Y-73000000D02*
X210200000Y-73000000D01*
X227400000Y-61000000D02*
X227400000Y-62600000D01*
X225000000Y-58600000D02*
X227400000Y-61000000D01*
X210000000Y-58400000D02*
X225000000Y-58600000D01*
X201800000Y-58400000D02*
X210000000Y-58400000D01*
X227600000Y-120000000D02*
X227600000Y-117400000D01*
X225200000Y-122400000D02*
X227600000Y-120000000D01*
X210400000Y-122400000D02*
X225200000Y-122400000D01*
X201800000Y-122400000D02*
X210400000Y-122400000D01*
X227600000Y-110000000D02*
X227600000Y-111800000D01*
X225400000Y-107800000D02*
X227600000Y-110000000D01*
X202000000Y-107800000D02*
X225400000Y-107800000D01*
X241200000Y-36800000D02*
X244400000Y-36800000D01*
X236800000Y-32400000D02*
X241200000Y-36800000D01*
X218800000Y-32400000D02*
X236800000Y-32400000D01*
X218800000Y-30200000D02*
X218800000Y-32400000D01*
X215200000Y-30200000D02*
X218800000Y-30200000D01*
X215200000Y-34600000D02*
X215200000Y-30200000D01*
X211600000Y-34600000D02*
X215200000Y-34600000D01*
X211600000Y-30200000D02*
X211600000Y-34600000D01*
X207800000Y-30200000D02*
X211600000Y-30200000D01*
X207800000Y-34600000D02*
X207800000Y-30200000D01*
X204200000Y-34600000D02*
X207800000Y-34600000D01*
X204200000Y-30000000D02*
X204200000Y-34600000D01*
X200600000Y-30000000D02*
X204200000Y-30000000D01*
X200600000Y-34800000D02*
X200600000Y-30000000D01*
X197000000Y-34800000D02*
X200600000Y-34800000D01*
X197000000Y-30000000D02*
X197000000Y-34800000D01*
X193400000Y-30000000D02*
X197000000Y-30000000D01*
X193400000Y-34600000D02*
X193400000Y-30000000D01*
X189800000Y-34600000D02*
X193400000Y-34600000D01*
X189800000Y-30000000D02*
X189800000Y-34600000D01*
X186000000Y-30000000D02*
X189800000Y-30000000D01*
X186000000Y-34600000D02*
X186000000Y-30000000D01*
X182400000Y-34600000D02*
X186000000Y-34600000D01*
X182400000Y-30200000D02*
X182400000Y-34600000D01*
X178800000Y-30200000D02*
X182400000Y-30200000D01*
X178800000Y-34600000D02*
X178800000Y-30200000D01*
X175000000Y-34600000D02*
X178800000Y-34600000D01*
X175000000Y-32400000D02*
X175000000Y-34600000D01*
X169800000Y-32400000D02*
X175000000Y-32400000D01*
X159400000Y-42800000D02*
X169800000Y-32400000D01*
X151200000Y-42800000D02*
X159400000Y-42800000D01*
X239000000Y-39400000D02*
X244200000Y-39400000D01*
X238000000Y-38400000D02*
X239000000Y-39400000D01*
X185000000Y-38400000D02*
X238000000Y-38400000D01*
X183800000Y-39600000D02*
X185000000Y-38400000D01*
X182600000Y-39600000D02*
X183800000Y-39600000D01*
X181400000Y-38400000D02*
X182600000Y-39600000D01*
X175400000Y-38400000D02*
X181400000Y-38400000D01*
X174800000Y-38400000D02*
X175400000Y-38400000D01*
X174400000Y-38200000D02*
X174800000Y-38400000D01*
X173800000Y-38000000D02*
X174400000Y-38200000D01*
X172400000Y-36600000D02*
X173800000Y-38000000D01*
X171400000Y-36600000D02*
X172400000Y-36600000D01*
X170600000Y-37000000D02*
X171400000Y-36600000D01*
X170000000Y-38000000D02*
X170600000Y-37000000D01*
X170000000Y-38800000D02*
X170000000Y-38000000D01*
X170400000Y-39400000D02*
X170000000Y-38800000D01*
X176000000Y-45000000D02*
X170400000Y-39400000D01*
X176400000Y-45800000D02*
X176000000Y-45000000D01*
X176400000Y-46600000D02*
X176400000Y-45800000D01*
X176000000Y-47400000D02*
X176400000Y-46600000D01*
X175400000Y-47800000D02*
X176000000Y-47400000D01*
X174600000Y-48000000D02*
X175400000Y-47800000D01*
X173400000Y-47400000D02*
X174600000Y-48000000D01*
X171800000Y-45800000D02*
X173400000Y-47400000D01*
X171400000Y-45400000D02*
X171800000Y-45800000D01*
X170600000Y-45400000D02*
X171400000Y-45400000D01*
X169800000Y-45600000D02*
X170600000Y-45400000D01*
X169200000Y-46200000D02*
X169800000Y-45600000D01*
X169200000Y-56400000D02*
X169200000Y-46200000D01*
X167200000Y-58600000D02*
X169200000Y-56400000D01*
X166400000Y-58600000D02*
X167200000Y-58600000D01*
X165800000Y-58600000D02*
X166400000Y-58600000D01*
X165600000Y-58200000D02*
X165800000Y-58600000D01*
X164400000Y-57200000D02*
X165600000Y-58200000D01*
X163800000Y-56800000D02*
X164400000Y-57200000D01*
X163000000Y-56800000D02*
X163800000Y-56800000D01*
X162200000Y-57200000D02*
X163000000Y-56800000D01*
X161600000Y-58000000D02*
X162200000Y-57200000D01*
X161600000Y-58800000D02*
X161600000Y-58000000D01*
X162000000Y-59600000D02*
X161600000Y-58800000D01*
X166200000Y-64000000D02*
X162000000Y-59600000D01*
X166600000Y-64600000D02*
X166200000Y-64000000D01*
X166800000Y-65200000D02*
X166600000Y-64600000D01*
X166600000Y-65800000D02*
X166800000Y-65200000D01*
X166200000Y-66400000D02*
X166600000Y-65800000D01*
X165400000Y-66800000D02*
X166200000Y-66400000D01*
X164600000Y-66800000D02*
X165400000Y-66800000D01*
X164000000Y-66600000D02*
X164600000Y-66800000D01*
X163000000Y-65400000D02*
X164000000Y-66600000D01*
X162200000Y-65200000D02*
X163000000Y-65400000D01*
X161400000Y-65000000D02*
X162200000Y-65200000D01*
X150800000Y-65000000D02*
X161400000Y-65000000D01*
X240800000Y-42000000D02*
X244600000Y-42000000D01*
X239600000Y-43000000D02*
X240800000Y-42000000D01*
X185800000Y-43000000D02*
X239600000Y-43000000D01*
X173400000Y-55400000D02*
X185800000Y-43000000D01*
X173400000Y-81200000D02*
X173400000Y-55400000D01*
X172400000Y-82200000D02*
X173400000Y-81200000D01*
X171800000Y-82600000D02*
X172400000Y-82200000D01*
X171000000Y-82600000D02*
X171800000Y-82600000D01*
X170200000Y-82400000D02*
X171000000Y-82600000D01*
X169200000Y-81400000D02*
X170200000Y-82400000D01*
X168600000Y-80800000D02*
X169200000Y-81400000D01*
X167600000Y-80600000D02*
X168600000Y-80800000D01*
X166600000Y-81000000D02*
X167600000Y-80600000D01*
X166000000Y-81800000D02*
X166600000Y-81000000D01*
X166000000Y-83200000D02*
X166000000Y-81800000D01*
X166600000Y-84200000D02*
X166000000Y-83200000D01*
X170600000Y-88000000D02*
X166600000Y-84200000D01*
X171000000Y-88600000D02*
X170600000Y-88000000D01*
X171200000Y-89800000D02*
X171000000Y-88600000D01*
X170800000Y-90800000D02*
X171200000Y-89800000D01*
X169600000Y-91400000D02*
X170800000Y-90800000D01*
X168400000Y-91200000D02*
X169600000Y-91400000D01*
X167200000Y-90000000D02*
X168400000Y-91200000D01*
X166600000Y-89800000D02*
X167200000Y-90000000D01*
X165800000Y-89600000D02*
X166600000Y-89800000D01*
X165200000Y-89800000D02*
X165800000Y-89600000D01*
X164400000Y-90200000D02*
X165200000Y-89800000D01*
X151000000Y-90200000D02*
X164400000Y-90200000D01*
X239800000Y-47600000D02*
X242800000Y-44600000D01*
X187600000Y-47600000D02*
X239800000Y-47600000D01*
X178200000Y-57000000D02*
X187600000Y-47600000D01*
X178200000Y-94400000D02*
X178200000Y-57000000D01*
X160400000Y-112200000D02*
X178200000Y-94400000D01*
X151600000Y-112200000D02*
X160400000Y-112200000D01*
D12*
X120800000Y-34600000D03*
X228200000Y-133200000D03*
X254600000Y-23400000D03*
X41000000Y-23400000D03*
X254800000Y-178400000D03*
D13*
X48200000Y-144200000D03*
D14*
X210200000Y-73100000D03*
X212740000Y-70560000D03*
X212740000Y-75640000D03*
X207660000Y-75640000D03*
X207660000Y-70560000D03*
X252260000Y-78660000D03*
X254800000Y-81200000D03*
X254800000Y-76120000D03*
X249720000Y-76120000D03*
X249720000Y-81200000D03*
D15*
X254000000Y-107700000D03*
X254000000Y-110700000D03*
D16*
X244800000Y-68260000D03*
D17*
X244800000Y-70800000D03*
X244800000Y-73340000D03*
D14*
X108800000Y-48200000D03*
X111340000Y-45660000D03*
X111340000Y-50740000D03*
X106260000Y-50740000D03*
X106260000Y-45660000D03*
X108800000Y-70400000D03*
X111340000Y-67860000D03*
X111340000Y-72940000D03*
X106260000Y-72940000D03*
X106260000Y-67860000D03*
D18*
X32940000Y-127660000D03*
X30400000Y-130200000D03*
X32940000Y-132740000D03*
D19*
X238712364Y-111223332D03*
D20*
X231092364Y-118843332D03*
X238712364Y-113763332D03*
X231092364Y-116303332D03*
X238712364Y-116303332D03*
X231092364Y-113763332D03*
X238712364Y-118843332D03*
X231092364Y-111223332D03*
D18*
X128740000Y-95740000D03*
X126200000Y-93200000D03*
X123660000Y-95740000D03*
D21*
X71200000Y-109908000D03*
X71200000Y-108892000D03*
D22*
X25565000Y-164380000D03*
D23*
X25565000Y-172000000D03*
D22*
X25565000Y-169460000D03*
X25565000Y-166920000D03*
X25400000Y-128220000D03*
D23*
X25400000Y-135840000D03*
D22*
X25400000Y-133300000D03*
X25400000Y-130760000D03*
D14*
X43600000Y-113200000D03*
X41060000Y-110660000D03*
X41060000Y-115740000D03*
X46140000Y-115740000D03*
X46140000Y-110660000D03*
D24*
X80400000Y-116150000D03*
X80400000Y-119050000D03*
D10*
G36*
X63665054Y-116490581D02*
X62109419Y-114934946D01*
X62816526Y-114227839D01*
X64372161Y-115783474D01*
X63665054Y-116490581D01*
X63665054Y-116490581D01*
G37*
G36*
X64383474Y-115772161D02*
X62827839Y-114216526D01*
X63534946Y-113509419D01*
X65090581Y-115065054D01*
X64383474Y-115772161D01*
X64383474Y-115772161D01*
G37*
D25*
X225400000Y-150800000D03*
D13*
X220400000Y-150800000D03*
D25*
X88900000Y-151800000D03*
D13*
X88900000Y-146800000D03*
D19*
X212400000Y-159800000D03*
D14*
X212400000Y-163300000D03*
D19*
X136600000Y-154300000D03*
D14*
X136600000Y-149300000D03*
D19*
X127490000Y-160300000D03*
D14*
X127490000Y-165300000D03*
D19*
X127600000Y-154300000D03*
D14*
X127600000Y-149300000D03*
D19*
X136600000Y-160300000D03*
D14*
X136600000Y-165300000D03*
D26*
X121600000Y-154300000D03*
X121600000Y-150300000D03*
X119600000Y-165300000D03*
X119600000Y-161300000D03*
X119600000Y-154300000D03*
X119600000Y-150300000D03*
X121600000Y-165300000D03*
X121600000Y-161300000D03*
D27*
X67200000Y-160400000D03*
X67200000Y-156400000D03*
D28*
X115600000Y-154550000D03*
X115600000Y-152050000D03*
X117600000Y-165550000D03*
X117600000Y-163050000D03*
X117600000Y-154550000D03*
X117600000Y-152050000D03*
X115600000Y-165550000D03*
X115600000Y-163050000D03*
D29*
X68400000Y-168300000D03*
D30*
X68400000Y-166300000D03*
D19*
X48400000Y-163300000D03*
D14*
X48400000Y-159800000D03*
D31*
X86400000Y-172800000D03*
D32*
X76240000Y-172800000D03*
D33*
X246100000Y-162300000D03*
X221970000Y-162300000D03*
D34*
X88900000Y-158300000D03*
X88900000Y-166200000D03*
D35*
X209900000Y-150300000D03*
X214900000Y-150300000D03*
D13*
X76400000Y-151800000D03*
X80400000Y-151800000D03*
D12*
X144600000Y-150900000D03*
X151100000Y-150900000D03*
X144600000Y-163900000D03*
X151100000Y-163900000D03*
D36*
X190560000Y-154760000D03*
X190560000Y-159840000D03*
X170240000Y-147140000D03*
X170240000Y-157300000D03*
X170240000Y-167460000D03*
D14*
X61940000Y-168190000D03*
X61940000Y-165650000D03*
X61940000Y-163110000D03*
X61940000Y-160570000D03*
X61940000Y-155490000D03*
X61940000Y-152950000D03*
X61940000Y-150410000D03*
D37*
X50078000Y-115306000D03*
X50078000Y-116406000D03*
X50078000Y-110948000D03*
X50078000Y-109848000D03*
D21*
X51800000Y-115292000D03*
X51800000Y-116308000D03*
D38*
X53092000Y-109800000D03*
X54108000Y-109800000D03*
D10*
G36*
X53665054Y-116288581D02*
X52109419Y-114732946D01*
X52816526Y-114025839D01*
X54372161Y-115581474D01*
X53665054Y-116288581D01*
X53665054Y-116288581D01*
G37*
G36*
X54383474Y-115570161D02*
X52827839Y-114014526D01*
X53534946Y-113307419D01*
X55090581Y-114863054D01*
X54383474Y-115570161D01*
X54383474Y-115570161D01*
G37*
D21*
X51602000Y-110906000D03*
X51602000Y-109890000D03*
D37*
X60000000Y-114850000D03*
X60000000Y-115950000D03*
X59600000Y-109950000D03*
X59600000Y-108850000D03*
D21*
X61498000Y-114892000D03*
X61498000Y-115908000D03*
X61000000Y-109908000D03*
X61000000Y-108892000D03*
D10*
G36*
X61509419Y-109865054D02*
X63065054Y-108309419D01*
X63772161Y-109016526D01*
X62216526Y-110572161D01*
X61509419Y-109865054D01*
X61509419Y-109865054D01*
G37*
G36*
X62227839Y-110583474D02*
X63783474Y-109027839D01*
X64490581Y-109734946D01*
X62934946Y-111290581D01*
X62227839Y-110583474D01*
X62227839Y-110583474D01*
G37*
D38*
X65492000Y-112400000D03*
X66508000Y-112400000D03*
D37*
X70800000Y-114850000D03*
X70800000Y-115950000D03*
X69800000Y-109950000D03*
X69800000Y-108850000D03*
D10*
G36*
X74263054Y-115890581D02*
X72707419Y-114334946D01*
X73414526Y-113627839D01*
X74970161Y-115183474D01*
X74263054Y-115890581D01*
X74263054Y-115890581D01*
G37*
G36*
X74981474Y-115172161D02*
X73425839Y-113616526D01*
X74132946Y-112909419D01*
X75688581Y-114465054D01*
X74981474Y-115172161D01*
X74981474Y-115172161D01*
G37*
D21*
X72200000Y-114892000D03*
X72200000Y-115908000D03*
D38*
X73092000Y-109400000D03*
X74108000Y-109400000D03*
D37*
X82400000Y-115450000D03*
X82400000Y-116550000D03*
X81600000Y-110550000D03*
X81600000Y-109450000D03*
D21*
X83800000Y-115492000D03*
X83800000Y-116508000D03*
X83200000Y-110508000D03*
X83200000Y-109492000D03*
D10*
G36*
X85865054Y-116490581D02*
X84309419Y-114934946D01*
X85016526Y-114227839D01*
X86572161Y-115783474D01*
X85865054Y-116490581D01*
X85865054Y-116490581D01*
G37*
G36*
X86583474Y-115772161D02*
X85027839Y-114216526D01*
X85734946Y-113509419D01*
X87290581Y-115065054D01*
X86583474Y-115772161D01*
X86583474Y-115772161D01*
G37*
G36*
X83909419Y-111065054D02*
X85465054Y-109509419D01*
X86172161Y-110216526D01*
X84616526Y-111772161D01*
X83909419Y-111065054D01*
X83909419Y-111065054D01*
G37*
G36*
X84627839Y-111783474D02*
X86183474Y-110227839D01*
X86890581Y-110934946D01*
X85334946Y-112490581D01*
X84627839Y-111783474D01*
X84627839Y-111783474D01*
G37*
D39*
X152226000Y-107980000D03*
X153826000Y-107980000D03*
X150576000Y-108480000D03*
X148976000Y-108480000D03*
D40*
X158276000Y-117030000D03*
X158276000Y-115430000D03*
X132801000Y-109068000D03*
X132801000Y-107468000D03*
D41*
X34550000Y-130200000D03*
X37050000Y-130200000D03*
X34550000Y-166200000D03*
X37050000Y-166200000D03*
X34550000Y-142200000D03*
X37050000Y-142200000D03*
D42*
X238600000Y-59750000D03*
X238600000Y-57850000D03*
D43*
X225150000Y-115200000D03*
X223250000Y-115200000D03*
X224550000Y-66000000D03*
X222650000Y-66000000D03*
X233150000Y-90400000D03*
X231250000Y-90400000D03*
D42*
X251948438Y-90259612D03*
X251948438Y-92159612D03*
D44*
X128800000Y-111300000D03*
X128800000Y-109900000D03*
X128800000Y-108900000D03*
X128800000Y-107500000D03*
D14*
X108800000Y-117600000D03*
X111340000Y-115060000D03*
X111340000Y-120140000D03*
X106260000Y-120140000D03*
X106260000Y-115060000D03*
D22*
X25565000Y-152315000D03*
D23*
X25565000Y-159935000D03*
D22*
X25565000Y-157395000D03*
X25565000Y-154855000D03*
D16*
X199260000Y-122400000D03*
D17*
X201800000Y-122400000D03*
D45*
X49550000Y-119400000D03*
X52450000Y-119400000D03*
X50152000Y-106842000D03*
X53052000Y-106842000D03*
D24*
X58000000Y-115150000D03*
X58000000Y-118050000D03*
X57400000Y-109850000D03*
X57400000Y-106950000D03*
X68610000Y-115150000D03*
X68610000Y-118050000D03*
X68200000Y-109850000D03*
X68200000Y-106950000D03*
X79200000Y-110850000D03*
X79200000Y-107950000D03*
D46*
X233692364Y-113603332D03*
X233692364Y-111403332D03*
X233400000Y-64300000D03*
X233400000Y-62100000D03*
X231200000Y-109500000D03*
X231200000Y-107300000D03*
X231400000Y-60100000D03*
X231400000Y-57900000D03*
X237400000Y-94100000D03*
X237400000Y-96300000D03*
X244348438Y-91759612D03*
X244348438Y-93959612D03*
X244348438Y-88759612D03*
X244348438Y-86559612D03*
X238548438Y-86559612D03*
X238548438Y-84359612D03*
D18*
X128340000Y-117540000D03*
X125800000Y-115000000D03*
X123260000Y-117540000D03*
X160026000Y-120230000D03*
X162566000Y-122770000D03*
X165106000Y-120230000D03*
X32940000Y-151760000D03*
X30400000Y-154300000D03*
X32940000Y-156840000D03*
X32940000Y-163720000D03*
X30400000Y-166260000D03*
X32940000Y-168800000D03*
X32900000Y-139720000D03*
X30360000Y-142260000D03*
X32900000Y-144800000D03*
D47*
X127726000Y-120380000D03*
X126776000Y-120380000D03*
X125826000Y-120380000D03*
X125826000Y-123080000D03*
X127726000Y-123080000D03*
D48*
X139126000Y-119680000D03*
X139126000Y-118730000D03*
X139126000Y-117780000D03*
X136426000Y-117780000D03*
X136426000Y-119680000D03*
D49*
X146250000Y-111225000D03*
X146250000Y-111875000D03*
X146250000Y-112525000D03*
X146250000Y-113175000D03*
X150550000Y-113175000D03*
X150550000Y-112525000D03*
X150550000Y-111875000D03*
X150550000Y-111225000D03*
D50*
X132506000Y-110595000D03*
X132506000Y-111245000D03*
X132506000Y-111895000D03*
X132506000Y-112545000D03*
X136906000Y-112545000D03*
X136906000Y-111895000D03*
X136906000Y-111245000D03*
X136906000Y-110595000D03*
D51*
X149576000Y-117075000D03*
X149576000Y-118345000D03*
X149576000Y-119615000D03*
X149576000Y-120885000D03*
X154976000Y-120885000D03*
X154976000Y-119615000D03*
X154976000Y-118345000D03*
X154976000Y-117075000D03*
D19*
X238600000Y-61920000D03*
D20*
X230980000Y-69540000D03*
X238600000Y-64460000D03*
X230980000Y-67000000D03*
X238600000Y-67000000D03*
X230980000Y-64460000D03*
X238600000Y-69540000D03*
X230980000Y-61920000D03*
D52*
X227600000Y-113000000D03*
X227100000Y-113000000D03*
X226600000Y-113000000D03*
X226100000Y-113000000D03*
X225600000Y-113000000D03*
X225600000Y-117400000D03*
X226100000Y-117400000D03*
X226600000Y-117400000D03*
X227100000Y-117400000D03*
X227600000Y-117400000D03*
X227400000Y-63600000D03*
X226900000Y-63600000D03*
X226400000Y-63600000D03*
X225900000Y-63600000D03*
X225400000Y-63600000D03*
X225400000Y-68000000D03*
X225900000Y-68000000D03*
X226400000Y-68000000D03*
X226900000Y-68000000D03*
X227400000Y-68000000D03*
X235748438Y-88259612D03*
X235248438Y-88259612D03*
X234748438Y-88259612D03*
X234248438Y-88259612D03*
X233748438Y-88259612D03*
X233748438Y-92659612D03*
X234248438Y-92659612D03*
X234748438Y-92659612D03*
X235248438Y-92659612D03*
X235748438Y-92659612D03*
D19*
X249348438Y-86459612D03*
D20*
X241728438Y-94079612D03*
X249348438Y-88999612D03*
X241728438Y-91539612D03*
X249348438Y-91539612D03*
X241728438Y-88999612D03*
X249348438Y-94079612D03*
X241728438Y-86459612D03*
D53*
X249820000Y-173340000D03*
X249820000Y-170800000D03*
X249820000Y-168260000D03*
X254900000Y-173340000D03*
X254900000Y-168260000D03*
D40*
X133726000Y-121480000D03*
X133726000Y-123080000D03*
D46*
X231200000Y-120700000D03*
X231200000Y-122900000D03*
D54*
X230900000Y-71300000D03*
X233100000Y-71300000D03*
D46*
X233692364Y-116403332D03*
X233692364Y-118603332D03*
X233400000Y-67100000D03*
X233400000Y-69300000D03*
D37*
X50200000Y-93450000D03*
X50200000Y-94550000D03*
X50000000Y-88950000D03*
X50000000Y-87850000D03*
D10*
G36*
X53665054Y-94290581D02*
X52109419Y-92734946D01*
X52816526Y-92027839D01*
X54372161Y-93583474D01*
X53665054Y-94290581D01*
X53665054Y-94290581D01*
G37*
G36*
X54383474Y-93572161D02*
X52827839Y-92016526D01*
X53534946Y-91309419D01*
X55090581Y-92865054D01*
X54383474Y-93572161D01*
X54383474Y-93572161D01*
G37*
D21*
X51400000Y-88908000D03*
X51400000Y-87892000D03*
X51800000Y-93292000D03*
X51800000Y-94308000D03*
D38*
X53092000Y-87800000D03*
X54108000Y-87800000D03*
D37*
X60000000Y-92850000D03*
X60000000Y-93950000D03*
X59400000Y-87950000D03*
X59400000Y-86850000D03*
D10*
G36*
X63865054Y-94690581D02*
X62309419Y-93134946D01*
X63016526Y-92427839D01*
X64572161Y-93983474D01*
X63865054Y-94690581D01*
X63865054Y-94690581D01*
G37*
G36*
X64583474Y-93972161D02*
X63027839Y-92416526D01*
X63734946Y-91709419D01*
X65290581Y-93265054D01*
X64583474Y-93972161D01*
X64583474Y-93972161D01*
G37*
G36*
X61509419Y-87865054D02*
X63065054Y-86309419D01*
X63772161Y-87016526D01*
X62216526Y-88572161D01*
X61509419Y-87865054D01*
X61509419Y-87865054D01*
G37*
G36*
X62227839Y-88583474D02*
X63783474Y-87027839D01*
X64490581Y-87734946D01*
X62934946Y-89290581D01*
X62227839Y-88583474D01*
X62227839Y-88583474D01*
G37*
D21*
X61600000Y-92892000D03*
X61600000Y-93908000D03*
X60800000Y-87908000D03*
X60800000Y-86892000D03*
D38*
X65492000Y-90400000D03*
X66508000Y-90400000D03*
D37*
X70800000Y-92850000D03*
X70800000Y-93950000D03*
X70200000Y-87890000D03*
X70200000Y-86790000D03*
D21*
X72200000Y-92892000D03*
X72200000Y-93908000D03*
X71600000Y-87908000D03*
X71600000Y-86892000D03*
D10*
G36*
X74265054Y-93890581D02*
X72709419Y-92334946D01*
X73416526Y-91627839D01*
X74972161Y-93183474D01*
X74265054Y-93890581D01*
X74265054Y-93890581D01*
G37*
G36*
X74983474Y-93172161D02*
X73427839Y-91616526D01*
X74134946Y-90909419D01*
X75690581Y-92465054D01*
X74983474Y-93172161D01*
X74983474Y-93172161D01*
G37*
D38*
X73092000Y-87400000D03*
X74108000Y-87400000D03*
D37*
X82400000Y-93450000D03*
X82400000Y-94550000D03*
X81600000Y-88550000D03*
X81600000Y-87450000D03*
D21*
X83800000Y-93492000D03*
X83800000Y-94508000D03*
D10*
G36*
X83909419Y-89065054D02*
X85465054Y-87509419D01*
X86172161Y-88216526D01*
X84616526Y-89772161D01*
X83909419Y-89065054D01*
X83909419Y-89065054D01*
G37*
G36*
X84627839Y-89783474D02*
X86183474Y-88227839D01*
X86890581Y-88934946D01*
X85334946Y-90490581D01*
X84627839Y-89783474D01*
X84627839Y-89783474D01*
G37*
G36*
X85865054Y-94490581D02*
X84309419Y-92934946D01*
X85016526Y-92227839D01*
X86572161Y-93783474D01*
X85865054Y-94490581D01*
X85865054Y-94490581D01*
G37*
G36*
X86583474Y-93772161D02*
X85027839Y-92216526D01*
X85734946Y-91509419D01*
X87290581Y-93065054D01*
X86583474Y-93772161D01*
X86583474Y-93772161D01*
G37*
D21*
X83200000Y-88508000D03*
X83200000Y-87492000D03*
D22*
X25400000Y-140260000D03*
D23*
X25400000Y-147880000D03*
D22*
X25400000Y-145340000D03*
X25400000Y-142800000D03*
D45*
X49550000Y-97400000D03*
X52450000Y-97400000D03*
X50150000Y-84800000D03*
X53050000Y-84800000D03*
D24*
X58000000Y-93150000D03*
X58000000Y-96050000D03*
X57400000Y-87850000D03*
X57400000Y-84950000D03*
X68600000Y-93150000D03*
X68600000Y-96050000D03*
X68200000Y-87850000D03*
X68200000Y-84950000D03*
X80400000Y-94100000D03*
X80400000Y-97000000D03*
X79200000Y-88850000D03*
X79200000Y-85950000D03*
D39*
X135800000Y-108200000D03*
X137400000Y-108200000D03*
D41*
X34500000Y-154400000D03*
X37000000Y-154400000D03*
D42*
X238696668Y-121050000D03*
X238696668Y-122950000D03*
D14*
X43600000Y-91200000D03*
X41060000Y-88660000D03*
X41060000Y-93740000D03*
X46140000Y-93740000D03*
X46140000Y-88660000D03*
D34*
X247400000Y-150300000D03*
X253400000Y-150300000D03*
X250400000Y-145600000D03*
D55*
X255030000Y-32655000D03*
X255030000Y-48145000D03*
D56*
X251350000Y-34685000D03*
X251350000Y-46115000D03*
D57*
X245000000Y-44845000D03*
D58*
X242460000Y-43575000D03*
X245000000Y-42305000D03*
X242460000Y-41035000D03*
X245000000Y-39765000D03*
X242460000Y-38495000D03*
X245000000Y-37225000D03*
X242460000Y-35955000D03*
D14*
X190000000Y-122400000D03*
X192540000Y-119860000D03*
X192540000Y-124940000D03*
X187460000Y-124940000D03*
X187460000Y-119860000D03*
X210400000Y-122400000D03*
X207860000Y-119860000D03*
X212940000Y-119860000D03*
X212940000Y-124940000D03*
X207860000Y-124940000D03*
D59*
X59150000Y-112400000D03*
X57650000Y-112400000D03*
X59150000Y-90400000D03*
X57650000Y-90400000D03*
D60*
X51917000Y-112047000D03*
X50967000Y-112047000D03*
X50017000Y-112047000D03*
X50017000Y-114247000D03*
X51917000Y-114247000D03*
X51950000Y-90100000D03*
X51000000Y-90100000D03*
X50050000Y-90100000D03*
X50050000Y-92300000D03*
X51950000Y-92300000D03*
D61*
X80400000Y-112850000D03*
X80400000Y-114350000D03*
D62*
X86850000Y-113000000D03*
X88350000Y-113000000D03*
D61*
X123526000Y-120480000D03*
X123526000Y-121980000D03*
D62*
X141750000Y-123200000D03*
X140250000Y-123200000D03*
D61*
X80400000Y-90850000D03*
X80400000Y-92350000D03*
D62*
X86850000Y-91000000D03*
X88350000Y-91000000D03*
D63*
X126600000Y-110950000D03*
X126600000Y-107450000D03*
D64*
X145526000Y-120730000D03*
X142026000Y-120730000D03*
D65*
X79200000Y-114150000D03*
X79200000Y-112650000D03*
D66*
X130250000Y-115192000D03*
X130250000Y-117092000D03*
D67*
X157976000Y-123980000D03*
X156076000Y-123980000D03*
D65*
X79200000Y-92150000D03*
X79200000Y-90650000D03*
D60*
X61950000Y-111300000D03*
X61000000Y-111300000D03*
X60050000Y-111300000D03*
X60050000Y-113500000D03*
X61950000Y-113500000D03*
X61000000Y-113500000D03*
X72550000Y-111300000D03*
X71600000Y-111300000D03*
X70650000Y-111300000D03*
X70650000Y-113500000D03*
X72550000Y-113500000D03*
X83750000Y-111900000D03*
X82800000Y-111900000D03*
X81850000Y-111900000D03*
X81850000Y-114100000D03*
X83750000Y-114100000D03*
X82800000Y-114100000D03*
X61950000Y-89300000D03*
X61000000Y-89300000D03*
X60050000Y-89300000D03*
X60050000Y-91500000D03*
X61950000Y-91500000D03*
X61000000Y-91500000D03*
X72550000Y-89300000D03*
X71600000Y-89300000D03*
X70650000Y-89300000D03*
X70650000Y-91500000D03*
X72550000Y-91500000D03*
X83750000Y-89900000D03*
X82800000Y-89900000D03*
X81850000Y-89900000D03*
X81850000Y-92100000D03*
X83750000Y-92100000D03*
X82800000Y-92100000D03*
D66*
X108800000Y-114050000D03*
X108800000Y-115950000D03*
D37*
X93600000Y-115450000D03*
X93600000Y-116550000D03*
X92800000Y-110550000D03*
X92800000Y-109450000D03*
D21*
X95200000Y-115492000D03*
X95200000Y-116508000D03*
X94400000Y-110508000D03*
X94400000Y-109492000D03*
D10*
G36*
X97265054Y-116490581D02*
X95709419Y-114934946D01*
X96416526Y-114227839D01*
X97972161Y-115783474D01*
X97265054Y-116490581D01*
X97265054Y-116490581D01*
G37*
G36*
X97983474Y-115772161D02*
X96427839Y-114216526D01*
X97134946Y-113509419D01*
X98690581Y-115065054D01*
X97983474Y-115772161D01*
X97983474Y-115772161D01*
G37*
D38*
X96200000Y-110000000D03*
X97216000Y-110000000D03*
D37*
X93400000Y-93450000D03*
X93400000Y-94550000D03*
X92800000Y-88550000D03*
X92800000Y-87450000D03*
D21*
X95200000Y-93492000D03*
X95200000Y-94508000D03*
X94400000Y-88508000D03*
X94400000Y-87492000D03*
D10*
G36*
X97265054Y-94490581D02*
X95709419Y-92934946D01*
X96416526Y-92227839D01*
X97972161Y-93783474D01*
X97265054Y-94490581D01*
X97265054Y-94490581D01*
G37*
G36*
X97983474Y-93772161D02*
X96427839Y-92216526D01*
X97134946Y-91509419D01*
X98690581Y-93065054D01*
X97983474Y-93772161D01*
X97983474Y-93772161D01*
G37*
D38*
X96184000Y-88000000D03*
X97200000Y-88000000D03*
D24*
X91200000Y-115550000D03*
X91200000Y-118450000D03*
X90800000Y-110450000D03*
X90800000Y-107550000D03*
X91200000Y-93550000D03*
X91200000Y-96450000D03*
X90800000Y-88450000D03*
X90800000Y-85550000D03*
D60*
X95350000Y-111900000D03*
X94400000Y-111900000D03*
X93450000Y-111900000D03*
X93450000Y-114100000D03*
X95350000Y-114100000D03*
X95350000Y-89900000D03*
X94400000Y-89900000D03*
X93450000Y-89900000D03*
X93450000Y-92100000D03*
X95350000Y-92100000D03*
D61*
X123700000Y-98300000D03*
X123700000Y-99800000D03*
D40*
X133900000Y-99500000D03*
X133900000Y-101100000D03*
D39*
X150799999Y-86500000D03*
X149199999Y-86500000D03*
X152400000Y-86000000D03*
X154000000Y-86000000D03*
D40*
X158476000Y-95030001D03*
X158476000Y-93430001D03*
D62*
X141750000Y-101300000D03*
X140250000Y-101300000D03*
D39*
X136000000Y-86300000D03*
X137600000Y-86300000D03*
D40*
X133000000Y-87000000D03*
X133000000Y-85400000D03*
D44*
X129000000Y-89200000D03*
X129000000Y-87800000D03*
X129000000Y-86900000D03*
X129000000Y-85500000D03*
D63*
X126800000Y-88950000D03*
X126800000Y-85450000D03*
D64*
X145750000Y-98800000D03*
X142250000Y-98800000D03*
D14*
X108800000Y-95800000D03*
X111340000Y-93260000D03*
X111340000Y-98340000D03*
X106260000Y-98340000D03*
X106260000Y-93260000D03*
D66*
X108800000Y-92099999D03*
X108800000Y-93999999D03*
X130750000Y-93300000D03*
X130750000Y-95200000D03*
D67*
X158150000Y-102000000D03*
X156250000Y-102000000D03*
D18*
X160260000Y-98260000D03*
X162800000Y-100800000D03*
X165340000Y-98260000D03*
D47*
X127950000Y-98450000D03*
X127000000Y-98450000D03*
X126050000Y-98450000D03*
X126050000Y-101150000D03*
X127950000Y-101150000D03*
D48*
X139350000Y-97750000D03*
X139350000Y-96800000D03*
X139350000Y-95850000D03*
X136650000Y-95850000D03*
X136650000Y-97750000D03*
D49*
X146450000Y-89225000D03*
X146450000Y-89875000D03*
X146450000Y-90525000D03*
X146450000Y-91175000D03*
X150750000Y-91175000D03*
X150750000Y-90525000D03*
X150750000Y-89875000D03*
X150750000Y-89225000D03*
D50*
X132800000Y-88625000D03*
X132800000Y-89275000D03*
X132800000Y-89925000D03*
X132800000Y-90575000D03*
X137200000Y-90575000D03*
X137200000Y-89925000D03*
X137200000Y-89275000D03*
X137200000Y-88625000D03*
D51*
X149700000Y-95095000D03*
X149700000Y-96365000D03*
X149700000Y-97635000D03*
X149700000Y-98905000D03*
X155100000Y-98905000D03*
X155100000Y-97635000D03*
X155100000Y-96365000D03*
X155100000Y-95095000D03*
D67*
X35250000Y-151800000D03*
X37150000Y-151800000D03*
X35450000Y-127600000D03*
X37350000Y-127600000D03*
X35250000Y-163800000D03*
X37150000Y-163800000D03*
X35250000Y-139800000D03*
X37150000Y-139800000D03*
D68*
X208800000Y-91600000D03*
X211800000Y-91600000D03*
D15*
X222000000Y-86100000D03*
X222000000Y-89100000D03*
D14*
X190000000Y-107800000D03*
X192540000Y-105260000D03*
X192540000Y-110340000D03*
X187460000Y-110340000D03*
X187460000Y-105260000D03*
X210400000Y-107800000D03*
X212940000Y-105260000D03*
X212940000Y-110340000D03*
X207860000Y-110340000D03*
X207860000Y-105260000D03*
D16*
X199400000Y-107800000D03*
D17*
X201940000Y-107800000D03*
D18*
X245460000Y-100400000D03*
X248000000Y-102940000D03*
X250540000Y-100400000D03*
D69*
X214300000Y-86355000D03*
X214300000Y-87625000D03*
X214300000Y-88895000D03*
X214300000Y-90165000D03*
X214300000Y-91435000D03*
X214300000Y-92705000D03*
X214300000Y-93975000D03*
X214300000Y-95245000D03*
X219700000Y-95245000D03*
X219700000Y-93975000D03*
X219700000Y-92705000D03*
X219700000Y-91435000D03*
X219700000Y-90165000D03*
X219700000Y-88895000D03*
X219700000Y-87625000D03*
X219700000Y-86355000D03*
X245700000Y-108155000D03*
X245700000Y-109425000D03*
X245700000Y-110695000D03*
X245700000Y-111965000D03*
X245700000Y-113235000D03*
X245700000Y-114505000D03*
X245700000Y-115775000D03*
X245700000Y-117045000D03*
X251100000Y-117045000D03*
X251100000Y-115775000D03*
X251100000Y-114505000D03*
X251100000Y-113235000D03*
X251100000Y-111965000D03*
X251100000Y-110695000D03*
X251100000Y-109425000D03*
X251100000Y-108155000D03*
D37*
X50200000Y-68250000D03*
X50200000Y-69350000D03*
X50000000Y-63750000D03*
X50000000Y-62650000D03*
D21*
X51800000Y-68092000D03*
X51800000Y-69108000D03*
D38*
X53092000Y-62600000D03*
X54108000Y-62600000D03*
D10*
G36*
X53665054Y-69090581D02*
X52109419Y-67534946D01*
X52816526Y-66827839D01*
X54372161Y-68383474D01*
X53665054Y-69090581D01*
X53665054Y-69090581D01*
G37*
G36*
X54383474Y-68372161D02*
X52827839Y-66816526D01*
X53534946Y-66109419D01*
X55090581Y-67665054D01*
X54383474Y-68372161D01*
X54383474Y-68372161D01*
G37*
D21*
X51600000Y-63708000D03*
X51600000Y-62692000D03*
D37*
X59800000Y-67650000D03*
X59800000Y-68750000D03*
X59200000Y-62750000D03*
X59200000Y-61650000D03*
D10*
G36*
X63665054Y-69290581D02*
X62109419Y-67734946D01*
X62816526Y-67027839D01*
X64372161Y-68583474D01*
X63665054Y-69290581D01*
X63665054Y-69290581D01*
G37*
G36*
X64383474Y-68572161D02*
X62827839Y-67016526D01*
X63534946Y-66309419D01*
X65090581Y-67865054D01*
X64383474Y-68572161D01*
X64383474Y-68572161D01*
G37*
D21*
X60800000Y-62708000D03*
X60800000Y-61692000D03*
X61400000Y-67692000D03*
X61400000Y-68708000D03*
D10*
G36*
X61509419Y-62665054D02*
X63065054Y-61109419D01*
X63772161Y-61816526D01*
X62216526Y-63372161D01*
X61509419Y-62665054D01*
X61509419Y-62665054D01*
G37*
G36*
X62227839Y-63383474D02*
X63783474Y-61827839D01*
X64490581Y-62534946D01*
X62934946Y-64090581D01*
X62227839Y-63383474D01*
X62227839Y-63383474D01*
G37*
D38*
X65492000Y-65200000D03*
X66508000Y-65200000D03*
D37*
X70800000Y-67650000D03*
X70800000Y-68750000D03*
X70000000Y-62750000D03*
X70000000Y-61650000D03*
D21*
X72200000Y-67692000D03*
X72200000Y-68708000D03*
D38*
X73092000Y-62200000D03*
X74108000Y-62200000D03*
D61*
X80400000Y-65650000D03*
X80400000Y-67150000D03*
D10*
G36*
X74265054Y-68690581D02*
X72709419Y-67134946D01*
X73416526Y-66427839D01*
X74972161Y-67983474D01*
X74265054Y-68690581D01*
X74265054Y-68690581D01*
G37*
G36*
X74983474Y-67972161D02*
X73427839Y-66416526D01*
X74134946Y-65709419D01*
X75690581Y-67265054D01*
X74983474Y-67972161D01*
X74983474Y-67972161D01*
G37*
D21*
X71600000Y-62708000D03*
X71600000Y-61692000D03*
D37*
X82442000Y-68292000D03*
X82442000Y-69392000D03*
X81600000Y-63350000D03*
X81600000Y-62250000D03*
D62*
X86850000Y-65800000D03*
X88350000Y-65800000D03*
D10*
G36*
X85905844Y-69249791D02*
X84350209Y-67694156D01*
X85057316Y-66987049D01*
X86612951Y-68542684D01*
X85905844Y-69249791D01*
X85905844Y-69249791D01*
G37*
G36*
X86624264Y-68531371D02*
X85068629Y-66975736D01*
X85775736Y-66268629D01*
X87331371Y-67824264D01*
X86624264Y-68531371D01*
X86624264Y-68531371D01*
G37*
D21*
X83200000Y-63308000D03*
X83200000Y-62292000D03*
X84000000Y-68292000D03*
X84000000Y-69308000D03*
D10*
G36*
X83909419Y-63865054D02*
X85465054Y-62309419D01*
X86172161Y-63016526D01*
X84616526Y-64572161D01*
X83909419Y-63865054D01*
X83909419Y-63865054D01*
G37*
G36*
X84627839Y-64583474D02*
X86183474Y-63027839D01*
X86890581Y-63734946D01*
X85334946Y-65290581D01*
X84627839Y-64583474D01*
X84627839Y-64583474D01*
G37*
D37*
X93200000Y-68250000D03*
X93200000Y-69350000D03*
X92800000Y-63350000D03*
X92800000Y-62250000D03*
D10*
G36*
X97265054Y-69290581D02*
X95709419Y-67734946D01*
X96416526Y-67027839D01*
X97972161Y-68583474D01*
X97265054Y-69290581D01*
X97265054Y-69290581D01*
G37*
G36*
X97983474Y-68572161D02*
X96427839Y-67016526D01*
X97134946Y-66309419D01*
X98690581Y-67865054D01*
X97983474Y-68572161D01*
X97983474Y-68572161D01*
G37*
D21*
X94400000Y-63308000D03*
X94400000Y-62292000D03*
X95000000Y-68292000D03*
X95000000Y-69308000D03*
D38*
X96292000Y-62800000D03*
X97308000Y-62800000D03*
D14*
X43600000Y-66000000D03*
X41060000Y-63460000D03*
X41060000Y-68540000D03*
X46140000Y-68540000D03*
X46140000Y-63460000D03*
D45*
X49550000Y-72200000D03*
X52450000Y-72200000D03*
X50150000Y-60000000D03*
X53050000Y-60000000D03*
D24*
X58000000Y-67950000D03*
X58000000Y-70850000D03*
X57400000Y-62650000D03*
X57400000Y-59750000D03*
X68600000Y-67950000D03*
X68600000Y-70850000D03*
X68200000Y-62650000D03*
X68200000Y-59750000D03*
X80400000Y-68950000D03*
X80400000Y-71850000D03*
X79200000Y-63650000D03*
X79200000Y-60750000D03*
X91200000Y-68350000D03*
X91200000Y-71250000D03*
X90800000Y-63250000D03*
X90800000Y-60350000D03*
D66*
X108800000Y-66850000D03*
X108800000Y-68750000D03*
D59*
X59150000Y-65200000D03*
X57650000Y-65200000D03*
D65*
X79200000Y-66950000D03*
X79200000Y-65450000D03*
D60*
X51950000Y-64900000D03*
X51000000Y-64900000D03*
X50050000Y-64900000D03*
X50050000Y-67100000D03*
X51950000Y-67100000D03*
X61950000Y-64100000D03*
X61000000Y-64100000D03*
X60050000Y-64100000D03*
X60050000Y-66300000D03*
X61950000Y-66300000D03*
X61000000Y-66300000D03*
X72550000Y-64100000D03*
X71600000Y-64100000D03*
X70650000Y-64100000D03*
X70650000Y-66300000D03*
X72550000Y-66300000D03*
X83750000Y-64700000D03*
X82800000Y-64700000D03*
X81850000Y-64700000D03*
X81850000Y-66900000D03*
X83750000Y-66900000D03*
X82800000Y-66900000D03*
X95350000Y-64700000D03*
X94400000Y-64700000D03*
X93450000Y-64700000D03*
X93450000Y-66900000D03*
X95350000Y-66900000D03*
D37*
X50200000Y-46050000D03*
X50200000Y-47150000D03*
X50000000Y-41550000D03*
X50000000Y-40450000D03*
D21*
X51800000Y-45984000D03*
X51800000Y-47000000D03*
X51600000Y-41508000D03*
X51600000Y-40492000D03*
D10*
G36*
X53665054Y-46890581D02*
X52109419Y-45334946D01*
X52816526Y-44627839D01*
X54372161Y-46183474D01*
X53665054Y-46890581D01*
X53665054Y-46890581D01*
G37*
G36*
X54383474Y-46172161D02*
X52827839Y-44616526D01*
X53534946Y-43909419D01*
X55090581Y-45465054D01*
X54383474Y-46172161D01*
X54383474Y-46172161D01*
G37*
D38*
X53092000Y-40600000D03*
X54108000Y-40600000D03*
D37*
X59800000Y-45450000D03*
X59800000Y-46550000D03*
X59200000Y-40550000D03*
X59200000Y-39450000D03*
D10*
G36*
X63665054Y-47090581D02*
X62109419Y-45534946D01*
X62816526Y-44827839D01*
X64372161Y-46383474D01*
X63665054Y-47090581D01*
X63665054Y-47090581D01*
G37*
G36*
X64383474Y-46372161D02*
X62827839Y-44816526D01*
X63534946Y-44109419D01*
X65090581Y-45665054D01*
X64383474Y-46372161D01*
X64383474Y-46372161D01*
G37*
D21*
X60800000Y-40508000D03*
X60800000Y-39492000D03*
X61400000Y-45492000D03*
X61400000Y-46508000D03*
D10*
G36*
X61509419Y-40465054D02*
X63065054Y-38909419D01*
X63772161Y-39616526D01*
X62216526Y-41172161D01*
X61509419Y-40465054D01*
X61509419Y-40465054D01*
G37*
G36*
X62227839Y-41183474D02*
X63783474Y-39627839D01*
X64490581Y-40334946D01*
X62934946Y-41890581D01*
X62227839Y-41183474D01*
X62227839Y-41183474D01*
G37*
D38*
X65562000Y-43030000D03*
X66578000Y-43030000D03*
D37*
X70800000Y-45450000D03*
X70800000Y-46550000D03*
X70000000Y-40550000D03*
X70000000Y-39450000D03*
D21*
X72400000Y-45492000D03*
X72400000Y-46508000D03*
D38*
X73092000Y-40000000D03*
X74108000Y-40000000D03*
D61*
X80400000Y-43450000D03*
X80400000Y-44950000D03*
D10*
G36*
X74305844Y-46449791D02*
X72750209Y-44894156D01*
X73457316Y-44187049D01*
X75012951Y-45742684D01*
X74305844Y-46449791D01*
X74305844Y-46449791D01*
G37*
G36*
X75024264Y-45731371D02*
X73468629Y-44175736D01*
X74175736Y-43468629D01*
X75731371Y-45024264D01*
X75024264Y-45731371D01*
X75024264Y-45731371D01*
G37*
D21*
X71600000Y-40508000D03*
X71600000Y-39492000D03*
D37*
X82200000Y-46050000D03*
X82200000Y-47150000D03*
X81600000Y-41100000D03*
X81600000Y-40000000D03*
D62*
X86850000Y-43600000D03*
X88350000Y-43600000D03*
D21*
X83800000Y-46092000D03*
X83800000Y-47108000D03*
X83200000Y-41108000D03*
X83200000Y-40092000D03*
D10*
G36*
X85865054Y-47090581D02*
X84309419Y-45534946D01*
X85016526Y-44827839D01*
X86572161Y-46383474D01*
X85865054Y-47090581D01*
X85865054Y-47090581D01*
G37*
G36*
X86583474Y-46372161D02*
X85027839Y-44816526D01*
X85734946Y-44109419D01*
X87290581Y-45665054D01*
X86583474Y-46372161D01*
X86583474Y-46372161D01*
G37*
G36*
X83909419Y-41665054D02*
X85465054Y-40109419D01*
X86172161Y-40816526D01*
X84616526Y-42372161D01*
X83909419Y-41665054D01*
X83909419Y-41665054D01*
G37*
G36*
X84627839Y-42383474D02*
X86183474Y-40827839D01*
X86890581Y-41534946D01*
X85334946Y-43090581D01*
X84627839Y-42383474D01*
X84627839Y-42383474D01*
G37*
D37*
X93400000Y-46050000D03*
X93400000Y-47150000D03*
X92800000Y-41150000D03*
X92800000Y-40050000D03*
D21*
X95200000Y-46092000D03*
X95200000Y-47108000D03*
X94400000Y-41108000D03*
X94400000Y-40092000D03*
D10*
G36*
X97305844Y-47049791D02*
X95750209Y-45494156D01*
X96457316Y-44787049D01*
X98012951Y-46342684D01*
X97305844Y-47049791D01*
X97305844Y-47049791D01*
G37*
G36*
X98024264Y-46331371D02*
X96468629Y-44775736D01*
X97175736Y-44068629D01*
X98731371Y-45624264D01*
X98024264Y-46331371D01*
X98024264Y-46331371D01*
G37*
D38*
X96184000Y-40600000D03*
X97200000Y-40600000D03*
D14*
X43600000Y-43800000D03*
X41060000Y-41260000D03*
X41060000Y-46340000D03*
X46140000Y-46340000D03*
X46140000Y-41260000D03*
D45*
X49550000Y-50000000D03*
X52450000Y-50000000D03*
X50100000Y-37600000D03*
X53000000Y-37600000D03*
D24*
X58000000Y-45750000D03*
X58000000Y-48650000D03*
X57400000Y-40450000D03*
X57400000Y-37550000D03*
X68600000Y-45750000D03*
X68600000Y-48650000D03*
X68200000Y-40450000D03*
X68200000Y-37550000D03*
X80400000Y-46750000D03*
X80400000Y-49650000D03*
X79200000Y-41450000D03*
X79200000Y-38550000D03*
X91200000Y-46150000D03*
X91200000Y-49050000D03*
X90800000Y-41100000D03*
X90800000Y-38200000D03*
D66*
X108800000Y-44850000D03*
X108800000Y-46750000D03*
D59*
X59150000Y-43000000D03*
X57650000Y-43000000D03*
D65*
X79200000Y-44750000D03*
X79200000Y-43250000D03*
D60*
X51950000Y-42700000D03*
X51000000Y-42700000D03*
X50050000Y-42700000D03*
X50050000Y-44900000D03*
X51950000Y-44900000D03*
X61900000Y-42000000D03*
X60950000Y-42000000D03*
X60000000Y-42000000D03*
X60000000Y-44200000D03*
X61900000Y-44200000D03*
X60950000Y-44200000D03*
X72550000Y-41900000D03*
X71600000Y-41900000D03*
X70650000Y-41900000D03*
X70650000Y-44100000D03*
X72550000Y-44100000D03*
X83750000Y-42500000D03*
X82800000Y-42500000D03*
X81850000Y-42500000D03*
X81850000Y-44700000D03*
X83750000Y-44700000D03*
X82800000Y-44700000D03*
X95350000Y-42500000D03*
X94400000Y-42500000D03*
X93450000Y-42500000D03*
X93450000Y-44700000D03*
X95350000Y-44700000D03*
D61*
X123800000Y-73050000D03*
X123800000Y-74550000D03*
D40*
X133800000Y-74400000D03*
X133800000Y-76000000D03*
D39*
X150800000Y-61400000D03*
X149200000Y-61400000D03*
X152600000Y-60800000D03*
X154200000Y-60800000D03*
D40*
X158400000Y-69799999D03*
X158400000Y-68199999D03*
D62*
X141700000Y-76200000D03*
X140200000Y-76200000D03*
D40*
X133000000Y-61800001D03*
X133000000Y-60200001D03*
D39*
X136000000Y-61200000D03*
X137600000Y-61200000D03*
D44*
X129000000Y-63900000D03*
X129000000Y-62500000D03*
X129000000Y-61600000D03*
X129000000Y-60200000D03*
D63*
X126800000Y-63750000D03*
X126800000Y-60250000D03*
D64*
X145750000Y-73600000D03*
X142250000Y-73600000D03*
D66*
X130750000Y-67850000D03*
X130750000Y-69750000D03*
D67*
X158150000Y-76800000D03*
X156250000Y-76800000D03*
D18*
X128740000Y-70540000D03*
X126200000Y-68000000D03*
X123660000Y-70540000D03*
X160260000Y-73060000D03*
X162800000Y-75600000D03*
X165340000Y-73060000D03*
D47*
X127950000Y-73250000D03*
X127000000Y-73250000D03*
X126050000Y-73250000D03*
X126050000Y-75950000D03*
X127950000Y-75950000D03*
D48*
X139550000Y-72550000D03*
X139550000Y-71600000D03*
X139550000Y-70650000D03*
X136850000Y-70650000D03*
X136850000Y-72550000D03*
D49*
X146450000Y-64025000D03*
X146450000Y-64675000D03*
X146450000Y-65325000D03*
X146450000Y-65975000D03*
X150750000Y-65975000D03*
X150750000Y-65325000D03*
X150750000Y-64675000D03*
X150750000Y-64025000D03*
D50*
X132800000Y-63425000D03*
X132800000Y-64075000D03*
X132800000Y-64725000D03*
X132800000Y-65375000D03*
X137200000Y-65375000D03*
X137200000Y-64725000D03*
X137200000Y-64075000D03*
X137200000Y-63425000D03*
D51*
X149700000Y-69895000D03*
X149700000Y-71165000D03*
X149700000Y-72435000D03*
X149700000Y-73705000D03*
X155100000Y-73705000D03*
X155100000Y-72435000D03*
X155100000Y-71165000D03*
X155100000Y-69895000D03*
D61*
X124126000Y-50880000D03*
X124126000Y-52380000D03*
D40*
X134200000Y-52000000D03*
X134200000Y-53600000D03*
D39*
X151200000Y-39200000D03*
X149600000Y-39200000D03*
X153000000Y-38800000D03*
X154600000Y-38800000D03*
D40*
X158800000Y-47600000D03*
X158800000Y-46000000D03*
D62*
X142150000Y-54000000D03*
X140650000Y-54000000D03*
D40*
X133400000Y-39500000D03*
X133400000Y-37900000D03*
D39*
X136400000Y-39000000D03*
X138000000Y-39000000D03*
D44*
X129400000Y-41900000D03*
X129400000Y-40500000D03*
X129400000Y-39500000D03*
X129400000Y-38100000D03*
D63*
X127200000Y-41350000D03*
X127200000Y-37850000D03*
D64*
X146150000Y-51400000D03*
X142650000Y-51400000D03*
D66*
X131200000Y-45650000D03*
X131200000Y-47550000D03*
D67*
X158550000Y-54600000D03*
X156650000Y-54600000D03*
D18*
X129140000Y-48400000D03*
X126600000Y-45860000D03*
X124060000Y-48400000D03*
X160600000Y-50860000D03*
X163140000Y-53400000D03*
X165680000Y-50860000D03*
D47*
X128350000Y-51050000D03*
X127400000Y-51050000D03*
X126450000Y-51050000D03*
X126450000Y-53750000D03*
X128350000Y-53750000D03*
D48*
X139750000Y-50350000D03*
X139750000Y-49400000D03*
X139750000Y-48450000D03*
X137050000Y-48450000D03*
X137050000Y-50350000D03*
D49*
X146850000Y-41825000D03*
X146850000Y-42475000D03*
X146850000Y-43125000D03*
X146850000Y-43775000D03*
X151150000Y-43775000D03*
X151150000Y-43125000D03*
X151150000Y-42475000D03*
X151150000Y-41825000D03*
D50*
X133200000Y-41225000D03*
X133200000Y-41875000D03*
X133200000Y-42525000D03*
X133200000Y-43175000D03*
X137600000Y-43175000D03*
X137600000Y-42525000D03*
X137600000Y-41875000D03*
X137600000Y-41225000D03*
D51*
X150100000Y-47695000D03*
X150100000Y-48965000D03*
X150100000Y-50235000D03*
X150100000Y-51505000D03*
X155500000Y-51505000D03*
X155500000Y-50235000D03*
X155500000Y-48965000D03*
X155500000Y-47695000D03*
D14*
X189860000Y-73040000D03*
X192400000Y-70500000D03*
X192400000Y-75580000D03*
X187320000Y-75580000D03*
X187320000Y-70500000D03*
X189860000Y-58460000D03*
X192400000Y-55920000D03*
X192400000Y-61000000D03*
X187320000Y-61000000D03*
X187320000Y-55920000D03*
X210140000Y-58540000D03*
X212680000Y-56000000D03*
X212680000Y-61080000D03*
X207600000Y-61080000D03*
X207600000Y-56000000D03*
D16*
X199200000Y-73100000D03*
D17*
X201740000Y-73100000D03*
D16*
X199200000Y-58400000D03*
D17*
X201740000Y-58400000D03*
D67*
X226750000Y-119200000D03*
X224850000Y-119200000D03*
D66*
X229000000Y-110350000D03*
X229000000Y-108450000D03*
D67*
X225950000Y-69800000D03*
X224050000Y-69800000D03*
D66*
X228900000Y-61850000D03*
X228900000Y-59950000D03*
D43*
X219800000Y-83800000D03*
X221700000Y-83800000D03*
X254750000Y-58600000D03*
X252850000Y-58600000D03*
D16*
X267600000Y-60200000D03*
D17*
X267600000Y-62740000D03*
D16*
X232000000Y-104600000D03*
D17*
X234540000Y-104600000D03*
X237080000Y-104600000D03*
D16*
X232060000Y-76000000D03*
D17*
X234600000Y-76000000D03*
X237140000Y-76000000D03*
D69*
X249500000Y-60590000D03*
X249500000Y-61860000D03*
X249500000Y-63130000D03*
X249500000Y-64400000D03*
X249500000Y-65670000D03*
X249500000Y-66940000D03*
X249500000Y-68210000D03*
X254900000Y-68210000D03*
X254900000Y-66940000D03*
X254900000Y-65670000D03*
X254900000Y-64400000D03*
X254900000Y-63130000D03*
X254900000Y-61860000D03*
X254900000Y-60590000D03*
D43*
X251150000Y-106400000D03*
X249250000Y-106400000D03*
D10*
G36*
X252518719Y-49514555D02*
X253685445Y-50681281D01*
X252695495Y-51671231D01*
X251528769Y-50504505D01*
X252518719Y-49514555D01*
X252518719Y-49514555D01*
G37*
G36*
X251104505Y-50928769D02*
X252271231Y-52095495D01*
X251281281Y-53085445D01*
X250114555Y-51918719D01*
X251104505Y-50928769D01*
X251104505Y-50928769D01*
G37*
G36*
X253792552Y-30225826D02*
X252625826Y-31392552D01*
X251635876Y-30402602D01*
X252802602Y-29235876D01*
X253792552Y-30225826D01*
X253792552Y-30225826D01*
G37*
G36*
X252378338Y-28811612D02*
X251211612Y-29978338D01*
X250221662Y-28988388D01*
X251388388Y-27821662D01*
X252378338Y-28811612D01*
X252378338Y-28811612D01*
G37*
D70*
X85660000Y-132800000D03*
D71*
X88200000Y-132800000D03*
D70*
X72266644Y-132877632D03*
D71*
X69726644Y-132877632D03*
D70*
X51900000Y-132900000D03*
D71*
X54440000Y-132900000D03*
D72*
X91600000Y-132800000D03*
X91600000Y-134800000D03*
X75600000Y-132900000D03*
X75600000Y-134900000D03*
X57700000Y-132900000D03*
X57700000Y-134900000D03*
D13*
X87000000Y-127600000D03*
X71000000Y-127600000D03*
X169800000Y-124400000D03*
X46600000Y-78200000D03*
X189500000Y-90000000D03*
X109000000Y-83000000D03*
X238600000Y-53400000D03*
X236800000Y-141800000D03*
X53200000Y-127600000D03*
D12*
X41200000Y-178200000D03*
X67000000Y-144600000D03*
D18*
X203000000Y-98540000D03*
X200460000Y-96000000D03*
X197920000Y-98540000D03*
X203000000Y-84290000D03*
X200460000Y-81750000D03*
X197920000Y-84290000D03*
D33*
X232000000Y-96500000D03*
X232250000Y-83750000D03*
X111000000Y-140250000D03*
D73*
X131050000Y-113750000D03*
X129950000Y-113750000D03*
X131300000Y-91750000D03*
X130200000Y-91750000D03*
X131300000Y-66400000D03*
X130200000Y-66400000D03*
X131750000Y-44400000D03*
X130650000Y-44400000D03*
D33*
X133750000Y-116000000D03*
X134000000Y-94000000D03*
X134000000Y-68800000D03*
X134500000Y-46550000D03*
M02*
