M48
INCH,TZ
T1C0.015
T2C0.020
T3C0.028
T4C0.031
T5C0.035
T6C0.035
T7C0.039
T8C0.040
T9C0.043
T10C0.043
T11C0.047
T12C0.051
T13C0.053
T14C0.059
T15C0.063
%
G90
G05
T1
X17668Y-16961
X17668Y-17512
X17668Y-25701
X17668Y-26252
X17668Y-35622
X17668Y-36173
X17668Y-44283
X17668Y-44835
X18061Y-16961
X18061Y-17512
X18061Y-25701
X18061Y-26252
X18061Y-35622
X18061Y-36173
X18061Y-44283
X18061Y-44835
X18376Y-17512
X18376Y-26252
X18376Y-36173
X18376Y-44835
X18455Y-16961
X18455Y-25701
X18455Y-35622
X18455Y-44283
X18613Y-17748
X18613Y-26488
X18613Y-36409
X18613Y-45071
X18888Y-17236
X18888Y-25976
X18888Y-35898
X18888Y-44559
X18967Y-17945
X18967Y-26685
X18967Y-36606
X18967Y-45268
X19203Y-17394
X19203Y-26134
X19203Y-36055
X19203Y-44717
X19252Y-45268
X19291Y-17945
X19291Y-26685
X19291Y-36575
X19676Y-15591
X19676Y-17236
X19676Y-24291
X19676Y-25976
X19676Y-34165
X19676Y-35898
X19676Y-42827
X19676Y-44559
X19764Y-18929
X19764Y-27677
X19764Y-37638
X19764Y-46252
X19991Y-34165
X19991Y-42827
X20000Y-15504
X20030Y-17630
X20030Y-18929
X20030Y-26370
X20030Y-27669
X20030Y-36291
X20030Y-37591
X20030Y-44953
X20030Y-46252
X20039Y-24252
X20306Y-15504
X20306Y-24244
X20306Y-34165
X20306Y-42827
X20345Y-18929
X20345Y-27669
X20345Y-37591
X20345Y-46252
X20463Y-17236
X20463Y-25976
X20463Y-35898
X20463Y-44559
X20551Y-15504
X20551Y-24244
X20620Y-34165
X20620Y-42827
X20699Y-18929
X20699Y-27669
X20699Y-37591
X20699Y-46252
X20817Y-17079
X20817Y-25819
X20817Y-35740
X20817Y-44402
X20975Y-16528
X20975Y-18457
X20975Y-25268
X20975Y-27197
X20975Y-35189
X20975Y-37118
X20975Y-43850
X20975Y-45780
X21014Y-18772
X21014Y-27512
X21014Y-37433
X21014Y-46094
X21211Y-17079
X21211Y-25819
X21211Y-35740
X21211Y-44402
X21329Y-15268
X21329Y-16528
X21329Y-24008
X21329Y-25268
X21329Y-33929
X21329Y-35189
X21329Y-42591
X21329Y-43850
X21565Y-17118
X21565Y-17394
X21565Y-25858
X21565Y-26134
X21565Y-35780
X21565Y-36055
X21565Y-44441
X21565Y-44717
X21683Y-16528
X21683Y-25268
X21683Y-35189
X21683Y-43850
X21959Y-16646
X21959Y-17236
X21959Y-25386
X21959Y-25976
X21959Y-35307
X21959Y-35898
X21959Y-43969
X21959Y-44559
X22353Y-16646
X22353Y-17236
X22353Y-25386
X22353Y-25976
X22353Y-35307
X22353Y-35898
X22353Y-43969
X22353Y-44559
X22746Y-16567
X22746Y-17354
X22746Y-25307
X22746Y-26094
X22746Y-35228
X22746Y-36016
X22746Y-43890
X22746Y-44677
X23061Y-16567
X23061Y-25307
X23061Y-35228
X23061Y-43890
X23140Y-17354
X23140Y-26094
X23140Y-36016
X23140Y-44677
X23412Y-16341
X23412Y-25081
X23412Y-35002
X23412Y-43664
X23416Y-15071
X23416Y-23811
X23416Y-33732
X23416Y-42394
X23612Y-16941
X23612Y-25681
X23612Y-35602
X23612Y-44264
X24459Y-16941
X24459Y-25681
X24459Y-35602
X24459Y-44264
X24715Y-16685
X24715Y-17197
X24715Y-25425
X24715Y-25937
X24715Y-35346
X24715Y-35858
X24715Y-44008
X24715Y-44520
X25109Y-16685
X25109Y-17197
X25109Y-25425
X25109Y-25937
X25109Y-35346
X25109Y-35858
X25109Y-44008
X25109Y-44520
X25463Y-44008
X25463Y-44520
X25472Y-25425
X25472Y-25937
X25472Y-35346
X25472Y-35858
X25502Y-16685
X25502Y-17197
X25817Y-16370
X25817Y-17512
X25817Y-25110
X25817Y-26252
X25817Y-35031
X25817Y-36173
X25817Y-43693
X25817Y-44835
X26211Y-16370
X26211Y-17512
X26211Y-25110
X26211Y-26252
X26211Y-35031
X26211Y-36173
X26211Y-43693
X26211Y-44835
X26526Y-16646
X26526Y-17472
X26526Y-25386
X26526Y-26213
X26526Y-35307
X26526Y-36134
X26526Y-43969
X26526Y-44795
X26841Y-16961
X26841Y-17630
X26841Y-25701
X26841Y-26370
X26841Y-35622
X26841Y-36291
X26841Y-44283
X26841Y-44953
X27117Y-15504
X27117Y-24244
X27117Y-34165
X27117Y-42827
X27235Y-17118
X27235Y-17630
X27235Y-25858
X27235Y-26370
X27235Y-35780
X27235Y-36291
X27235Y-44441
X27235Y-44953
X27405Y-43670
X27412Y-16541
X27412Y-25281
X27412Y-35202
X27612Y-17341
X27612Y-26081
X27612Y-36002
X27612Y-44664
X28219Y-17197
X28219Y-17551
X28219Y-25937
X28219Y-26291
X28219Y-35858
X28219Y-36213
X28219Y-44520
X28219Y-44874
X28573Y-16921
X28573Y-25661
X28573Y-35583
X28573Y-44244
X28967Y-16252
X28967Y-16764
X28967Y-24992
X28967Y-25504
X28967Y-34913
X28967Y-35425
X28967Y-43575
X28967Y-44087
X29479Y-16252
X29479Y-16764
X29479Y-24992
X29479Y-25504
X29479Y-34913
X29479Y-35425
X29479Y-43575
X29479Y-44087
X29715Y-17039
X29715Y-25780
X29715Y-35701
X29715Y-44362
X29794Y-16370
X29794Y-25110
X29794Y-35031
X29794Y-43693
X29991Y-17276
X29991Y-26016
X29991Y-35937
X29991Y-44598
X30109Y-16685
X30109Y-25425
X30109Y-35346
X30109Y-44008
X30384Y-16803
X30384Y-17276
X30384Y-25543
X30384Y-26016
X30384Y-35465
X30384Y-35937
X30384Y-44126
X30384Y-44598
X30778Y-16803
X30778Y-17276
X30778Y-25543
X30778Y-26016
X30778Y-35465
X30778Y-35937
X30778Y-44126
X30778Y-44598
X31211Y-16764
X31211Y-17315
X31211Y-25504
X31211Y-26055
X31211Y-35425
X31211Y-35976
X31211Y-44087
X31211Y-44638
X31605Y-16764
X31605Y-25504
X31605Y-35425
X31605Y-44087
X32179Y-17285
X32179Y-26025
X32179Y-35946
X32179Y-44608
X33298Y-17157
X33298Y-25898
X33298Y-35819
X33298Y-44480
X34173Y-16772
X34173Y-25512
X34173Y-35433
X34173Y-44094
X34331Y-17559
X34331Y-26299
X34331Y-36220
X34331Y-44882
X34646Y-16772
X34646Y-25512
X34646Y-35433
X34646Y-44094
X34803Y-17559
X34803Y-26299
X34803Y-36220
X34803Y-44882
X35039Y-16772
X35039Y-25512
X35039Y-35433
X35039Y-44094
X35197Y-17480
X35197Y-26220
X35197Y-36142
X35197Y-44803
X35433Y-16929
X35433Y-25669
X35433Y-35591
X35433Y-44252
X35591Y-17480
X35591Y-26220
X35591Y-36142
X35591Y-44803
X35906Y-16929
X35906Y-17717
X35906Y-25669
X35906Y-26457
X35906Y-35591
X35906Y-36378
X35906Y-44252
X35906Y-45039
X36299Y-17323
X36299Y-26063
X36299Y-35984
X36299Y-44646
X36614Y-17598
X36614Y-26339
X36614Y-36260
X36614Y-44921
X38976Y-43780
X38976Y-44331
X39055Y-25197
X39055Y-25748
X39055Y-35118
X39055Y-35669
X39134Y-16457
X39134Y-17008
X41260Y-43780
X41260Y-44331
X41339Y-25197
X41339Y-25748
X41339Y-35118
X41339Y-35669
X41417Y-16457
X41417Y-17008
X43228Y-43780
X43228Y-44331
X43307Y-25197
X43307Y-25748
X43307Y-35118
X43307Y-35669
X43386Y-16457
X43386Y-17008
X45197Y-43780
X45197Y-44331
X45276Y-25197
X45276Y-25748
X45276Y-35118
X45276Y-35669
X45354Y-16457
X45354Y-17008
X46850Y-25197
X46850Y-25748
X46850Y-35118
X46850Y-35669
X46890Y-43780
X46890Y-44331
X47047Y-16457
X47047Y-17008
X49134Y-43780
X49134Y-44331
X49213Y-25197
X49213Y-25748
X49213Y-35118
X49213Y-35669
X49291Y-16457
X49291Y-17008
X49843Y-42992
X49921Y-24409
X49921Y-34331
X50079Y-15669
X50787Y-26142
X50787Y-36122
X50787Y-44390
X50787Y-44783
X50886Y-25787
X50886Y-35728
X50945Y-17480
X51083Y-17047
X51181Y-44331
X51280Y-25728
X51280Y-35669
X51388Y-43791
X51467Y-25209
X51467Y-35130
X51476Y-16988
X51496Y-43496
X51544Y-47827
X51575Y-24913
X51575Y-34835
X51622Y-29244
X51622Y-39165
X51624Y-16469
X51662Y-43797
X51732Y-16173
X51741Y-25215
X51741Y-35136
X51780Y-20504
X51830Y-43516
X51898Y-16474
X51909Y-24934
X51909Y-34855
X52066Y-16193
X52668Y-43299
X52702Y-43625
X52734Y-44325
X52746Y-34638
X52780Y-25043
X52780Y-34964
X52795Y-24685
X52795Y-26063
X52813Y-25743
X52813Y-35664
X52938Y-16302
X52953Y-15945
X52953Y-17323
X52970Y-17002
X52992Y-44528
X53110Y-35866
X53554Y-45366
X53632Y-26783
X53632Y-36705
X53790Y-18043
X53881Y-44569
X53986Y-26048
X53998Y-35913
X54121Y-17385
X54144Y-45366
X54223Y-26783
X54223Y-36705
X54380Y-18043
X55669Y-43780
X55669Y-44528
X55748Y-25197
X55748Y-25945
X55748Y-35118
X55748Y-35866
X55906Y-16457
X55906Y-17205
X56063Y-43780
X56063Y-44528
X56122Y-55748
X56142Y-25197
X56142Y-25945
X56142Y-35118
X56142Y-35866
X56299Y-16457
X56299Y-17205
X56534Y-44325
X56613Y-25743
X56613Y-35664
X56770Y-17002
X57034Y-44025
X57113Y-25443
X57113Y-35364
X57270Y-16702
X57717Y-45709
X57717Y-46693
X57795Y-27126
X57795Y-28110
X57795Y-37047
X57795Y-38031
X57953Y-18386
X57953Y-19370
X58071Y-43780
X58150Y-25197
X58150Y-35118
X58307Y-16457
X58307Y-47283
X58386Y-28701
X58386Y-38622
X58543Y-19961
X58583Y-44291
X58583Y-45000
X58583Y-45709
X58661Y-25709
X58661Y-26417
X58661Y-27126
X58661Y-35630
X58661Y-36339
X58661Y-37047
X58819Y-16969
X58819Y-17677
X58819Y-18386
X59409Y-46378
X59409Y-46811
X59409Y-47323
X59488Y-27795
X59488Y-28228
X59488Y-28740
X59488Y-37717
X59488Y-38150
X59488Y-38661
X59646Y-19055
X59646Y-19488
X59646Y-20000
X84919Y-34998
X86101Y-36498
X86969Y-25984
X87244Y-45354
X87598Y-27480
X87677Y-25394
X87677Y-26535
X87874Y-44803
X87874Y-45906
X87874Y-46929
X88228Y-26850
X88228Y-28150
X88484Y-25531
X88504Y-46299
X88504Y-47559
X88642Y-45039
X88642Y-45669
X88858Y-26260
X88937Y-24488
X88976Y-43937
X88976Y-45748
X89055Y-45433
X89921Y-25039
X89921Y-26772
X90118Y-23031
X90157Y-42126
X90394Y-35591
X90472Y-42205
X90472Y-48425
X90512Y-22756
X90630Y-42756
X90669Y-23583
X90945Y-49055
X91024Y-35039
X91024Y-36142
X91102Y-22165
X91417Y-24409
X91417Y-27244
X91496Y-43858
X91496Y-46693
X91575Y-42205
X91575Y-48425
X91732Y-22795
X91772Y-28622
X91890Y-23858
X91969Y-43150
X91969Y-47323
X92402Y-28071
X92520Y-24409
X92520Y-27244
X92598Y-43858
X92598Y-46693
X93071Y-34803
X93071Y-36535
X93386Y-22756
X93465Y-48425
X93937Y-22205
X93937Y-49055
X94409Y-22756
X94488Y-48425
X97203Y-43581
T2
X20887Y-13995
X20887Y-22735
X20887Y-32657
X20887Y-41318
X21102Y-19685
X21102Y-28425
X21102Y-38346
X21102Y-47008
X22598Y-13780
X22598Y-22520
X22598Y-32441
X22598Y-41102
X22795Y-53858
X22835Y-19685
X22835Y-28425
X22835Y-38346
X22835Y-47008
X26850Y-13858
X26850Y-22598
X26850Y-32520
X26850Y-41181
X27012Y-20311
X27012Y-29051
X27012Y-38972
X27012Y-47634
X30433Y-53110
X31181Y-13780
X31181Y-22520
X31181Y-32441
X31181Y-41102
X31654Y-20315
X31654Y-29055
X31654Y-38976
X31654Y-47638
X34949Y-68031
X35748Y-13780
X35748Y-22520
X35748Y-32441
X35748Y-41102
X35906Y-20315
X35906Y-29055
X35906Y-38976
X35906Y-47638
X36772Y-53071
X37362Y-68031
X50914Y-48457
X50993Y-29874
X50993Y-39795
X51150Y-21134
X51365Y-42940
X51482Y-24331
X51482Y-34252
X51640Y-15591
X53465Y-41719
X53543Y-23228
X53543Y-33150
X53701Y-14488
X53709Y-29244
X53709Y-39165
X53711Y-47746
X53867Y-20504
X56772Y-42768
X56850Y-24252
X56850Y-34173
X57008Y-15512
X59931Y-41664
X60000Y-23071
X60000Y-32992
X60157Y-14331
X63386Y-46063
X63465Y-27480
X63465Y-37402
X63622Y-18740
X63701Y-46593
X63780Y-28010
X63780Y-37931
X63937Y-19270
X86535Y-32520
X92047Y-35591
X94665Y-23524
X98713Y-25854
X98815Y-23854
X98878Y-41516
X99192Y-35060
X99768Y-26854
X100295Y-22618
T3
X15591Y-15669
X15591Y-16772
X15591Y-17717
X15591Y-18819
X15591Y-24409
X15591Y-25512
X15591Y-26457
X15591Y-27559
X15591Y-34331
X15591Y-35433
X15591Y-36378
X15591Y-37480
X15591Y-42992
X15591Y-44094
X15591Y-45039
X15591Y-46142
X16772Y-15669
X16772Y-19134
X16772Y-24409
X16772Y-27874
X16772Y-34331
X16772Y-37795
X16772Y-42992
X16772Y-46457
X17165Y-12323
X17165Y-21378
X17165Y-29843
X17165Y-31614
X17165Y-40079
X17165Y-48740
X17638Y-15669
X17638Y-19134
X17638Y-24409
X17638Y-27874
X17638Y-34331
X17638Y-37795
X17638Y-42992
X17638Y-46457
X18740Y-15669
X18740Y-16693
X18740Y-18819
X18740Y-24409
X18740Y-25433
X18740Y-27559
X18740Y-34331
X18740Y-35354
X18740Y-37480
X18740Y-42992
X18740Y-44016
X18740Y-46142
X20039Y-9291
X20433Y-70394
X21102Y-12323
X21102Y-21378
X21102Y-29843
X21102Y-31614
X21102Y-40079
X21102Y-48740
X21802Y-18299
X21802Y-27039
X21802Y-36961
X21802Y-45622
X21841Y-15937
X21841Y-24677
X21841Y-34598
X21841Y-43260
X22598Y-60709
X22795Y-59173
X22795Y-60157
X23022Y-37118
X23022Y-45780
X23583Y-58976
X23583Y-59567
X23652Y-18969
X23652Y-27709
X23652Y-37630
X23652Y-46291
X23849Y-14953
X23849Y-23693
X23849Y-33614
X23849Y-42276
X23976Y-9291
X24243Y-18969
X24243Y-27709
X24243Y-37630
X24243Y-46291
X24361Y-14953
X24361Y-23693
X24361Y-33614
X24361Y-42276
X24370Y-70394
X24951Y-18772
X24951Y-27512
X24951Y-37433
X24951Y-46094
X25039Y-12323
X25039Y-21378
X25039Y-29843
X25039Y-31614
X25039Y-40079
X25039Y-48740
X25157Y-58976
X25157Y-59567
X25306Y-16409
X25306Y-25150
X25306Y-35071
X25306Y-43732
X25581Y-15504
X25581Y-24244
X25581Y-34165
X25581Y-42827
X25591Y-61772
X25739Y-16016
X25739Y-18339
X25739Y-24756
X25739Y-27079
X25739Y-34677
X25739Y-37000
X25739Y-43339
X25739Y-45661
X27195Y-18457
X27195Y-27197
X27195Y-37118
X27195Y-45780
X27717Y-58583
X27717Y-61142
X27786Y-14913
X27786Y-23654
X27786Y-33575
X27786Y-42236
X27865Y-18969
X27865Y-27709
X27865Y-37630
X27865Y-46291
X27913Y-9291
X28298Y-14913
X28298Y-23654
X28298Y-33575
X28298Y-42236
X28307Y-70394
X28416Y-18969
X28416Y-27709
X28416Y-37630
X28416Y-46291
X28504Y-59370
X28976Y-12323
X28976Y-21378
X28976Y-29843
X28976Y-31614
X28976Y-40079
X28976Y-48740
X29203Y-14913
X29203Y-23654
X29203Y-33575
X29203Y-42236
X29243Y-18654
X29243Y-27394
X29243Y-37315
X29243Y-45976
X29291Y-62126
X29291Y-64094
X29291Y-66063
X29912Y-18142
X29912Y-26882
X29912Y-36803
X29912Y-45465
X29991Y-15740
X29991Y-24480
X29991Y-34402
X29991Y-43063
X31260Y-62126
X31260Y-64094
X31260Y-66063
X31260Y-68031
X31654Y-58189
X31850Y-9291
X32244Y-70394
X32353Y-15110
X32353Y-23850
X32353Y-33772
X32353Y-42433
X32392Y-19205
X32392Y-27945
X32392Y-37866
X32392Y-46528
X32904Y-15110
X32904Y-23850
X32904Y-33772
X32904Y-42433
X32913Y-12323
X32913Y-21378
X32913Y-29843
X32913Y-31614
X32913Y-40079
X32913Y-48740
X33022Y-19205
X33022Y-27945
X33022Y-37866
X33022Y-46528
X33228Y-62126
X33228Y-64094
X33228Y-66063
X33622Y-58189
X33888Y-18811
X33888Y-27551
X33888Y-37472
X33888Y-46134
X34400Y-15858
X34400Y-24598
X34400Y-34520
X34400Y-43181
X34409Y-57205
X34409Y-58386
X34479Y-18339
X34479Y-27079
X34479Y-37000
X34479Y-45661
X35591Y-57205
X35591Y-58386
X35591Y-64094
X35787Y-9291
X35906Y-15669
X35906Y-24409
X35906Y-34331
X35906Y-42992
X36142Y-18661
X36142Y-27402
X36142Y-37323
X36142Y-45984
X36181Y-70394
X36535Y-15118
X36535Y-23858
X36535Y-33780
X36535Y-42441
X36850Y-12323
X36850Y-19134
X36850Y-21378
X36850Y-27874
X36850Y-29843
X36850Y-31614
X36850Y-37795
X36850Y-40079
X36850Y-46457
X36850Y-48740
X37165Y-15118
X37165Y-23858
X37165Y-33780
X37165Y-42441
X37480Y-19134
X37480Y-27874
X37480Y-37795
X37480Y-46457
X37559Y-58189
X37559Y-60157
X37559Y-64094
X37559Y-67047
X38346Y-15039
X38346Y-33780
X38346Y-42441
X38346Y-61339
X38346Y-63307
X38425Y-23858
X38661Y-12362
X38819Y-44724
X38898Y-15984
X38898Y-17402
X38898Y-24724
X38898Y-34646
X38898Y-43307
X38937Y-26102
X38976Y-18425
X38976Y-27165
X38976Y-37087
X38976Y-45748
X39055Y-36142
X39528Y-60157
X39528Y-61732
X39528Y-62913
X39528Y-64094
X39528Y-67047
X39528Y-68622
X39724Y-9291
X40118Y-70394
X41339Y-17402
X41339Y-18425
X41339Y-19449
X41339Y-20465
X41339Y-26220
X41339Y-27244
X41339Y-28268
X41339Y-29283
X41339Y-36142
X41339Y-37165
X41339Y-38189
X41339Y-39205
X41339Y-44803
X41339Y-45827
X41339Y-46850
X41339Y-47866
X42283Y-17402
X42283Y-26220
X42283Y-36142
X42283Y-44803
X42313Y-20465
X42313Y-29283
X42313Y-39205
X42313Y-47866
X42717Y-41732
X42756Y-14409
X42795Y-22835
X43258Y-20465
X43258Y-29283
X43258Y-39205
X43258Y-47866
X43386Y-17402
X43386Y-26220
X43386Y-36142
X43386Y-44803
X43661Y-9291
X44055Y-70394
X44321Y-18457
X44321Y-19402
X44321Y-20465
X44321Y-27276
X44321Y-28220
X44321Y-29283
X44321Y-37197
X44321Y-38142
X44321Y-39205
X44321Y-45858
X44321Y-46803
X44321Y-47866
X44331Y-17402
X44331Y-26220
X44331Y-36142
X44331Y-44803
X44567Y-12362
X44567Y-59843
X44646Y-64173
X45118Y-53150
X45512Y-59134
X45512Y-63465
X45787Y-46378
X45827Y-68622
X45866Y-37795
X45866Y-41732
X45945Y-18898
X45945Y-22835
X45945Y-27717
X45945Y-31654
X46299Y-59134
X46299Y-63465
X47087Y-58268
X47087Y-62677
X47598Y-9291
X47874Y-58268
X47874Y-62677
X47953Y-48122
X47984Y-46880
X47984Y-45797
X47992Y-70394
X48022Y-29539
X48022Y-39461
X48063Y-28297
X48063Y-38218
X48063Y-27214
X48063Y-37135
X48180Y-20799
X48220Y-19557
X48220Y-18474
X48583Y-63465
X48632Y-48909
X48711Y-30327
X48711Y-40248
X48740Y-59213
X48869Y-21587
X49067Y-45797
X49146Y-27214
X49146Y-37135
X49303Y-18474
X49764Y-68622
X49912Y-46744
X49991Y-28161
X49991Y-38083
X50000Y-53228
X50148Y-19421
X50472Y-12362
X51024Y-64173
X51290Y-42315
X51369Y-23732
X51369Y-33654
X51526Y-14992
X51535Y-9291
X51565Y-48732
X51644Y-30150
X51644Y-40071
X51802Y-21409
X51802Y-41626
X51811Y-23071
X51811Y-32992
X51929Y-70394
X51969Y-14331
X52589Y-41626
X52598Y-23043
X52598Y-32965
X52648Y-49028
X52727Y-30445
X52727Y-40366
X52756Y-14303
X52884Y-21705
X53701Y-68622
X53731Y-48437
X53809Y-29854
X53809Y-39776
X53967Y-21114
X54046Y-41626
X54046Y-45760
X54124Y-23043
X54124Y-27177
X54124Y-32965
X54124Y-37098
X54282Y-14303
X54282Y-18437
X54439Y-48516
X54518Y-39854
X54567Y-30000
X54676Y-21272
X55128Y-47925
X55128Y-49106
X55197Y-29370
X55197Y-30630
X55207Y-39264
X55207Y-40445
X55227Y-43594
X55227Y-44677
X55227Y-45661
X55276Y-42362
X55306Y-25012
X55306Y-26094
X55306Y-27079
X55306Y-34933
X55306Y-36016
X55306Y-37000
X55315Y-33622
X55365Y-20681
X55365Y-21862
X55433Y-23701
X55463Y-16272
X55463Y-17354
X55463Y-18339
X55472Y-9291
X55472Y-14992
X55620Y-46252
X55699Y-27669
X55699Y-37591
X55857Y-18929
X55866Y-70394
X55916Y-45394
X55994Y-26772
X55994Y-36693
X56014Y-42118
X56093Y-33457
X56142Y-23543
X56152Y-18031
X56250Y-14795
X56378Y-12362
X56506Y-41528
X56535Y-45945
X56585Y-22945
X56585Y-32866
X56614Y-27323
X56614Y-37244
X56743Y-14205
X56772Y-18583
X56929Y-53150
X57047Y-45748
X57097Y-42118
X57126Y-27126
X57126Y-37047
X57176Y-23535
X57176Y-33457
X57283Y-18386
X57333Y-14795
X57589Y-45079
X57638Y-68622
X57668Y-26457
X57668Y-36378
X57825Y-17717
X57983Y-42709
X58061Y-24126
X58061Y-34047
X58219Y-15386
X58573Y-41626
X58573Y-43791
X58652Y-23043
X58652Y-25209
X58652Y-32965
X58652Y-35130
X58809Y-14303
X58809Y-16469
X59409Y-9291
X59764Y-44961
X59803Y-36299
X59803Y-70394
X59961Y-17638
X60542Y-41429
X60620Y-22846
X60620Y-32768
X60778Y-14106
X60984Y-26299
X61024Y-44961
X61034Y-48122
X61113Y-29539
X61113Y-39461
X61132Y-45465
X61181Y-55236
X61181Y-56220
X61211Y-26882
X61211Y-36803
X61220Y-34724
X61231Y-42512
X61270Y-20799
X61309Y-23929
X61309Y-33850
X61339Y-43425
X61369Y-18142
X61378Y-16102
X61467Y-15189
X61654Y-17638
X61772Y-68622
X61821Y-47630
X61900Y-29047
X61900Y-38969
X61969Y-36220
X62047Y-24764
X62057Y-20307
X62283Y-12362
X62323Y-44921
X62480Y-15984
X62795Y-34764
X62795Y-43425
X62835Y-53150
X62874Y-23346
X63189Y-17520
X63307Y-21969
X63346Y-9291
X63396Y-45465
X63475Y-26882
X63475Y-36803
X63543Y-36260
X63564Y-44903
X63632Y-18142
X63661Y-26378
X63684Y-14725
X63740Y-70394
X63780Y-24646
X63814Y-42330
X63937Y-59055
X64016Y-46142
X64094Y-37480
X64173Y-27520
X64173Y-64961
X64252Y-18819
X64291Y-16457
X64331Y-23071
X64409Y-34724
X64488Y-32638
X64606Y-21614
X64685Y-27047
X64921Y-31417
X64956Y-43511
X64961Y-25591
X65076Y-13333
X65157Y-33780
X65315Y-36024
X65315Y-40866
X65354Y-15354
X65472Y-24055
X65512Y-68622
X65630Y-22008
X65827Y-18819
X65827Y-20512
X65866Y-34488
X65984Y-26654
X66063Y-32520
X66142Y-15433
X66339Y-30984
X66417Y-25315
X66417Y-36772
X66457Y-42047
X66468Y-11941
X66496Y-23543
X66535Y-14094
X66654Y-17165
X66693Y-35276
X66732Y-39409
X66772Y-31220
X66811Y-33189
X67283Y-9291
X67323Y-18622
X67402Y-19961
X67480Y-21496
X67480Y-23425
X67480Y-25394
X67480Y-27480
X67480Y-29567
X67480Y-31732
X67480Y-33898
X67638Y-15118
X67677Y-36378
X67677Y-70394
X67874Y-13622
X67874Y-40591
X67992Y-11890
X68189Y-37913
X68228Y-19567
X68228Y-33110
X68228Y-35197
X68740Y-18110
X68740Y-53150
X68740Y-59055
X68740Y-64961
X68752Y-20185
X68937Y-16063
X69173Y-24173
X69173Y-26142
X69173Y-28228
X69173Y-30315
X69173Y-32480
X69173Y-34606
X69173Y-36693
X69252Y-22165
X69331Y-39094
X69449Y-68622
X69685Y-11575
X69685Y-12913
X69803Y-14370
X70079Y-17441
X70143Y-18794
X70394Y-15906
X70787Y-20591
X70945Y-24685
X70945Y-26654
X70945Y-28740
X70945Y-30787
X70945Y-32874
X70945Y-34921
X70945Y-37441
X70945Y-22757
X71102Y-12598
X71102Y-13937
X71142Y-11102
X71220Y-9291
X71535Y-17402
X71614Y-54843
X71614Y-56811
X71614Y-58780
X71614Y-60748
X71614Y-62717
X71614Y-64882
X71614Y-66850
X71614Y-68622
X71614Y-70394
X72283Y-19055
X72520Y-14370
X72559Y-11575
X72559Y-12913
X72717Y-20984
X72756Y-16220
X73268Y-27244
X73268Y-28268
X73268Y-29291
X73268Y-30307
X73307Y-21496
X73307Y-22520
X73307Y-23543
X73307Y-24559
X73307Y-40945
X73307Y-41969
X73307Y-42992
X73307Y-44008
X73307Y-46693
X73307Y-47717
X73307Y-48740
X73307Y-49756
X73504Y-17874
X73976Y-12598
X73976Y-13937
X74016Y-11102
X74173Y-62126
X74173Y-63701
X74213Y-27244
X74243Y-30307
X74252Y-19528
X74252Y-21496
X74252Y-40945
X74252Y-46693
X74282Y-24559
X74282Y-44008
X74282Y-49756
X74567Y-53150
X74882Y-15984
X75157Y-9291
X75187Y-30307
X75227Y-24559
X75227Y-44008
X75227Y-49756
X75315Y-27244
X75354Y-21496
X75354Y-40945
X75354Y-46693
X75394Y-14370
X75433Y-11575
X75433Y-12913
X75512Y-17835
X75551Y-54843
X75551Y-56811
X75551Y-58780
X75551Y-64882
X75551Y-66850
X75551Y-68622
X75551Y-70394
X75748Y-62126
X75748Y-63701
X76220Y-19528
X76250Y-28299
X76250Y-29244
X76250Y-30307
X76260Y-27244
X76290Y-22551
X76290Y-23496
X76290Y-24559
X76290Y-42000
X76290Y-42945
X76290Y-44008
X76290Y-47748
X76290Y-48693
X76290Y-49756
X76299Y-21496
X76299Y-40945
X76299Y-46693
X76850Y-12598
X76850Y-13937
X76850Y-15984
X76890Y-11102
X77480Y-17835
X78189Y-19528
X78268Y-11575
X78268Y-12913
X78268Y-14370
X78425Y-22205
X78425Y-28071
X78425Y-47244
X78504Y-41654
X78819Y-15984
X79094Y-9291
X79449Y-17835
X79449Y-22047
X79449Y-27835
X79449Y-47244
X79488Y-54843
X79488Y-56811
X79488Y-58780
X79488Y-62717
X79488Y-64882
X79488Y-66850
X79488Y-68622
X79488Y-70394
X79528Y-41496
X79685Y-12598
X79685Y-13937
X79764Y-11102
X80157Y-19528
X80472Y-53150
X80787Y-15984
X80984Y-22402
X81102Y-28189
X81142Y-11575
X81142Y-12913
X81142Y-14370
X81181Y-41850
X81181Y-47598
X81260Y-21535
X81260Y-23583
X81260Y-24598
X81299Y-27283
X81299Y-29331
X81299Y-30346
X81378Y-40945
X81378Y-42992
X81378Y-44008
X81378Y-46693
X81378Y-48740
X81378Y-49756
X81417Y-17835
X82126Y-19528
X82205Y-21535
X82235Y-24598
X82244Y-27283
X82274Y-30346
X82323Y-40945
X82323Y-46693
X82353Y-44008
X82353Y-49756
X82559Y-11102
X82559Y-12598
X82559Y-13937
X82756Y-15984
X83031Y-9291
X83031Y-63701
X83031Y-64882
X83180Y-24598
X83219Y-30346
X83298Y-44008
X83298Y-49756
X83307Y-21535
X83346Y-27283
X83386Y-17835
X83386Y-34016
X83386Y-37480
X83425Y-40945
X83425Y-46693
X83425Y-54843
X83425Y-56811
X83425Y-66850
X83425Y-68622
X83425Y-70394
X84016Y-11654
X84016Y-12913
X84094Y-14409
X84094Y-19528
X84213Y-63701
X84213Y-64882
X84243Y-24598
X84252Y-21535
X84282Y-30346
X84291Y-27283
X84361Y-44008
X84361Y-49756
X84370Y-40945
X84370Y-46693
X84724Y-15984
X84803Y-22402
X84803Y-23701
X84803Y-28150
X84803Y-29409
X84882Y-41811
X84882Y-43071
X84882Y-47559
X84882Y-48819
X85276Y-13937
X85354Y-17835
X85433Y-11063
X85433Y-12677
X86063Y-19528
X86181Y-58780
X86181Y-59961
X86299Y-22402
X86299Y-23701
X86299Y-28150
X86299Y-29409
X86378Y-41811
X86378Y-43071
X86378Y-47559
X86378Y-48819
X86378Y-53150
X86535Y-13543
X86693Y-14331
X86693Y-15984
X86969Y-9291
X87205Y-11969
X87323Y-17835
X87323Y-32205
X87323Y-66850
X87362Y-54843
X87362Y-58780
X87362Y-59961
X87362Y-70394
X87795Y-22402
X87795Y-23701
X87795Y-28150
X87795Y-29409
X87874Y-41811
X87874Y-43071
X87874Y-47559
X87874Y-48819
X88031Y-19528
X88031Y-32992
X88504Y-13543
X88583Y-24016
X88661Y-14331
X88661Y-15906
X88740Y-43386
X89173Y-11969
X89213Y-29331
X89213Y-48661
X89291Y-17835
X89370Y-22795
X89449Y-42205
X90000Y-13543
X90000Y-19528
X90157Y-28071
X90236Y-47480
X90394Y-44488
X90394Y-46220
X90630Y-15906
X90866Y-14016
X90906Y-9291
X91142Y-58622
X91142Y-59213
X91260Y-17717
X91299Y-54843
X91299Y-56811
X91299Y-66850
X91299Y-68622
X91299Y-70394
X91417Y-11969
X91929Y-57835
X91929Y-60000
X91969Y-13543
X91969Y-19528
X91969Y-34173
X92283Y-53150
X92323Y-60591
X92598Y-15906
X92677Y-33701
X92677Y-37953
X92717Y-57835
X92717Y-60000
X92756Y-40630
X92835Y-14016
X92835Y-30472
X93150Y-33228
X93228Y-17717
X93465Y-36457
X93465Y-38661
X93543Y-11969
X93543Y-34803
X93701Y-58622
X93701Y-59213
X93937Y-19528
X93937Y-32520
X94252Y-37953
X94646Y-13031
X94724Y-33228
X94843Y-9291
X95236Y-54843
X95236Y-56811
X95236Y-58780
X95236Y-60748
X95236Y-62717
X95236Y-64882
X95236Y-66850
X95236Y-68622
X95236Y-70394
X95512Y-18780
X95630Y-13228
X95827Y-46063
X96220Y-33386
X96220Y-37717
X96654Y-13740
X96693Y-37008
X96732Y-18504
X96772Y-34094
X96929Y-28268
X97165Y-15118
X97205Y-16102
X97205Y-17047
X97323Y-26850
X97323Y-41890
X97402Y-46063
X97480Y-42520
X97835Y-29449
X97835Y-30472
X97835Y-31496
X97835Y-32512
X98110Y-41181
X98110Y-42677
X98189Y-27480
X98189Y-53150
X98268Y-10787
X98268Y-12047
X98268Y-19843
X98268Y-21102
X98622Y-29173
X98661Y-23071
X98809Y-32512
X98976Y-58386
X98976Y-59961
X99173Y-54843
X99173Y-60748
X99173Y-62717
X99173Y-64882
X99173Y-66850
X99173Y-68819
X99213Y-37165
X99528Y-10787
X99528Y-21102
X99528Y-22283
X99754Y-32512
X99882Y-29173
X99921Y-36299
X100551Y-58386
X100551Y-59961
X100817Y-30504
X100817Y-31449
X100817Y-32512
X100827Y-29449
T4
X11953Y-56008
X11969Y-51260
X11969Y-60748
X11969Y-65457
X12953Y-55008
X12953Y-57008
X12969Y-50260
X12969Y-52260
X12969Y-59748
X12969Y-61748
X12969Y-64457
X12969Y-66457
X19055Y-62913
X19055Y-64291
X26929Y-65472
X26929Y-66260
X48528Y-46276
X48685Y-27772
X48685Y-37693
X48843Y-19055
X49528Y-45276
X49685Y-26772
X49685Y-36693
X49843Y-18055
X50193Y-63110
X50193Y-65079
X50236Y-58780
X50236Y-60748
X50528Y-46276
X50685Y-27772
X50685Y-37693
X50843Y-19055
X53780Y-58780
X53780Y-60748
X53780Y-63110
X53780Y-65079
X63002Y-47335
X63094Y-28764
X63094Y-38685
X63228Y-20024
X64002Y-48335
X64094Y-29764
X64094Y-39685
X64228Y-21024
X65002Y-47335
X65094Y-28764
X65094Y-38685
X65228Y-20024
X77921Y-33185
X77921Y-38795
X78921Y-32185
X78921Y-37795
X79921Y-33185
X79921Y-38795
X83622Y-62913
X83622Y-64291
X90937Y-24378
X90937Y-25378
X90937Y-26378
X90937Y-27378
X90981Y-43789
X90981Y-44789
X90981Y-45789
X90981Y-46789
X93937Y-24378
X93937Y-25378
X93937Y-26378
X93937Y-27378
X93981Y-43789
X93981Y-44789
X93981Y-45789
X93981Y-46789
X95169Y-34039
X95169Y-35039
X95169Y-36039
X95169Y-37039
X96638Y-39528
X97638Y-40528
X98169Y-34039
X98169Y-35039
X98169Y-36039
X98169Y-37039
X98354Y-66244
X98354Y-67244
X98354Y-68244
X98638Y-39528
T5
X95457Y-14156
X95457Y-15156
X95457Y-16156
X95457Y-17156
X96457Y-14656
X96457Y-15656
X96457Y-16656
X96457Y-17656
T6
X20433Y-52323
X21433Y-52323
X24386Y-59217
X24386Y-60217
X24386Y-61217
X24386Y-63217
X24386Y-64217
X24386Y-65217
X24386Y-66217
X27451Y-52314
X28451Y-52314
X33724Y-52283
X34724Y-52283
T7
X16165Y-16244
X16165Y-18244
X16165Y-24984
X16165Y-26984
X16165Y-34906
X16165Y-36906
X16165Y-43567
X16165Y-45567
X17165Y-17244
X17165Y-25984
X17165Y-35906
X17165Y-44567
X18165Y-16244
X18165Y-18244
X18165Y-24984
X18165Y-26984
X18165Y-34906
X18165Y-36906
X18165Y-43567
X18165Y-45567
X18346Y-30787
X18976Y-56772
X20945Y-50236
X27953Y-50236
X30079Y-59764
X31654Y-59764
X34252Y-50236
X35000Y-57795
X35000Y-59764
X41835Y-17976
X41835Y-19976
X41835Y-26717
X41835Y-28717
X41835Y-36717
X41835Y-38717
X41835Y-45299
X41835Y-47299
X42835Y-18976
X42835Y-27717
X42835Y-37717
X42835Y-46299
X42913Y-32677
X43835Y-17976
X43835Y-19976
X43835Y-26717
X43835Y-28717
X43835Y-36717
X43835Y-38717
X43835Y-45299
X43835Y-47299
X44449Y-65669
X44646Y-61535
X66850Y-48976
X73748Y-22016
X73748Y-24016
X73748Y-27756
X73748Y-29756
X73803Y-41441
X73803Y-43441
X73803Y-47189
X73803Y-49189
X74606Y-35433
X74748Y-23016
X74748Y-28756
X74803Y-42441
X74803Y-48189
X75748Y-22016
X75748Y-24016
X75748Y-27756
X75748Y-29756
X75803Y-41441
X75803Y-43441
X75803Y-47189
X75803Y-49189
X78425Y-22992
X78425Y-28780
X78449Y-48189
X78504Y-42441
X79425Y-22992
X79425Y-28780
X79449Y-48189
X79504Y-42441
X81732Y-22047
X81732Y-24047
X81756Y-27780
X81756Y-29780
X81835Y-41441
X81835Y-43441
X81835Y-47189
X81835Y-49189
X82732Y-23047
X82756Y-28780
X82835Y-42441
X82835Y-48189
X83732Y-22047
X83732Y-24047
X83756Y-27780
X83756Y-29780
X83835Y-41441
X83835Y-43441
X83835Y-47189
X83835Y-49189
X86772Y-59370
X88740Y-59370
X91339Y-41181
X91362Y-29921
X92339Y-41181
X92362Y-29921
X93228Y-55827
X93339Y-41181
X93362Y-29921
X93937Y-21024
X96378Y-26874
X96378Y-27874
X96378Y-28874
X97402Y-59173
X98315Y-29969
X98315Y-31969
X99315Y-30969
X99764Y-59173
X100315Y-29969
X100315Y-31969
X105354Y-23701
X105354Y-24701
T8
X67024Y-57929
X67024Y-61929
X67024Y-65929
X75024Y-60929
X75024Y-62929
T9
X10000Y-50480
X10000Y-51480
X10000Y-52480
X10000Y-53480
X10000Y-55220
X10000Y-56220
X10000Y-57220
X10000Y-58220
X10065Y-59967
X10065Y-60967
X10065Y-61967
X10065Y-62967
X10065Y-64717
X10065Y-65717
X10065Y-66717
X10065Y-67717
T10
X30016Y-68031
X34016Y-68031
T11
X98583Y-57323
T12
X82638Y-59173
X84606Y-59173
X87390Y-63898
X96890Y-63898
T13
X43701Y-55217
X52657Y-45669
X52756Y-27087
X52756Y-37008
X52953Y-18327
X91339Y-37992
X91437Y-32972
T14
X35000Y-62323
X35000Y-65433
T15
X56929Y-59409
X56929Y-64528
X59488Y-59409
X59488Y-64528
X100406Y-12856
X100406Y-18955
T0
M30
