G04 #@! TF.FileFunction,Soldermask,Bot*
%FSLAX46Y46*%
G04 Gerber Fmt 4.6, Leading zero omitted, Abs format (unit mm)*
G04 Created by KiCad (PCBNEW 4.0.7) date 10/26/17 10:54:27*
%MOMM*%
%LPD*%
G01*
G04 APERTURE LIST*
%ADD10C,0.100000*%
%ADD11C,3.600000*%
%ADD12C,2.400000*%
%ADD13C,2.000000*%
%ADD14R,2.100000X2.100000*%
%ADD15O,2.100000X2.100000*%
%ADD16C,1.840000*%
%ADD17R,2.000000X2.000000*%
%ADD18O,2.000000X2.000000*%
%ADD19O,2.398980X2.398980*%
%ADD20R,2.398980X2.398980*%
%ADD21R,2.400000X2.400000*%
%ADD22R,2.400000X2.000000*%
%ADD23R,1.700000X1.700000*%
%ADD24C,1.700000*%
%ADD25R,3.600000X3.000000*%
%ADD26R,2.600000X2.600000*%
%ADD27O,2.600000X2.600000*%
%ADD28C,2.900000*%
%ADD29C,3.400000*%
%ADD30C,3.000000*%
%ADD31C,2.940000*%
%ADD32R,1.600000X1.300000*%
%ADD33R,2.800000X2.900000*%
%ADD34R,1.900000X1.700000*%
%ADD35R,2.400000X2.100000*%
%ADD36R,1.700000X1.900000*%
%ADD37R,3.600000X1.200000*%
%ADD38R,0.800000X1.000000*%
%ADD39R,1.800000X0.700000*%
%ADD40C,1.924000*%
%ADD41R,0.900000X1.000000*%
%ADD42C,2.800000*%
%ADD43C,4.049980*%
%ADD44R,1.901140X1.901140*%
%ADD45C,1.901140*%
%ADD46R,1.150000X1.200000*%
%ADD47R,1.700000X1.100000*%
%ADD48R,1.300000X0.900000*%
%ADD49R,1.200000X1.150000*%
%ADD50R,0.900000X1.300000*%
%ADD51R,1.650000X1.400000*%
%ADD52R,2.200000X2.200000*%
%ADD53C,2.200000*%
G04 APERTURE END LIST*
D10*
D11*
X126400000Y-39000000D03*
X237800000Y-135400000D03*
X264200000Y-25600000D03*
X50600000Y-25600000D03*
X264400000Y-180600000D03*
D12*
X57800000Y-146400000D03*
D13*
X219800000Y-75300000D03*
X222340000Y-72760000D03*
X222340000Y-77840000D03*
X217260000Y-77840000D03*
X217260000Y-72760000D03*
X261860000Y-80860000D03*
X264400000Y-83400000D03*
X264400000Y-78320000D03*
X259320000Y-78320000D03*
X259320000Y-83400000D03*
D14*
X254400000Y-70460000D03*
D15*
X254400000Y-73000000D03*
X254400000Y-75540000D03*
D13*
X118400000Y-50400000D03*
X120940000Y-47860000D03*
X120940000Y-52940000D03*
X115860000Y-52940000D03*
X115860000Y-47860000D03*
X118400000Y-72600000D03*
X120940000Y-70060000D03*
X120940000Y-75140000D03*
X115860000Y-75140000D03*
X115860000Y-70060000D03*
D16*
X42540000Y-129860000D03*
X40000000Y-132400000D03*
X42540000Y-134940000D03*
D17*
X248312364Y-113423332D03*
D18*
X240692364Y-121043332D03*
X248312364Y-115963332D03*
X240692364Y-118503332D03*
X248312364Y-118503332D03*
X240692364Y-115963332D03*
X248312364Y-121043332D03*
X240692364Y-113423332D03*
D16*
X138340000Y-97940000D03*
X135800000Y-95400000D03*
X133260000Y-97940000D03*
D19*
X35165000Y-166580000D03*
D20*
X35165000Y-174200000D03*
D19*
X35165000Y-171660000D03*
X35165000Y-169120000D03*
X35000000Y-130420000D03*
D20*
X35000000Y-138040000D03*
D19*
X35000000Y-135500000D03*
X35000000Y-132960000D03*
D13*
X53200000Y-115400000D03*
X50660000Y-112860000D03*
X50660000Y-117940000D03*
X55740000Y-117940000D03*
X55740000Y-112860000D03*
D21*
X235000000Y-153000000D03*
D12*
X230000000Y-153000000D03*
D21*
X98500000Y-154000000D03*
D12*
X98500000Y-149000000D03*
D22*
X103500000Y-160500000D03*
X107500000Y-160500000D03*
D17*
X222000000Y-162000000D03*
D13*
X222000000Y-165500000D03*
D22*
X86000000Y-151000000D03*
X82000000Y-151000000D03*
D17*
X146200000Y-156500000D03*
D13*
X146200000Y-151500000D03*
D17*
X137090000Y-162500000D03*
D13*
X137090000Y-167500000D03*
D17*
X137200000Y-156500000D03*
D13*
X137200000Y-151500000D03*
D17*
X146200000Y-162500000D03*
D13*
X146200000Y-167500000D03*
D23*
X78000000Y-170500000D03*
D24*
X78000000Y-168500000D03*
D17*
X58000000Y-165500000D03*
D13*
X58000000Y-162000000D03*
D25*
X241500000Y-157300000D03*
X241500000Y-164500000D03*
D26*
X96000000Y-175000000D03*
D27*
X85840000Y-175000000D03*
D28*
X255700000Y-164500000D03*
X231570000Y-164500000D03*
D29*
X98500000Y-160500000D03*
X98500000Y-168400000D03*
D30*
X219500000Y-152500000D03*
X224500000Y-152500000D03*
D12*
X86000000Y-154000000D03*
X90000000Y-154000000D03*
D11*
X154200000Y-153100000D03*
X160700000Y-153100000D03*
X154200000Y-166100000D03*
X160700000Y-166100000D03*
D31*
X200160000Y-156960000D03*
X200160000Y-162040000D03*
X179840000Y-149340000D03*
X179840000Y-159500000D03*
X179840000Y-169660000D03*
D13*
X71540000Y-170390000D03*
X71540000Y-167850000D03*
X71540000Y-165310000D03*
X71540000Y-162770000D03*
X71540000Y-157690000D03*
X71540000Y-155150000D03*
X71540000Y-152610000D03*
D32*
X103900000Y-168500000D03*
X106100000Y-168500000D03*
D33*
X225850000Y-157500000D03*
X232150000Y-157500000D03*
D34*
X102850000Y-175000000D03*
X100150000Y-175000000D03*
D35*
X171000000Y-149500000D03*
X175000000Y-149500000D03*
X171200000Y-169700000D03*
X175200000Y-169700000D03*
D34*
X152150000Y-142500000D03*
X154850000Y-142500000D03*
X158650000Y-142500000D03*
X161350000Y-142500000D03*
X152150000Y-145000000D03*
X154850000Y-145000000D03*
X158650000Y-145000000D03*
X161350000Y-145000000D03*
D36*
X148376000Y-115580000D03*
X148376000Y-118280000D03*
D37*
X144306000Y-111268000D03*
X144306000Y-109668000D03*
D36*
X148370000Y-112445000D03*
X148370000Y-109745000D03*
D13*
X118400000Y-119800000D03*
X120940000Y-117260000D03*
X120940000Y-122340000D03*
X115860000Y-122340000D03*
X115860000Y-117260000D03*
D19*
X35165000Y-154515000D03*
D20*
X35165000Y-162135000D03*
D19*
X35165000Y-159595000D03*
X35165000Y-157055000D03*
D14*
X208860000Y-124600000D03*
D15*
X211400000Y-124600000D03*
D38*
X92850000Y-116200000D03*
X91950000Y-116200000D03*
D16*
X137940000Y-119740000D03*
X135400000Y-117200000D03*
X132860000Y-119740000D03*
X169626000Y-122430000D03*
X172166000Y-124970000D03*
X174706000Y-122430000D03*
X42540000Y-153960000D03*
X40000000Y-156500000D03*
X42540000Y-159040000D03*
X42540000Y-165920000D03*
X40000000Y-168460000D03*
X42540000Y-171000000D03*
X42500000Y-141920000D03*
X39960000Y-144460000D03*
X42500000Y-147000000D03*
D39*
X146506000Y-112770000D03*
X146506000Y-113270000D03*
X146506000Y-113770000D03*
X146506000Y-114270000D03*
X146506000Y-114770000D03*
X142106000Y-114770000D03*
X142106000Y-114270000D03*
X142106000Y-113770000D03*
X142106000Y-113270000D03*
X142106000Y-112770000D03*
D17*
X248200000Y-64120000D03*
D18*
X240580000Y-71740000D03*
X248200000Y-66660000D03*
X240580000Y-69200000D03*
X248200000Y-69200000D03*
X240580000Y-66660000D03*
X248200000Y-71740000D03*
X240580000Y-64120000D03*
D17*
X258948438Y-88659612D03*
D18*
X251328438Y-96279612D03*
X258948438Y-91199612D03*
X251328438Y-93739612D03*
X258948438Y-93739612D03*
X251328438Y-91199612D03*
X258948438Y-96279612D03*
X251328438Y-88659612D03*
D40*
X259420000Y-175540000D03*
X259420000Y-173000000D03*
X259420000Y-170460000D03*
X264500000Y-175540000D03*
X264500000Y-170460000D03*
D19*
X35000000Y-142460000D03*
D20*
X35000000Y-150080000D03*
D19*
X35000000Y-147540000D03*
X35000000Y-145000000D03*
D38*
X92850000Y-94200000D03*
X91950000Y-94200000D03*
D41*
X153200000Y-110150000D03*
X153200000Y-109050000D03*
D13*
X53200000Y-93400000D03*
X50660000Y-90860000D03*
X50660000Y-95940000D03*
X55740000Y-95940000D03*
X55740000Y-90860000D03*
D29*
X257000000Y-152500000D03*
X263000000Y-152500000D03*
X260000000Y-147800000D03*
D42*
X264630000Y-34855000D03*
X264630000Y-50345000D03*
D43*
X260950000Y-36885000D03*
X260950000Y-48315000D03*
D44*
X254600000Y-47045000D03*
D45*
X252060000Y-45775000D03*
X254600000Y-44505000D03*
X252060000Y-43235000D03*
X254600000Y-41965000D03*
X252060000Y-40695000D03*
X254600000Y-39425000D03*
X252060000Y-38155000D03*
D13*
X199600000Y-124600000D03*
X202140000Y-122060000D03*
X202140000Y-127140000D03*
X197060000Y-127140000D03*
X197060000Y-122060000D03*
X220000000Y-124600000D03*
X217460000Y-122060000D03*
X222540000Y-122060000D03*
X222540000Y-127140000D03*
X217460000Y-127140000D03*
D46*
X70600000Y-112350000D03*
X70600000Y-110850000D03*
X70600000Y-90350000D03*
X70600000Y-88850000D03*
D47*
X53200000Y-117050000D03*
X53200000Y-118950000D03*
D48*
X69200000Y-112350000D03*
X69200000Y-110850000D03*
D47*
X53200000Y-95050000D03*
X53200000Y-96950000D03*
D48*
X69200000Y-90350000D03*
X69200000Y-88850000D03*
D49*
X82450000Y-111600000D03*
X83950000Y-111600000D03*
D50*
X93150000Y-115200000D03*
X91650000Y-115200000D03*
D49*
X82450000Y-89600000D03*
X83950000Y-89600000D03*
D50*
X93150000Y-93200000D03*
X91650000Y-93200000D03*
X71350000Y-114600000D03*
X69850000Y-114600000D03*
D51*
X80200000Y-114200000D03*
X80200000Y-112200000D03*
D48*
X91400000Y-112850000D03*
X91400000Y-114350000D03*
D47*
X140000000Y-121750000D03*
X140000000Y-119850000D03*
D48*
X154466000Y-111496000D03*
X154466000Y-112996000D03*
X154466000Y-115306000D03*
X154466000Y-116806000D03*
X153196000Y-112258000D03*
X153196000Y-113758000D03*
X153196000Y-116068000D03*
X153196000Y-117568000D03*
D50*
X71350000Y-92600000D03*
X69850000Y-92600000D03*
D51*
X80250000Y-92500000D03*
X80250000Y-90500000D03*
D48*
X91400000Y-90850000D03*
X91400000Y-92350000D03*
D51*
X103200000Y-114400000D03*
X103200000Y-112400000D03*
X103200000Y-92400000D03*
X103200000Y-90400000D03*
D36*
X148600000Y-93550000D03*
X148600000Y-96250000D03*
D37*
X144500000Y-89300001D03*
X144500000Y-87700001D03*
D36*
X148600000Y-90450000D03*
X148600000Y-87750000D03*
D41*
X153400000Y-88400000D03*
X153400000Y-87300000D03*
D13*
X118400000Y-98000000D03*
X120940000Y-95460000D03*
X120940000Y-100540000D03*
X115860000Y-100540000D03*
X115860000Y-95460000D03*
D47*
X140200000Y-99750000D03*
X140200000Y-97850000D03*
D48*
X154700000Y-89850000D03*
X154700000Y-91350000D03*
X154700000Y-93250000D03*
X154700000Y-94750000D03*
X153400000Y-90250000D03*
X153400000Y-91750000D03*
X153400000Y-93950000D03*
X153400000Y-95450000D03*
D16*
X169860000Y-100460000D03*
X172400000Y-103000000D03*
X174940000Y-100460000D03*
D39*
X146600000Y-90800000D03*
X146600000Y-91300000D03*
X146600000Y-91800000D03*
X146600000Y-92300000D03*
X146600000Y-92800000D03*
X142200000Y-92800000D03*
X142200000Y-92300000D03*
X142200000Y-91800000D03*
X142200000Y-91300000D03*
X142200000Y-90800000D03*
D13*
X199600000Y-110000000D03*
X202140000Y-107460000D03*
X202140000Y-112540000D03*
X197060000Y-112540000D03*
X197060000Y-107460000D03*
X220000000Y-110000000D03*
X222540000Y-107460000D03*
X222540000Y-112540000D03*
X217460000Y-112540000D03*
X217460000Y-107460000D03*
D14*
X209000000Y-110000000D03*
D15*
X211540000Y-110000000D03*
D47*
X261800000Y-77250000D03*
X261800000Y-79150000D03*
D16*
X255060000Y-102600000D03*
X257600000Y-105140000D03*
X260140000Y-102600000D03*
D40*
X208400000Y-90860000D03*
X205860000Y-90860000D03*
X210940000Y-90860000D03*
X205860000Y-95940000D03*
X208400000Y-95940000D03*
X210940000Y-95940000D03*
D46*
X70600000Y-65150000D03*
X70600000Y-63650000D03*
D49*
X82500000Y-64400000D03*
X84000000Y-64400000D03*
D50*
X93150000Y-68000000D03*
X91650000Y-68000000D03*
D13*
X53200000Y-68200000D03*
X50660000Y-65660000D03*
X50660000Y-70740000D03*
X55740000Y-70740000D03*
X55740000Y-65660000D03*
D47*
X53200000Y-69849999D03*
X53200000Y-71749999D03*
D48*
X69200000Y-65150000D03*
X69200000Y-63650000D03*
D50*
X71340000Y-67430000D03*
X69840000Y-67430000D03*
D51*
X80200000Y-67400000D03*
X80200000Y-65400000D03*
D48*
X91400000Y-65650000D03*
X91400000Y-67150000D03*
D38*
X92884000Y-68954000D03*
X91984000Y-68954000D03*
D51*
X103000000Y-67200000D03*
X103000000Y-65200000D03*
D46*
X70600000Y-42950000D03*
X70600000Y-41450000D03*
D49*
X82450000Y-42200000D03*
X83950000Y-42200000D03*
D50*
X93150000Y-46000000D03*
X91650000Y-46000000D03*
D13*
X53200000Y-46000000D03*
X50660000Y-43460000D03*
X50660000Y-48540000D03*
X55740000Y-48540000D03*
X55740000Y-43460000D03*
D47*
X53200000Y-47799999D03*
X53200000Y-49699999D03*
D48*
X69200000Y-42950000D03*
X69200000Y-41450000D03*
D50*
X71350000Y-45200000D03*
X69850000Y-45200000D03*
D51*
X80200000Y-45200000D03*
X80200000Y-43200000D03*
D48*
X91400000Y-43450000D03*
X91400000Y-44950000D03*
D38*
X92850000Y-46800000D03*
X91950000Y-46800000D03*
D51*
X103200000Y-45000000D03*
X103200000Y-43000000D03*
D36*
X148600000Y-68450000D03*
X148600000Y-71150000D03*
D37*
X144600000Y-64000000D03*
X144600000Y-62400000D03*
D36*
X148600000Y-65150000D03*
X148600000Y-62450000D03*
D41*
X153400000Y-63150000D03*
X153400000Y-62050000D03*
D47*
X140200000Y-74550000D03*
X140200000Y-72650000D03*
D48*
X154666000Y-64646000D03*
X154666000Y-66146000D03*
X154800000Y-68050000D03*
X154800000Y-69550000D03*
X153400000Y-65050000D03*
X153400000Y-66550000D03*
X153400000Y-68850000D03*
X153400000Y-70350000D03*
D16*
X138340000Y-72740000D03*
X135800000Y-70200000D03*
X133260000Y-72740000D03*
X169860000Y-75260000D03*
X172400000Y-77800000D03*
X174940000Y-75260000D03*
D39*
X146800000Y-65600000D03*
X146800000Y-66100000D03*
X146800000Y-66600000D03*
X146800000Y-67100000D03*
X146800000Y-67600000D03*
X142400000Y-67600000D03*
X142400000Y-67100000D03*
X142400000Y-66600000D03*
X142400000Y-66100000D03*
X142400000Y-65600000D03*
D36*
X149000000Y-46050000D03*
X149000000Y-48750000D03*
D37*
X144800000Y-41800000D03*
X144800000Y-40200000D03*
D36*
X149000000Y-42950000D03*
X149000000Y-40250000D03*
D41*
X153800000Y-40950000D03*
X153800000Y-39850000D03*
D47*
X140600000Y-52350000D03*
X140600000Y-50450000D03*
D48*
X155000000Y-42450000D03*
X155000000Y-43950000D03*
X155200000Y-45850000D03*
X155200000Y-47350000D03*
X153800000Y-42850000D03*
X153800000Y-44350000D03*
X153800000Y-46650000D03*
X153800000Y-48150000D03*
D16*
X138740000Y-50600000D03*
X136200000Y-48060000D03*
X133660000Y-50600000D03*
X170200000Y-53060000D03*
X172740000Y-55600000D03*
X175280000Y-53060000D03*
D39*
X147200000Y-43400000D03*
X147200000Y-43900000D03*
X147200000Y-44400000D03*
X147200000Y-44900000D03*
X147200000Y-45400000D03*
X142800000Y-45400000D03*
X142800000Y-44900000D03*
X142800000Y-44400000D03*
X142800000Y-43900000D03*
X142800000Y-43400000D03*
D13*
X199460000Y-75240000D03*
X202000000Y-72700000D03*
X202000000Y-77780000D03*
X196920000Y-77780000D03*
X196920000Y-72700000D03*
X199460000Y-60660000D03*
X202000000Y-58120000D03*
X202000000Y-63200000D03*
X196920000Y-63200000D03*
X196920000Y-58120000D03*
X219740000Y-60740000D03*
X222280000Y-58200000D03*
X222280000Y-63280000D03*
X217200000Y-63280000D03*
X217200000Y-58200000D03*
D14*
X208800000Y-75300000D03*
D15*
X211340000Y-75300000D03*
D14*
X208800000Y-60600000D03*
D15*
X211340000Y-60600000D03*
D14*
X277200000Y-62400000D03*
D15*
X277200000Y-64940000D03*
D14*
X241600000Y-106800000D03*
D15*
X244140000Y-106800000D03*
X246680000Y-106800000D03*
D14*
X241660000Y-78200000D03*
D15*
X244200000Y-78200000D03*
X246740000Y-78200000D03*
D52*
X95260000Y-135000000D03*
D53*
X97800000Y-135000000D03*
D52*
X81866644Y-135077632D03*
D53*
X79326644Y-135077632D03*
D52*
X61500000Y-135100000D03*
D53*
X64040000Y-135100000D03*
D12*
X121800000Y-143200000D03*
X96600000Y-129800000D03*
X80600000Y-129800000D03*
X179400000Y-126600000D03*
X56200000Y-80400000D03*
X230200000Y-93000000D03*
X118600000Y-85200000D03*
X248200000Y-55600000D03*
X246400000Y-144000000D03*
X62800000Y-129800000D03*
D11*
X50800000Y-180400000D03*
X76600000Y-146800000D03*
M02*
