M48
INCH,TZ
T1C0.015
T2C0.020
T3C0.028
T4C0.031
T5C0.035
T6C0.035
T7C0.039
T8C0.040
T9C0.043
T10C0.043
T11C0.047
T12C0.051
T13C0.059
T14C0.063
%
G90
G05
T1
X21447Y-17827
X21447Y-18378
X21447Y-26567
X21447Y-27118
X21447Y-36488
X21447Y-37039
X21447Y-45150
X21447Y-45701
X21841Y-17827
X21841Y-18378
X21841Y-26567
X21841Y-27118
X21841Y-36488
X21841Y-37039
X21841Y-45150
X21841Y-45701
X22156Y-18378
X22156Y-27118
X22156Y-37039
X22156Y-45701
X22235Y-17827
X22235Y-26567
X22235Y-36488
X22235Y-45150
X22392Y-18614
X22392Y-27354
X22392Y-37276
X22392Y-45937
X22668Y-18102
X22668Y-26843
X22668Y-36764
X22668Y-45425
X22746Y-18811
X22746Y-27551
X22746Y-37472
X22746Y-46134
X22983Y-18260
X22983Y-27000
X22983Y-36921
X22983Y-45583
X23031Y-46134
X23071Y-18811
X23071Y-27551
X23071Y-37441
X23455Y-16457
X23455Y-18102
X23455Y-25157
X23455Y-26843
X23455Y-35031
X23455Y-36764
X23455Y-43693
X23455Y-45425
X23543Y-19795
X23543Y-28543
X23543Y-38504
X23543Y-47118
X23770Y-35031
X23770Y-43693
X23780Y-16370
X23809Y-18496
X23809Y-19795
X23809Y-27236
X23809Y-28535
X23809Y-37157
X23809Y-38457
X23809Y-45819
X23809Y-47118
X23819Y-25118
X24085Y-16370
X24085Y-25110
X24085Y-35031
X24085Y-43693
X24124Y-19795
X24124Y-28535
X24124Y-38457
X24124Y-47118
X24243Y-18102
X24243Y-26843
X24243Y-36764
X24243Y-45425
X24331Y-16370
X24331Y-25110
X24400Y-35031
X24400Y-43693
X24479Y-19795
X24479Y-28535
X24479Y-38457
X24479Y-47118
X24597Y-17945
X24597Y-26685
X24597Y-36606
X24597Y-45268
X24754Y-17394
X24754Y-19323
X24754Y-26134
X24754Y-28063
X24754Y-36055
X24754Y-37984
X24754Y-44717
X24754Y-46646
X24794Y-19638
X24794Y-28378
X24794Y-38299
X24794Y-46961
X24991Y-17945
X24991Y-26685
X24991Y-36606
X24991Y-45268
X25109Y-16134
X25109Y-17394
X25109Y-24874
X25109Y-26134
X25109Y-34795
X25109Y-36055
X25109Y-43457
X25109Y-44717
X25345Y-17984
X25345Y-18260
X25345Y-26724
X25345Y-27000
X25345Y-36646
X25345Y-36921
X25345Y-45307
X25345Y-45583
X25463Y-17394
X25463Y-26134
X25463Y-36055
X25463Y-44717
X25739Y-17512
X25739Y-18102
X25739Y-26252
X25739Y-26843
X25739Y-36173
X25739Y-36764
X25739Y-44835
X25739Y-45425
X26132Y-17512
X26132Y-18102
X26132Y-26252
X26132Y-26843
X26132Y-36173
X26132Y-36764
X26132Y-44835
X26132Y-45425
X26526Y-17433
X26526Y-18220
X26526Y-26173
X26526Y-26961
X26526Y-36094
X26526Y-36882
X26526Y-44756
X26526Y-45543
X26841Y-17433
X26841Y-26173
X26841Y-36094
X26841Y-44756
X26920Y-18220
X26920Y-26961
X26920Y-36882
X26920Y-45543
X27191Y-17207
X27191Y-25947
X27191Y-35869
X27191Y-44530
X27195Y-15937
X27195Y-24677
X27195Y-34598
X27195Y-43260
X27391Y-17807
X27391Y-26547
X27391Y-36469
X27391Y-45130
X28239Y-17807
X28239Y-26547
X28239Y-36469
X28239Y-45130
X28494Y-17551
X28494Y-18063
X28494Y-26291
X28494Y-26803
X28494Y-36213
X28494Y-36724
X28494Y-44874
X28494Y-45386
X28888Y-17551
X28888Y-18063
X28888Y-26291
X28888Y-26803
X28888Y-36213
X28888Y-36724
X28888Y-44874
X28888Y-45386
X29243Y-44874
X29243Y-45386
X29252Y-26291
X29252Y-26803
X29252Y-36213
X29252Y-36724
X29282Y-17551
X29282Y-18063
X29597Y-17236
X29597Y-18378
X29597Y-25976
X29597Y-27118
X29597Y-35898
X29597Y-37039
X29597Y-44559
X29597Y-45701
X29991Y-17236
X29991Y-18378
X29991Y-25976
X29991Y-27118
X29991Y-35898
X29991Y-37039
X29991Y-44559
X29991Y-45701
X30306Y-17512
X30306Y-18339
X30306Y-26252
X30306Y-27079
X30306Y-36173
X30306Y-37000
X30306Y-44835
X30306Y-45661
X30620Y-17827
X30620Y-18496
X30620Y-26567
X30620Y-27236
X30620Y-36488
X30620Y-37157
X30620Y-45150
X30620Y-45819
X30896Y-16370
X30896Y-25110
X30896Y-35031
X30896Y-43693
X31014Y-17984
X31014Y-18496
X31014Y-26724
X31014Y-27236
X31014Y-36646
X31014Y-37157
X31014Y-45307
X31014Y-45819
X31184Y-44536
X31191Y-17407
X31191Y-26147
X31191Y-36069
X31391Y-18207
X31391Y-26947
X31391Y-36869
X31391Y-45530
X31998Y-18063
X31998Y-18417
X31998Y-26803
X31998Y-27157
X31998Y-36724
X31998Y-37079
X31998Y-45386
X31998Y-45740
X32353Y-17787
X32353Y-26528
X32353Y-36449
X32353Y-45110
X32746Y-17118
X32746Y-17630
X32746Y-25858
X32746Y-26370
X32746Y-35780
X32746Y-36291
X32746Y-44441
X32746Y-44953
X33258Y-17118
X33258Y-17630
X33258Y-25858
X33258Y-26370
X33258Y-35780
X33258Y-36291
X33258Y-44441
X33258Y-44953
X33494Y-17906
X33494Y-26646
X33494Y-36567
X33494Y-45228
X33573Y-17236
X33573Y-25976
X33573Y-35898
X33573Y-44559
X33770Y-18142
X33770Y-26882
X33770Y-36803
X33770Y-45465
X33888Y-17551
X33888Y-26291
X33888Y-36213
X33888Y-44874
X34164Y-17669
X34164Y-18142
X34164Y-26409
X34164Y-26882
X34164Y-36331
X34164Y-36803
X34164Y-44992
X34164Y-45465
X34557Y-17669
X34557Y-18142
X34557Y-26409
X34557Y-26882
X34557Y-36331
X34557Y-36803
X34557Y-44992
X34557Y-45465
X34991Y-17630
X34991Y-18181
X34991Y-26370
X34991Y-26921
X34991Y-36291
X34991Y-36843
X34991Y-44953
X34991Y-45504
X35384Y-17630
X35384Y-26370
X35384Y-36291
X35384Y-44953
X35958Y-18151
X35958Y-26891
X35958Y-36813
X35958Y-45474
X37077Y-18024
X37077Y-26764
X37077Y-36685
X37077Y-45346
X37953Y-17638
X37953Y-26378
X37953Y-36299
X37953Y-44961
X38110Y-18425
X38110Y-27165
X38110Y-37087
X38110Y-45748
X38425Y-17638
X38425Y-26378
X38425Y-36299
X38425Y-44961
X38583Y-18425
X38583Y-27165
X38583Y-37087
X38583Y-45748
X38819Y-17638
X38819Y-26378
X38819Y-36299
X38819Y-44961
X38976Y-18346
X38976Y-27087
X38976Y-37008
X38976Y-45669
X39213Y-17795
X39213Y-26535
X39213Y-36457
X39213Y-45118
X39370Y-18346
X39370Y-27087
X39370Y-37008
X39370Y-45669
X39685Y-17795
X39685Y-18583
X39685Y-26535
X39685Y-27323
X39685Y-36457
X39685Y-37244
X39685Y-45118
X39685Y-45906
X40079Y-18189
X40079Y-26929
X40079Y-36850
X40079Y-45512
X40394Y-18465
X40394Y-27205
X40394Y-37126
X40394Y-45787
X42756Y-44646
X42756Y-45197
X42835Y-26063
X42835Y-26614
X42835Y-35984
X42835Y-36535
X42913Y-17323
X42913Y-17874
X45039Y-44646
X45039Y-45197
X45118Y-26063
X45118Y-26614
X45118Y-35984
X45118Y-36535
X45197Y-17323
X45197Y-17874
X47008Y-44646
X47008Y-45197
X47087Y-26063
X47087Y-26614
X47087Y-35984
X47087Y-36535
X47165Y-17323
X47165Y-17874
X48976Y-44646
X48976Y-45197
X49055Y-26063
X49055Y-26614
X49055Y-35984
X49055Y-36535
X49134Y-17323
X49134Y-17874
X50630Y-26063
X50630Y-26614
X50630Y-35984
X50630Y-36535
X50669Y-44646
X50669Y-45197
X50827Y-17323
X50827Y-17874
X52913Y-44646
X52913Y-45197
X52992Y-26063
X52992Y-26614
X52992Y-35984
X52992Y-36535
X53071Y-17323
X53071Y-17874
X53622Y-43858
X53701Y-25276
X53701Y-35197
X53858Y-16535
X54646Y-45197
X54724Y-26614
X54724Y-36535
X54882Y-17874
X55168Y-44657
X55246Y-26075
X55246Y-35996
X55276Y-44362
X55323Y-48693
X55354Y-25780
X55354Y-35701
X55402Y-30110
X55402Y-40031
X55404Y-17335
X55441Y-44663
X55512Y-17039
X55520Y-26081
X55520Y-36002
X55559Y-21370
X55610Y-44382
X55678Y-17341
X55689Y-25800
X55689Y-35721
X55846Y-17060
X56447Y-44165
X56481Y-44491
X56513Y-45191
X56526Y-35504
X56560Y-25909
X56560Y-35830
X56575Y-25551
X56575Y-26929
X56592Y-26609
X56592Y-36530
X56717Y-17169
X56732Y-16811
X56732Y-18189
X56750Y-17869
X56772Y-45394
X56890Y-36732
X57333Y-46232
X57412Y-27650
X57412Y-37571
X57569Y-18909
X57661Y-45435
X57766Y-26914
X57778Y-36779
X57900Y-18251
X57924Y-46232
X58002Y-27650
X58002Y-37571
X58160Y-18909
X59449Y-44646
X59449Y-45394
X59528Y-26063
X59528Y-26811
X59528Y-35984
X59528Y-36732
X59685Y-17323
X59685Y-18071
X59843Y-44646
X59843Y-45394
X59902Y-56614
X59921Y-26063
X59921Y-26811
X59921Y-35984
X59921Y-36732
X60079Y-17323
X60079Y-18071
X60313Y-45191
X60392Y-26609
X60392Y-36530
X60550Y-17869
X60813Y-44891
X60892Y-26309
X60892Y-36230
X61050Y-17569
X61496Y-46575
X61496Y-47559
X61575Y-27992
X61575Y-28976
X61575Y-37913
X61575Y-38898
X61732Y-19252
X61732Y-20236
X61850Y-44646
X61929Y-26063
X61929Y-35984
X62087Y-17323
X62087Y-48150
X62165Y-29567
X62165Y-39488
X62323Y-20827
X62362Y-45157
X62362Y-45866
X62362Y-46575
X62441Y-26575
X62441Y-27283
X62441Y-27992
X62441Y-36496
X62441Y-37205
X62441Y-37913
X62598Y-17835
X62598Y-18543
X62598Y-19252
X63189Y-47244
X63189Y-47677
X63189Y-48189
X63268Y-28661
X63268Y-29094
X63268Y-29606
X63268Y-38583
X63268Y-39016
X63268Y-39528
X63425Y-19921
X63425Y-20354
X63425Y-20866
X85392Y-35943
X86573Y-37443
X90748Y-26850
X91024Y-46220
X91378Y-28346
X91457Y-26260
X91457Y-27402
X91654Y-45669
X91654Y-46772
X91654Y-47795
X92008Y-27717
X92008Y-29016
X92264Y-26398
X92283Y-47165
X92283Y-48425
X92421Y-45906
X92421Y-46535
X92638Y-27126
X92717Y-25354
X92756Y-44803
X92756Y-46614
X92835Y-46299
X93701Y-25906
X93701Y-27638
X93898Y-23898
X93937Y-42992
X94173Y-36457
X94252Y-43071
X94252Y-49291
X94291Y-23622
X94409Y-43622
X94449Y-24449
X94724Y-49921
X94803Y-35906
X94803Y-37008
X94882Y-23031
X95197Y-25276
X95197Y-28110
X95276Y-44724
X95276Y-47559
X95354Y-43071
X95354Y-49291
X95512Y-23661
X95551Y-29488
X95669Y-24724
X95748Y-44016
X95748Y-48189
X96181Y-28937
X96299Y-25276
X96299Y-28110
X96378Y-44724
X96378Y-47559
X96850Y-35669
X96850Y-37402
X97165Y-23622
X97244Y-49291
X97717Y-23071
X97717Y-49921
X98189Y-23622
X98268Y-49291
X100982Y-44447
T2
X24666Y-14861
X24666Y-23602
X24666Y-33523
X24666Y-42184
X24882Y-20551
X24882Y-29291
X24882Y-39213
X24882Y-47874
X26378Y-14646
X26378Y-23386
X26378Y-33307
X26378Y-41969
X26575Y-54724
X26614Y-20551
X26614Y-29291
X26614Y-39213
X26614Y-47874
X30630Y-14724
X30630Y-23465
X30630Y-33386
X30630Y-42047
X30791Y-21177
X30791Y-29917
X30791Y-39839
X30791Y-48500
X34213Y-53976
X34961Y-14646
X34961Y-23386
X34961Y-33307
X34961Y-41969
X35433Y-21181
X35433Y-29921
X35433Y-39843
X35433Y-48504
X38728Y-68898
X39528Y-14646
X39528Y-23386
X39528Y-33307
X39528Y-41969
X39685Y-21181
X39685Y-29921
X39685Y-39843
X39685Y-48504
X40551Y-53937
X41142Y-68898
X54693Y-49323
X54772Y-30740
X54772Y-40661
X54930Y-22000
X55145Y-43806
X55262Y-25197
X55262Y-35118
X55419Y-16457
X57244Y-42585
X57323Y-24094
X57323Y-34016
X57480Y-15354
X57489Y-30110
X57489Y-40031
X57491Y-48612
X57646Y-21370
X60551Y-43634
X60630Y-25118
X60630Y-35039
X60787Y-16378
X63711Y-42530
X63780Y-23937
X63780Y-33858
X63937Y-15197
X67165Y-46929
X67244Y-28346
X67244Y-38268
X67402Y-19606
X67481Y-47459
X67559Y-28876
X67559Y-38797
X67717Y-20136
X87008Y-33465
X95827Y-36457
X98445Y-24390
X102492Y-26720
X102594Y-24720
X102657Y-42382
X102972Y-35926
X103547Y-27720
X104075Y-23484
T3
X19370Y-16535
X19370Y-17638
X19370Y-18583
X19370Y-19685
X19370Y-25276
X19370Y-26378
X19370Y-27323
X19370Y-28425
X19370Y-35197
X19370Y-36299
X19370Y-37244
X19370Y-38346
X19370Y-43858
X19370Y-44961
X19370Y-45906
X19370Y-47008
X20551Y-16535
X20551Y-20000
X20551Y-25276
X20551Y-28740
X20551Y-35197
X20551Y-38661
X20551Y-43858
X20551Y-47323
X20945Y-13189
X20945Y-22244
X20945Y-30709
X20945Y-32480
X20945Y-40945
X20945Y-49606
X21417Y-16535
X21417Y-20000
X21417Y-25276
X21417Y-28740
X21417Y-35197
X21417Y-38661
X21417Y-43858
X21417Y-47323
X22520Y-16535
X22520Y-17559
X22520Y-19685
X22520Y-25276
X22520Y-26299
X22520Y-28425
X22520Y-35197
X22520Y-36220
X22520Y-38346
X22520Y-43858
X22520Y-44882
X22520Y-47008
X23819Y-10157
X24213Y-71260
X24882Y-13189
X24882Y-22244
X24882Y-30709
X24882Y-32480
X24882Y-40945
X24882Y-49606
X25581Y-19165
X25581Y-27906
X25581Y-37827
X25581Y-46488
X25620Y-16803
X25620Y-25543
X25620Y-35465
X25620Y-44126
X26378Y-61575
X26575Y-60039
X26575Y-61024
X26802Y-37984
X26802Y-46646
X27362Y-59843
X27362Y-60433
X27431Y-19835
X27431Y-28575
X27431Y-38496
X27431Y-47157
X27628Y-15819
X27628Y-24559
X27628Y-34480
X27628Y-43142
X27756Y-10157
X28022Y-19835
X28022Y-28575
X28022Y-38496
X28022Y-47157
X28140Y-15819
X28140Y-24559
X28140Y-34480
X28140Y-43142
X28150Y-71260
X28731Y-19638
X28731Y-28378
X28731Y-38299
X28731Y-46961
X28819Y-13189
X28819Y-22244
X28819Y-30709
X28819Y-32480
X28819Y-40945
X28819Y-49606
X28937Y-59843
X28937Y-60433
X29085Y-17276
X29085Y-26016
X29085Y-35937
X29085Y-44598
X29361Y-16370
X29361Y-25110
X29361Y-35031
X29361Y-43693
X29370Y-62638
X29518Y-16882
X29518Y-19205
X29518Y-25622
X29518Y-27945
X29518Y-35543
X29518Y-37866
X29518Y-44205
X29518Y-46528
X30975Y-19323
X30975Y-28063
X30975Y-37984
X30975Y-46646
X31496Y-59449
X31496Y-62008
X31565Y-15780
X31565Y-24520
X31565Y-34441
X31565Y-43102
X31644Y-19835
X31644Y-28575
X31644Y-38496
X31644Y-47157
X31693Y-10157
X32077Y-15780
X32077Y-24520
X32077Y-34441
X32077Y-43102
X32087Y-71260
X32195Y-19835
X32195Y-28575
X32195Y-38496
X32195Y-47157
X32283Y-60236
X32756Y-13189
X32756Y-22244
X32756Y-30709
X32756Y-32480
X32756Y-40945
X32756Y-49606
X32983Y-15780
X32983Y-24520
X32983Y-34441
X32983Y-43102
X33022Y-19520
X33022Y-28260
X33022Y-38181
X33022Y-46843
X33071Y-62992
X33071Y-64961
X33071Y-66929
X33691Y-19008
X33691Y-27748
X33691Y-37669
X33691Y-46331
X33770Y-16606
X33770Y-25346
X33770Y-35268
X33770Y-43929
X35039Y-62992
X35039Y-64961
X35039Y-66929
X35039Y-68898
X35433Y-59055
X35630Y-10157
X36024Y-71260
X36132Y-15976
X36132Y-24717
X36132Y-34638
X36132Y-43299
X36172Y-20071
X36172Y-28811
X36172Y-38732
X36172Y-47394
X36683Y-15976
X36683Y-24717
X36683Y-34638
X36683Y-43299
X36693Y-13189
X36693Y-22244
X36693Y-30709
X36693Y-32480
X36693Y-40945
X36693Y-49606
X36802Y-20071
X36802Y-28811
X36802Y-38732
X36802Y-47394
X37008Y-62992
X37008Y-64961
X37008Y-66929
X37402Y-59055
X37668Y-19677
X37668Y-28417
X37668Y-38339
X37668Y-47000
X38180Y-16724
X38180Y-25465
X38180Y-35386
X38180Y-44047
X38189Y-58071
X38189Y-59252
X38258Y-19205
X38258Y-27945
X38258Y-37866
X38258Y-46528
X39370Y-58071
X39370Y-59252
X39370Y-64961
X39567Y-10157
X39685Y-16535
X39685Y-25276
X39685Y-35197
X39685Y-43858
X39921Y-19528
X39921Y-28268
X39921Y-38189
X39921Y-46850
X39961Y-71260
X40315Y-15984
X40315Y-24724
X40315Y-34646
X40315Y-43307
X40630Y-13189
X40630Y-20000
X40630Y-22244
X40630Y-28740
X40630Y-30709
X40630Y-32480
X40630Y-38661
X40630Y-40945
X40630Y-47323
X40630Y-49606
X40945Y-15984
X40945Y-24724
X40945Y-34646
X40945Y-43307
X41260Y-20000
X41260Y-28740
X41260Y-38661
X41260Y-47323
X41339Y-59055
X41339Y-61024
X41339Y-64961
X41339Y-67913
X42126Y-15906
X42126Y-34646
X42126Y-43307
X42126Y-62205
X42126Y-64173
X42205Y-24724
X42441Y-13228
X42598Y-45591
X42677Y-16850
X42677Y-18268
X42677Y-25591
X42677Y-35512
X42677Y-44173
X42717Y-26969
X42756Y-19291
X42756Y-28031
X42756Y-37953
X42756Y-46614
X42835Y-37008
X43307Y-61024
X43307Y-62598
X43307Y-63780
X43307Y-64961
X43307Y-67913
X43307Y-69488
X43504Y-10157
X43898Y-71260
X45118Y-18268
X45118Y-19291
X45118Y-20315
X45118Y-21331
X45118Y-27087
X45118Y-28110
X45118Y-29134
X45118Y-30150
X45118Y-37008
X45118Y-38031
X45118Y-39055
X45118Y-40071
X45118Y-45669
X45118Y-46693
X45118Y-47717
X45118Y-48732
X46063Y-18268
X46063Y-27087
X46063Y-37008
X46063Y-45669
X46093Y-21331
X46093Y-30150
X46093Y-40071
X46093Y-48732
X46496Y-42598
X46535Y-15276
X46575Y-23701
X47038Y-21331
X47038Y-30150
X47038Y-40071
X47038Y-48732
X47165Y-18268
X47165Y-27087
X47165Y-37008
X47165Y-45669
X47441Y-10157
X47835Y-71260
X48101Y-19323
X48101Y-20268
X48101Y-21331
X48101Y-28142
X48101Y-29087
X48101Y-30150
X48101Y-38063
X48101Y-39008
X48101Y-40071
X48101Y-46724
X48101Y-47669
X48101Y-48732
X48110Y-18268
X48110Y-27087
X48110Y-37008
X48110Y-45669
X48346Y-13228
X48346Y-60709
X48425Y-65039
X48898Y-54016
X49291Y-60000
X49291Y-64331
X49567Y-47244
X49606Y-69488
X49646Y-38661
X49646Y-42598
X49724Y-19764
X49724Y-23701
X49724Y-28583
X49724Y-32520
X50079Y-60000
X50079Y-64331
X50866Y-59134
X50866Y-63543
X51378Y-10157
X51654Y-59134
X51654Y-63543
X51732Y-48988
X51764Y-47746
X51764Y-46663
X51772Y-71260
X51802Y-30406
X51802Y-40327
X51843Y-29163
X51843Y-39084
X51843Y-28080
X51843Y-38002
X51959Y-21665
X52000Y-20423
X52000Y-19340
X52362Y-64331
X52412Y-49776
X52491Y-31193
X52491Y-41114
X52520Y-60079
X52648Y-22453
X52846Y-46663
X52925Y-28080
X52925Y-38002
X53083Y-19340
X53543Y-69488
X53691Y-47610
X53770Y-29028
X53770Y-38949
X53780Y-54094
X53928Y-20287
X54252Y-13228
X54803Y-65039
X55069Y-43181
X55148Y-24598
X55148Y-34520
X55306Y-15858
X55315Y-10157
X55345Y-49598
X55424Y-31016
X55424Y-40937
X55581Y-22276
X55581Y-42492
X55591Y-23937
X55591Y-33858
X55709Y-71260
X55748Y-15197
X56369Y-42492
X56378Y-23909
X56378Y-33831
X56428Y-49894
X56506Y-31311
X56506Y-41232
X56535Y-15169
X56664Y-22571
X57480Y-69488
X57510Y-49303
X57589Y-30720
X57589Y-40642
X57746Y-21980
X57825Y-42492
X57825Y-46626
X57904Y-23909
X57904Y-28043
X57904Y-33831
X57904Y-37965
X58061Y-15169
X58061Y-19303
X58219Y-49382
X58298Y-40720
X58346Y-30866
X58455Y-22138
X58908Y-48791
X58908Y-49972
X58976Y-30236
X58976Y-31496
X58987Y-40130
X58987Y-41311
X59006Y-44461
X59006Y-45543
X59006Y-46528
X59055Y-43228
X59085Y-25878
X59085Y-26961
X59085Y-27945
X59085Y-35799
X59085Y-36882
X59085Y-37866
X59094Y-34488
X59144Y-21547
X59144Y-22728
X59213Y-24567
X59243Y-17138
X59243Y-18220
X59243Y-19205
X59252Y-10157
X59252Y-15858
X59400Y-47118
X59479Y-28535
X59479Y-38457
X59636Y-19795
X59646Y-71260
X59695Y-46260
X59774Y-27638
X59774Y-37559
X59794Y-42984
X59872Y-34323
X59921Y-24409
X59931Y-18898
X60030Y-15661
X60157Y-13228
X60286Y-42394
X60315Y-46811
X60365Y-23811
X60365Y-33732
X60394Y-28189
X60394Y-38110
X60522Y-15071
X60551Y-19449
X60709Y-54016
X60827Y-46614
X60876Y-42984
X60906Y-27992
X60906Y-37913
X60955Y-24402
X60955Y-34323
X61063Y-19252
X61113Y-15661
X61369Y-45945
X61417Y-69488
X61447Y-27323
X61447Y-37244
X61605Y-18583
X61762Y-43575
X61841Y-24992
X61841Y-34913
X61998Y-16252
X62353Y-42492
X62353Y-44657
X62431Y-23909
X62431Y-26075
X62431Y-33831
X62431Y-35996
X62589Y-15169
X62589Y-17335
X63189Y-10157
X63543Y-45827
X63583Y-37165
X63583Y-71260
X63740Y-18504
X64321Y-42295
X64400Y-23713
X64400Y-33634
X64557Y-14972
X64764Y-27165
X64803Y-45827
X64813Y-48988
X64892Y-30406
X64892Y-40327
X64912Y-46331
X64961Y-56102
X64961Y-57087
X64991Y-27748
X64991Y-37669
X65000Y-35591
X65010Y-43378
X65050Y-21665
X65089Y-24795
X65089Y-34717
X65118Y-44291
X65148Y-19008
X65157Y-16969
X65246Y-16055
X65433Y-18504
X65551Y-69488
X65601Y-48496
X65680Y-29913
X65680Y-39835
X65748Y-37087
X65827Y-25630
X65837Y-21173
X66063Y-13228
X66102Y-45787
X66260Y-16850
X66575Y-35630
X66575Y-44291
X66614Y-54016
X66654Y-24213
X66969Y-18386
X67087Y-22835
X67126Y-10157
X67176Y-46331
X67254Y-27748
X67254Y-37669
X67323Y-37126
X67344Y-45769
X67412Y-19008
X67441Y-27244
X67464Y-15591
X67520Y-71260
X67559Y-25512
X67594Y-43196
X67717Y-59921
X67795Y-47008
X67874Y-38346
X67953Y-28386
X67953Y-65827
X68031Y-19685
X68071Y-17323
X68110Y-23937
X68189Y-35591
X68268Y-33504
X68386Y-22480
X68465Y-27913
X68701Y-32283
X68736Y-44377
X68740Y-26457
X68856Y-14199
X68937Y-34646
X69094Y-36890
X69094Y-41732
X69134Y-16220
X69252Y-24921
X69291Y-69488
X69409Y-22874
X69606Y-19685
X69606Y-21378
X69646Y-35354
X69764Y-27520
X69843Y-33386
X69921Y-16299
X70118Y-31850
X70197Y-26181
X70197Y-37638
X70236Y-42913
X70248Y-12807
X70276Y-24409
X70315Y-14961
X70433Y-18031
X70472Y-36142
X70512Y-40276
X70551Y-32087
X70591Y-34055
X71063Y-10157
X71102Y-19488
X71181Y-20827
X71260Y-22362
X71260Y-24291
X71260Y-26260
X71260Y-28346
X71260Y-30433
X71260Y-32598
X71260Y-34764
X71417Y-15984
X71457Y-37244
X71457Y-71260
X71654Y-14488
X71654Y-41457
X71772Y-12756
X71969Y-38780
X72008Y-20433
X72008Y-33976
X72008Y-36063
X72520Y-18976
X72520Y-54016
X72520Y-59921
X72520Y-65827
X72531Y-21052
X72717Y-16929
X72953Y-25039
X72953Y-27008
X72953Y-29094
X72953Y-31181
X72953Y-33346
X72953Y-35472
X72953Y-37559
X73031Y-23031
X73110Y-39961
X73228Y-69488
X73465Y-12441
X73465Y-13780
X73583Y-15236
X73858Y-18307
X73923Y-19660
X74173Y-16772
X74567Y-21457
X74724Y-25551
X74724Y-27520
X74724Y-29606
X74724Y-31654
X74724Y-33740
X74724Y-35787
X74724Y-38307
X74725Y-23623
X74882Y-13465
X74882Y-14803
X74921Y-11969
X75000Y-10157
X75315Y-18268
X75394Y-55709
X75394Y-57677
X75394Y-59646
X75394Y-61614
X75394Y-63583
X75394Y-65748
X75394Y-67717
X75394Y-69488
X75394Y-71260
X76063Y-19921
X76299Y-15236
X76339Y-12441
X76339Y-13780
X76496Y-21850
X76535Y-17087
X77047Y-28110
X77047Y-29134
X77047Y-30157
X77047Y-31173
X77087Y-22362
X77087Y-23386
X77087Y-24409
X77087Y-25425
X77087Y-41811
X77087Y-42835
X77087Y-43858
X77087Y-44874
X77087Y-47559
X77087Y-48583
X77087Y-49606
X77087Y-50622
X77283Y-18740
X77756Y-13465
X77756Y-14803
X77795Y-11969
X77953Y-62992
X77953Y-64567
X77992Y-28110
X78022Y-31173
X78031Y-20394
X78031Y-22362
X78031Y-41811
X78031Y-47559
X78061Y-25425
X78061Y-44874
X78061Y-50622
X78346Y-54016
X78661Y-16850
X78937Y-10157
X78967Y-31173
X79006Y-25425
X79006Y-44874
X79006Y-50622
X79094Y-28110
X79134Y-22362
X79134Y-41811
X79134Y-47559
X79173Y-15236
X79213Y-12441
X79213Y-13780
X79291Y-18701
X79331Y-55709
X79331Y-57677
X79331Y-59646
X79331Y-65748
X79331Y-67717
X79331Y-69488
X79331Y-71260
X79528Y-62992
X79528Y-64567
X80000Y-20394
X80030Y-29165
X80030Y-30110
X80030Y-31173
X80039Y-28110
X80069Y-23417
X80069Y-24362
X80069Y-25425
X80069Y-42866
X80069Y-43811
X80069Y-44874
X80069Y-48614
X80069Y-49559
X80069Y-50622
X80079Y-22362
X80079Y-41811
X80079Y-47559
X80630Y-13465
X80630Y-14803
X80630Y-16850
X80669Y-11969
X81047Y-35772
X81047Y-37772
X81260Y-18701
X81969Y-20394
X82047Y-12441
X82047Y-13780
X82047Y-15236
X82047Y-35772
X82047Y-37772
X82205Y-23071
X82205Y-28937
X82205Y-48110
X82283Y-42520
X82598Y-16850
X82874Y-10157
X83047Y-35772
X83047Y-37772
X83228Y-18701
X83228Y-22913
X83228Y-28701
X83228Y-48110
X83268Y-55709
X83268Y-57677
X83268Y-59646
X83268Y-63583
X83268Y-65748
X83268Y-67717
X83268Y-69488
X83268Y-71260
X83307Y-42362
X83465Y-13465
X83465Y-14803
X83543Y-11969
X83858Y-38425
X83937Y-20394
X84252Y-54016
X84567Y-16850
X84764Y-23268
X84803Y-39213
X84882Y-29055
X84921Y-12441
X84921Y-13780
X84921Y-15236
X84961Y-42717
X84961Y-48465
X85039Y-22402
X85039Y-24449
X85039Y-25465
X85079Y-28150
X85079Y-30197
X85079Y-31213
X85157Y-41811
X85157Y-43858
X85157Y-44874
X85157Y-47559
X85157Y-49606
X85157Y-50622
X85197Y-18701
X85906Y-20394
X85984Y-22402
X86014Y-25465
X86024Y-28150
X86054Y-31213
X86102Y-41811
X86102Y-47559
X86132Y-44874
X86132Y-50622
X86339Y-11969
X86339Y-13465
X86339Y-14803
X86535Y-16850
X86811Y-10157
X86811Y-64567
X86811Y-65748
X86959Y-25465
X86998Y-31213
X87077Y-44874
X87077Y-50622
X87087Y-22402
X87126Y-28150
X87165Y-18701
X87205Y-41811
X87205Y-47559
X87205Y-55709
X87205Y-57677
X87205Y-67717
X87205Y-69488
X87205Y-71260
X87717Y-33228
X87795Y-12520
X87795Y-13780
X87874Y-15276
X87874Y-20394
X87992Y-64567
X87992Y-65748
X88022Y-25465
X88031Y-22402
X88061Y-31213
X88071Y-28150
X88140Y-44874
X88140Y-50622
X88150Y-41811
X88150Y-47559
X88504Y-16850
X88504Y-33937
X88583Y-23268
X88583Y-24567
X88583Y-29016
X88583Y-30276
X88661Y-42677
X88661Y-43937
X88661Y-48425
X88661Y-49685
X89055Y-14803
X89134Y-18701
X89213Y-11929
X89213Y-13543
X89843Y-20394
X89961Y-59646
X89961Y-60827
X90079Y-23268
X90079Y-24567
X90079Y-29016
X90079Y-30276
X90157Y-42677
X90157Y-43937
X90157Y-48425
X90157Y-49685
X90157Y-54016
X90315Y-14409
X90472Y-15197
X90472Y-16850
X90748Y-10157
X90984Y-12835
X91102Y-18701
X91142Y-55709
X91142Y-59646
X91142Y-60827
X91142Y-71260
X91575Y-23268
X91575Y-24567
X91575Y-29016
X91575Y-30276
X91654Y-42677
X91654Y-43937
X91654Y-48425
X91654Y-49685
X91811Y-20394
X92283Y-14409
X92362Y-24882
X92441Y-15197
X92441Y-16772
X92520Y-44252
X92953Y-12835
X92992Y-30197
X92992Y-49528
X93071Y-18701
X93150Y-23661
X93228Y-43071
X93780Y-14409
X93780Y-20394
X93898Y-61614
X93898Y-62205
X93937Y-28937
X94016Y-48346
X94173Y-45354
X94173Y-47087
X94409Y-16772
X94646Y-14882
X94685Y-10157
X94685Y-60827
X94685Y-62992
X95039Y-18583
X95079Y-55709
X95079Y-57677
X95079Y-59646
X95079Y-61614
X95079Y-63583
X95079Y-65748
X95079Y-67717
X95079Y-69488
X95079Y-71260
X95197Y-12835
X95472Y-60827
X95472Y-62992
X95748Y-14409
X95748Y-20394
X95748Y-35039
X96063Y-54016
X96378Y-16772
X96457Y-34567
X96457Y-38819
X96457Y-61614
X96457Y-62205
X96535Y-41496
X96614Y-14882
X96614Y-31339
X96929Y-34094
X97008Y-18583
X97244Y-37323
X97244Y-39528
X97323Y-12835
X97323Y-35669
X97717Y-20394
X97717Y-33386
X98031Y-38819
X98425Y-13898
X98504Y-34094
X98622Y-10157
X99016Y-55709
X99016Y-57677
X99016Y-59646
X99016Y-61614
X99016Y-63583
X99016Y-65748
X99016Y-67717
X99016Y-69488
X99016Y-71260
X99291Y-19646
X99409Y-14094
X99606Y-46929
X100000Y-34252
X100000Y-38583
X100433Y-14606
X100472Y-37874
X100512Y-19370
X100551Y-34961
X100709Y-29134
X100945Y-15984
X100984Y-16969
X100984Y-17913
X101102Y-27717
X101102Y-42756
X101181Y-46929
X101260Y-43386
X101614Y-30315
X101614Y-31339
X101614Y-32362
X101614Y-33378
X101890Y-42047
X101890Y-43543
X101969Y-28346
X101969Y-54016
X102047Y-11654
X102047Y-12913
X102047Y-20709
X102047Y-21969
X102402Y-30039
X102441Y-23937
X102589Y-33378
X102756Y-59252
X102756Y-60827
X102953Y-55709
X102953Y-61614
X102953Y-63583
X102953Y-65748
X102953Y-67717
X102953Y-69685
X102992Y-38031
X103307Y-11654
X103307Y-21969
X103307Y-23150
X103534Y-33378
X103661Y-30039
X103701Y-37165
X104331Y-59252
X104331Y-60827
X104597Y-31370
X104597Y-32315
X104597Y-33378
X104606Y-30315
T4
X15732Y-56874
X15748Y-52126
X15748Y-61614
X15748Y-66323
X16732Y-55874
X16732Y-57874
X16748Y-51126
X16748Y-53126
X16748Y-60614
X16748Y-62614
X16748Y-65323
X16748Y-67323
X22835Y-63780
X22835Y-65157
X30709Y-66339
X30709Y-67126
X52307Y-47142
X52465Y-28638
X52465Y-38559
X52622Y-19921
X53307Y-46142
X53465Y-27638
X53465Y-37559
X53622Y-18921
X53972Y-63976
X53972Y-65945
X54016Y-59646
X54016Y-61614
X54307Y-47142
X54465Y-28638
X54465Y-38559
X54622Y-19921
X57559Y-59646
X57559Y-61614
X57559Y-63976
X57559Y-65945
X66782Y-48201
X66874Y-29630
X66874Y-39551
X67008Y-20890
X67782Y-49201
X67874Y-30630
X67874Y-40551
X68008Y-21890
X68782Y-48201
X68874Y-29630
X68874Y-39551
X69008Y-20890
X87402Y-63780
X87402Y-65157
X94717Y-25244
X94717Y-26244
X94717Y-27244
X94717Y-28244
X94761Y-44655
X94761Y-45655
X94761Y-46655
X94761Y-47655
X97717Y-25244
X97717Y-26244
X97717Y-27244
X97717Y-28244
X97761Y-44655
X97761Y-45655
X97761Y-46655
X97761Y-47655
X98948Y-34905
X98948Y-35905
X98948Y-36905
X98948Y-37905
X100417Y-40394
X101417Y-41394
X101948Y-34905
X101948Y-35905
X101948Y-36905
X101948Y-37905
X102134Y-67110
X102134Y-68110
X102134Y-69110
X102417Y-40394
T5
X99236Y-15022
X99236Y-16022
X99236Y-17022
X99236Y-18022
X100236Y-15522
X100236Y-16522
X100236Y-17522
X100236Y-18522
T6
X24213Y-53189
X25213Y-53189
X28165Y-60083
X28165Y-61083
X28165Y-62083
X28165Y-64083
X28165Y-65083
X28165Y-66083
X28165Y-67083
X31231Y-53180
X32231Y-53180
X37504Y-53150
X38504Y-53150
T7
X19945Y-17110
X19945Y-19110
X19945Y-25850
X19945Y-27850
X19945Y-35772
X19945Y-37772
X19945Y-44433
X19945Y-46433
X20945Y-18110
X20945Y-26850
X20945Y-36772
X20945Y-45433
X21945Y-17110
X21945Y-19110
X21945Y-25850
X21945Y-27850
X21945Y-35772
X21945Y-37772
X21945Y-44433
X21945Y-46433
X22126Y-31654
X22756Y-57638
X24724Y-51102
X31732Y-51102
X33858Y-60630
X35433Y-60630
X38031Y-51102
X38780Y-58661
X38780Y-60630
X45614Y-18843
X45614Y-20843
X45614Y-27583
X45614Y-29583
X45614Y-37583
X45614Y-39583
X45614Y-46165
X45614Y-48165
X46614Y-19843
X46614Y-28583
X46614Y-38583
X46614Y-47165
X46693Y-33543
X47614Y-18843
X47614Y-20843
X47614Y-27583
X47614Y-29583
X47614Y-37583
X47614Y-39583
X47614Y-46165
X47614Y-48165
X47953Y-56378
X48228Y-66535
X48425Y-62402
X70630Y-49843
X77528Y-22882
X77528Y-24882
X77528Y-28622
X77528Y-30622
X77583Y-42307
X77583Y-44307
X77583Y-48055
X77583Y-50055
X78528Y-23882
X78528Y-29622
X78583Y-43307
X78583Y-49055
X79528Y-22882
X79528Y-24882
X79528Y-28622
X79528Y-30622
X79583Y-42307
X79583Y-44307
X79583Y-48055
X79583Y-50055
X82205Y-23858
X82205Y-29646
X82228Y-49055
X82283Y-43307
X83205Y-23858
X83205Y-29646
X83228Y-49055
X83283Y-43307
X85512Y-22913
X85512Y-24913
X85535Y-28646
X85535Y-30646
X85614Y-42307
X85614Y-44307
X85614Y-48055
X85614Y-50055
X86512Y-23913
X86535Y-29646
X86614Y-43307
X86614Y-49055
X87512Y-22913
X87512Y-24913
X87535Y-28646
X87535Y-30646
X87614Y-42307
X87614Y-44307
X87614Y-48055
X87614Y-50055
X90551Y-60236
X90630Y-36614
X92520Y-60236
X95118Y-42047
X95142Y-30787
X96118Y-42047
X96142Y-30787
X97008Y-56693
X97118Y-42047
X97142Y-30787
X97717Y-21890
X100157Y-27740
X100157Y-28740
X100157Y-29740
X101181Y-60039
X102094Y-30835
X102094Y-32835
X103094Y-31835
X103543Y-60039
X104094Y-30835
X104094Y-32835
X109134Y-24567
X109134Y-25567
T8
X70803Y-58795
X70803Y-62795
X70803Y-66795
X78803Y-61795
X78803Y-63795
T9
X13780Y-51346
X13780Y-52346
X13780Y-53346
X13780Y-54346
X13780Y-56087
X13780Y-57087
X13780Y-58087
X13780Y-59087
X13844Y-60833
X13844Y-61833
X13844Y-62833
X13844Y-63833
X13844Y-65583
X13844Y-66583
X13844Y-67583
X13844Y-68583
T10
X33795Y-68898
X37795Y-68898
T11
X102362Y-58189
T12
X86417Y-60039
X88386Y-60039
X91169Y-64764
X100669Y-64764
T13
X38780Y-63189
X38780Y-66299
T14
X60709Y-60276
X60709Y-65394
X63268Y-60276
X63268Y-65394
X104185Y-13722
X104185Y-19821
T0
M30
