<?xml version="1.0" standalone="no"?>
 <!DOCTYPE svg PUBLIC "-//W3C//DTD SVG 1.1//EN" 
 "http://www.w3.org/Graphics/SVG/1.1/DTD/svg11.dtd"> 
<svg xmlns="http://www.w3.org/2000/svg" version="1.1" 
    width="29.7002cm" height="24.0005cm" viewBox="0 0 116930 94490 ">
<title>SVG Picture created as pmt_driver-Edge.Cuts.svg date 2017/11/13 10:11:17 </title>
  <desc>Picture generated by PCBNEW </desc>
<g style="fill:#000000; fill-opacity:1;stroke:#000000; stroke-opacity:1;
stroke-linecap:round; stroke-linejoin:round; "
 transform="translate(0 0) scale(1 1)">
</g>
<g style="fill:#000000; fill-opacity:0.0; 
stroke:#000000; stroke-width:-0.000393701; stroke-opacity:1; 
stroke-linecap:round; stroke-linejoin:round;">
</g>
<g style="fill:#000000; fill-opacity:0.0; 
stroke:#000000; stroke-width:39.3701; stroke-opacity:1; 
stroke-linecap:round; stroke-linejoin:round;">
</g>
<g style="fill:#000000; fill-opacity:0.0; 
stroke:#000000; stroke-width:59.0551; stroke-opacity:1; 
stroke-linecap:round; stroke-linejoin:round;">
<rect x="69685.9" y="77167.2" width="42519.7" height="12598.4" rx="0" />
</g>
<g style="fill:#000000; fill-opacity:0.0; 
stroke:#000000; stroke-width:39.3701; stroke-opacity:1; 
stroke-linecap:round; stroke-linejoin:round;">
</g>
<g style="fill:#000000; fill-opacity:0.0; 
stroke:#000000; stroke-width:59.0551; stroke-opacity:1; 
stroke-linecap:round; stroke-linejoin:round;">
<rect x="3937.01" y="3937.01" width="109056" height="86616" rx="0" />
</g>
<g style="fill:#000000; fill-opacity:0.0; 
stroke:#000000; stroke-width:39.3701; stroke-opacity:1; 
stroke-linecap:round; stroke-linejoin:round;">
</g>
<g style="fill:#000000; fill-opacity:0.0; 
stroke:#000000; stroke-width:59.0551; stroke-opacity:1; 
stroke-linecap:round; stroke-linejoin:round;">
<rect x="4724.41" y="4724.41" width="107481" height="85041.2" rx="0" />
</g>
<g style="fill:#000000; fill-opacity:0.0; 
stroke:#000000; stroke-width:39.3701; stroke-opacity:1; 
stroke-linecap:round; stroke-linejoin:round;">
</g>
<g style="fill:#000000; fill-opacity:0.0; 
stroke:#000000; stroke-width:59.0551; stroke-opacity:1; 
stroke-linecap:round; stroke-linejoin:round;">
<path d="M23622 4724
L23622 3937
" />
</g>
<g style="fill:#000000; fill-opacity:0.0; 
stroke:#000000; stroke-width:39.3701; stroke-opacity:1; 
stroke-linecap:round; stroke-linejoin:round;">
</g>
<g style="fill:#000000; fill-opacity:0.0; 
stroke:#000000; stroke-width:59.0551; stroke-opacity:1; 
stroke-linecap:round; stroke-linejoin:round;">
<path d="M43307 4724
L43307 3937
" />
</g>
<g style="fill:#000000; fill-opacity:0.0; 
stroke:#000000; stroke-width:39.3701; stroke-opacity:1; 
stroke-linecap:round; stroke-linejoin:round;">
</g>
<g style="fill:#000000; fill-opacity:0.0; 
stroke:#000000; stroke-width:59.0551; stroke-opacity:1; 
stroke-linecap:round; stroke-linejoin:round;">
<path d="M62992 4724
L62992 3937
" />
</g>
<g style="fill:#000000; fill-opacity:0.0; 
stroke:#000000; stroke-width:39.3701; stroke-opacity:1; 
stroke-linecap:round; stroke-linejoin:round;">
</g>
<g style="fill:#000000; fill-opacity:0.0; 
stroke:#000000; stroke-width:59.0551; stroke-opacity:1; 
stroke-linecap:round; stroke-linejoin:round;">
<path d="M82677 4724
L82677 3937
" />
</g>
<g style="fill:#000000; fill-opacity:0.0; 
stroke:#000000; stroke-width:39.3701; stroke-opacity:1; 
stroke-linecap:round; stroke-linejoin:round;">
</g>
<g style="fill:#000000; fill-opacity:0.0; 
stroke:#000000; stroke-width:59.0551; stroke-opacity:1; 
stroke-linecap:round; stroke-linejoin:round;">
<path d="M102362 4724
L102362 3937
" />
</g>
<g style="fill:#000000; fill-opacity:0.0; 
stroke:#000000; stroke-width:39.3701; stroke-opacity:1; 
stroke-linecap:round; stroke-linejoin:round;">
</g>
<g style="fill:#000000; fill-opacity:0.0; 
stroke:#000000; stroke-width:59.0551; stroke-opacity:1; 
stroke-linecap:round; stroke-linejoin:round;">
<path d="M14169 4562
L13877 4562
" />
<path d="M14023 4562
L14023 4050
L13974 4123
L13925 4172
L13877 4196
" />
</g>
<g style="fill:#000000; fill-opacity:0.0; 
stroke:#000000; stroke-width:39.3701; stroke-opacity:1; 
stroke-linecap:round; stroke-linejoin:round;">
</g>
<g style="fill:#000000; fill-opacity:0.0; 
stroke:#000000; stroke-width:59.0551; stroke-opacity:1; 
stroke-linecap:round; stroke-linejoin:round;">
<path d="M33562 4099
L33586 4074
L33635 4050
L33757 4050
L33805 4074
L33830 4099
L33854 4147
L33854 4196
L33830 4269
L33537 4562
L33854 4562
" />
</g>
<g style="fill:#000000; fill-opacity:0.0; 
stroke:#000000; stroke-width:39.3701; stroke-opacity:1; 
stroke-linecap:round; stroke-linejoin:round;">
</g>
<g style="fill:#000000; fill-opacity:0.0; 
stroke:#000000; stroke-width:59.0551; stroke-opacity:1; 
stroke-linecap:round; stroke-linejoin:round;">
<path d="M53222 4050
L53539 4050
L53368 4245
L53442 4245
L53490 4269
L53515 4294
L53539 4342
L53539 4464
L53515 4513
L53490 4537
L53442 4562
L53295 4562
L53247 4537
L53222 4513
" />
</g>
<g style="fill:#000000; fill-opacity:0.0; 
stroke:#000000; stroke-width:39.3701; stroke-opacity:1; 
stroke-linecap:round; stroke-linejoin:round;">
</g>
<g style="fill:#000000; fill-opacity:0.0; 
stroke:#000000; stroke-width:59.0551; stroke-opacity:1; 
stroke-linecap:round; stroke-linejoin:round;">
<path d="M73175 4221
L73175 4562
" />
<path d="M73053 4026
L72932 4391
L73248 4391
" />
</g>
<g style="fill:#000000; fill-opacity:0.0; 
stroke:#000000; stroke-width:39.3701; stroke-opacity:1; 
stroke-linecap:round; stroke-linejoin:round;">
</g>
<g style="fill:#000000; fill-opacity:0.0; 
stroke:#000000; stroke-width:59.0551; stroke-opacity:1; 
stroke-linecap:round; stroke-linejoin:round;">
<path d="M92885 4050
L92641 4050
L92617 4294
L92641 4269
L92690 4245
L92812 4245
L92860 4269
L92885 4294
L92909 4342
L92909 4464
L92885 4513
L92860 4537
L92812 4562
L92690 4562
L92641 4537
L92617 4513
" />
</g>
<g style="fill:#000000; fill-opacity:0.0; 
stroke:#000000; stroke-width:39.3701; stroke-opacity:1; 
stroke-linecap:round; stroke-linejoin:round;">
</g>
<g style="fill:#000000; fill-opacity:0.0; 
stroke:#000000; stroke-width:59.0551; stroke-opacity:1; 
stroke-linecap:round; stroke-linejoin:round;">
<path d="M112545 4050
L112448 4050
L112399 4074
L112375 4099
L112326 4172
L112302 4269
L112302 4464
L112326 4513
L112350 4537
L112399 4562
L112497 4562
L112545 4537
L112570 4513
L112594 4464
L112594 4342
L112570 4294
L112545 4269
L112497 4245
L112399 4245
L112350 4269
L112326 4294
L112302 4342
" />
</g>
<g style="fill:#000000; fill-opacity:0.0; 
stroke:#000000; stroke-width:39.3701; stroke-opacity:1; 
stroke-linecap:round; stroke-linejoin:round;">
</g>
<g style="fill:#000000; fill-opacity:0.0; 
stroke:#000000; stroke-width:59.0551; stroke-opacity:1; 
stroke-linecap:round; stroke-linejoin:round;">
<path d="M23622 89765
L23622 90552
" />
</g>
<g style="fill:#000000; fill-opacity:0.0; 
stroke:#000000; stroke-width:39.3701; stroke-opacity:1; 
stroke-linecap:round; stroke-linejoin:round;">
</g>
<g style="fill:#000000; fill-opacity:0.0; 
stroke:#000000; stroke-width:59.0551; stroke-opacity:1; 
stroke-linecap:round; stroke-linejoin:round;">
<path d="M43307 89765
L43307 90552
" />
</g>
<g style="fill:#000000; fill-opacity:0.0; 
stroke:#000000; stroke-width:39.3701; stroke-opacity:1; 
stroke-linecap:round; stroke-linejoin:round;">
</g>
<g style="fill:#000000; fill-opacity:0.0; 
stroke:#000000; stroke-width:59.0551; stroke-opacity:1; 
stroke-linecap:round; stroke-linejoin:round;">
<path d="M62992 89765
L62992 90552
" />
</g>
<g style="fill:#000000; fill-opacity:0.0; 
stroke:#000000; stroke-width:39.3701; stroke-opacity:1; 
stroke-linecap:round; stroke-linejoin:round;">
</g>
<g style="fill:#000000; fill-opacity:0.0; 
stroke:#000000; stroke-width:59.0551; stroke-opacity:1; 
stroke-linecap:round; stroke-linejoin:round;">
<path d="M82677 89765
L82677 90552
" />
</g>
<g style="fill:#000000; fill-opacity:0.0; 
stroke:#000000; stroke-width:39.3701; stroke-opacity:1; 
stroke-linecap:round; stroke-linejoin:round;">
</g>
<g style="fill:#000000; fill-opacity:0.0; 
stroke:#000000; stroke-width:59.0551; stroke-opacity:1; 
stroke-linecap:round; stroke-linejoin:round;">
<path d="M102362 89765
L102362 90552
" />
</g>
<g style="fill:#000000; fill-opacity:0.0; 
stroke:#000000; stroke-width:39.3701; stroke-opacity:1; 
stroke-linecap:round; stroke-linejoin:round;">
</g>
<g style="fill:#000000; fill-opacity:0.0; 
stroke:#000000; stroke-width:59.0551; stroke-opacity:1; 
stroke-linecap:round; stroke-linejoin:round;">
<path d="M14169 90390
L13877 90390
" />
<path d="M14023 90390
L14023 89879
L13974 89952
L13925 90000
L13877 90025
" />
</g>
<g style="fill:#000000; fill-opacity:0.0; 
stroke:#000000; stroke-width:39.3701; stroke-opacity:1; 
stroke-linecap:round; stroke-linejoin:round;">
</g>
<g style="fill:#000000; fill-opacity:0.0; 
stroke:#000000; stroke-width:59.0551; stroke-opacity:1; 
stroke-linecap:round; stroke-linejoin:round;">
<path d="M33562 89927
L33586 89903
L33635 89879
L33757 89879
L33805 89903
L33830 89927
L33854 89976
L33854 90025
L33830 90098
L33537 90390
L33854 90390
" />
</g>
<g style="fill:#000000; fill-opacity:0.0; 
stroke:#000000; stroke-width:39.3701; stroke-opacity:1; 
stroke-linecap:round; stroke-linejoin:round;">
</g>
<g style="fill:#000000; fill-opacity:0.0; 
stroke:#000000; stroke-width:59.0551; stroke-opacity:1; 
stroke-linecap:round; stroke-linejoin:round;">
<path d="M53222 89879
L53539 89879
L53368 90073
L53442 90073
L53490 90098
L53515 90122
L53539 90171
L53539 90293
L53515 90342
L53490 90366
L53442 90390
L53295 90390
L53247 90366
L53222 90342
" />
</g>
<g style="fill:#000000; fill-opacity:0.0; 
stroke:#000000; stroke-width:39.3701; stroke-opacity:1; 
stroke-linecap:round; stroke-linejoin:round;">
</g>
<g style="fill:#000000; fill-opacity:0.0; 
stroke:#000000; stroke-width:59.0551; stroke-opacity:1; 
stroke-linecap:round; stroke-linejoin:round;">
<path d="M73175 90049
L73175 90390
" />
<path d="M73053 89854
L72932 90220
L73248 90220
" />
</g>
<g style="fill:#000000; fill-opacity:0.0; 
stroke:#000000; stroke-width:39.3701; stroke-opacity:1; 
stroke-linecap:round; stroke-linejoin:round;">
</g>
<g style="fill:#000000; fill-opacity:0.0; 
stroke:#000000; stroke-width:59.0551; stroke-opacity:1; 
stroke-linecap:round; stroke-linejoin:round;">
<path d="M92885 89879
L92641 89879
L92617 90122
L92641 90098
L92690 90073
L92812 90073
L92860 90098
L92885 90122
L92909 90171
L92909 90293
L92885 90342
L92860 90366
L92812 90390
L92690 90390
L92641 90366
L92617 90342
" />
</g>
<g style="fill:#000000; fill-opacity:0.0; 
stroke:#000000; stroke-width:39.3701; stroke-opacity:1; 
stroke-linecap:round; stroke-linejoin:round;">
</g>
<g style="fill:#000000; fill-opacity:0.0; 
stroke:#000000; stroke-width:59.0551; stroke-opacity:1; 
stroke-linecap:round; stroke-linejoin:round;">
<path d="M112545 89879
L112448 89879
L112399 89903
L112375 89927
L112326 90000
L112302 90098
L112302 90293
L112326 90342
L112350 90366
L112399 90390
L112497 90390
L112545 90366
L112570 90342
L112594 90293
L112594 90171
L112570 90122
L112545 90098
L112497 90073
L112399 90073
L112350 90098
L112326 90122
L112302 90171
" />
</g>
<g style="fill:#000000; fill-opacity:0.0; 
stroke:#000000; stroke-width:39.3701; stroke-opacity:1; 
stroke-linecap:round; stroke-linejoin:round;">
</g>
<g style="fill:#000000; fill-opacity:0.0; 
stroke:#000000; stroke-width:59.0551; stroke-opacity:1; 
stroke-linecap:round; stroke-linejoin:round;">
<path d="M3937 23622
L4724 23622
" />
</g>
<g style="fill:#000000; fill-opacity:0.0; 
stroke:#000000; stroke-width:39.3701; stroke-opacity:1; 
stroke-linecap:round; stroke-linejoin:round;">
</g>
<g style="fill:#000000; fill-opacity:0.0; 
stroke:#000000; stroke-width:59.0551; stroke-opacity:1; 
stroke-linecap:round; stroke-linejoin:round;">
<path d="M3937 43307
L4724 43307
" />
</g>
<g style="fill:#000000; fill-opacity:0.0; 
stroke:#000000; stroke-width:39.3701; stroke-opacity:1; 
stroke-linecap:round; stroke-linejoin:round;">
</g>
<g style="fill:#000000; fill-opacity:0.0; 
stroke:#000000; stroke-width:59.0551; stroke-opacity:1; 
stroke-linecap:round; stroke-linejoin:round;">
<path d="M3937 62992
L4724 62992
" />
</g>
<g style="fill:#000000; fill-opacity:0.0; 
stroke:#000000; stroke-width:39.3701; stroke-opacity:1; 
stroke-linecap:round; stroke-linejoin:round;">
</g>
<g style="fill:#000000; fill-opacity:0.0; 
stroke:#000000; stroke-width:59.0551; stroke-opacity:1; 
stroke-linecap:round; stroke-linejoin:round;">
<path d="M3937 82677
L4724 82677
" />
</g>
<g style="fill:#000000; fill-opacity:0.0; 
stroke:#000000; stroke-width:39.3701; stroke-opacity:1; 
stroke-linecap:round; stroke-linejoin:round;">
</g>
<g style="fill:#000000; fill-opacity:0.0; 
stroke:#000000; stroke-width:59.0551; stroke-opacity:1; 
stroke-linecap:round; stroke-linejoin:round;">
<path d="M4208 13864
L4452 13864
" />
<path d="M4160 14011
L4330 13499
L4501 14011
" />
</g>
<g style="fill:#000000; fill-opacity:0.0; 
stroke:#000000; stroke-width:39.3701; stroke-opacity:1; 
stroke-linecap:round; stroke-linejoin:round;">
</g>
<g style="fill:#000000; fill-opacity:0.0; 
stroke:#000000; stroke-width:59.0551; stroke-opacity:1; 
stroke-linecap:round; stroke-linejoin:round;">
<path d="M4367 33428
L4440 33452
L4464 33476
L4489 33525
L4489 33598
L4464 33647
L4440 33671
L4391 33696
L4196 33696
L4196 33184
L4367 33184
L4416 33208
L4440 33233
L4464 33281
L4464 33330
L4440 33379
L4416 33403
L4367 33428
L4196 33428
" />
</g>
<g style="fill:#000000; fill-opacity:0.0; 
stroke:#000000; stroke-width:39.3701; stroke-opacity:1; 
stroke-linecap:round; stroke-linejoin:round;">
</g>
<g style="fill:#000000; fill-opacity:0.0; 
stroke:#000000; stroke-width:59.0551; stroke-opacity:1; 
stroke-linecap:round; stroke-linejoin:round;">
<path d="M4489 53332
L4464 53356
L4391 53381
L4342 53381
L4269 53356
L4221 53308
L4196 53259
L4172 53161
L4172 53088
L4196 52991
L4221 52942
L4269 52893
L4342 52869
L4391 52869
L4464 52893
L4489 52918
" />
</g>
<g style="fill:#000000; fill-opacity:0.0; 
stroke:#000000; stroke-width:39.3701; stroke-opacity:1; 
stroke-linecap:round; stroke-linejoin:round;">
</g>
<g style="fill:#000000; fill-opacity:0.0; 
stroke:#000000; stroke-width:59.0551; stroke-opacity:1; 
stroke-linecap:round; stroke-linejoin:round;">
<path d="M4196 73066
L4196 72554
L4318 72554
L4391 72578
L4440 72627
L4464 72676
L4489 72773
L4489 72846
L4464 72944
L4440 72993
L4391 73041
L4318 73066
L4196 73066
" />
</g>
<g style="fill:#000000; fill-opacity:0.0; 
stroke:#000000; stroke-width:39.3701; stroke-opacity:1; 
stroke-linecap:round; stroke-linejoin:round;">
</g>
<g style="fill:#000000; fill-opacity:0.0; 
stroke:#000000; stroke-width:59.0551; stroke-opacity:1; 
stroke-linecap:round; stroke-linejoin:round;">
<path d="M112992 23622
L112205 23622
" />
</g>
<g style="fill:#000000; fill-opacity:0.0; 
stroke:#000000; stroke-width:39.3701; stroke-opacity:1; 
stroke-linecap:round; stroke-linejoin:round;">
</g>
<g style="fill:#000000; fill-opacity:0.0; 
stroke:#000000; stroke-width:59.0551; stroke-opacity:1; 
stroke-linecap:round; stroke-linejoin:round;">
<path d="M112992 43307
L112205 43307
" />
</g>
<g style="fill:#000000; fill-opacity:0.0; 
stroke:#000000; stroke-width:39.3701; stroke-opacity:1; 
stroke-linecap:round; stroke-linejoin:round;">
</g>
<g style="fill:#000000; fill-opacity:0.0; 
stroke:#000000; stroke-width:59.0551; stroke-opacity:1; 
stroke-linecap:round; stroke-linejoin:round;">
<path d="M112992 62992
L112205 62992
" />
</g>
<g style="fill:#000000; fill-opacity:0.0; 
stroke:#000000; stroke-width:39.3701; stroke-opacity:1; 
stroke-linecap:round; stroke-linejoin:round;">
</g>
<g style="fill:#000000; fill-opacity:0.0; 
stroke:#000000; stroke-width:59.0551; stroke-opacity:1; 
stroke-linecap:round; stroke-linejoin:round;">
<path d="M112992 82677
L112205 82677
" />
</g>
<g style="fill:#000000; fill-opacity:0.0; 
stroke:#000000; stroke-width:39.3701; stroke-opacity:1; 
stroke-linecap:round; stroke-linejoin:round;">
</g>
<g style="fill:#000000; fill-opacity:0.0; 
stroke:#000000; stroke-width:59.0551; stroke-opacity:1; 
stroke-linecap:round; stroke-linejoin:round;">
<path d="M112477 13864
L112721 13864
" />
<path d="M112428 14011
L112599 13499
L112769 14011
" />
</g>
<g style="fill:#000000; fill-opacity:0.0; 
stroke:#000000; stroke-width:39.3701; stroke-opacity:1; 
stroke-linecap:round; stroke-linejoin:round;">
</g>
<g style="fill:#000000; fill-opacity:0.0; 
stroke:#000000; stroke-width:59.0551; stroke-opacity:1; 
stroke-linecap:round; stroke-linejoin:round;">
<path d="M112635 33428
L112708 33452
L112733 33476
L112757 33525
L112757 33598
L112733 33647
L112708 33671
L112660 33696
L112465 33696
L112465 33184
L112635 33184
L112684 33208
L112708 33233
L112733 33281
L112733 33330
L112708 33379
L112684 33403
L112635 33428
L112465 33428
" />
</g>
<g style="fill:#000000; fill-opacity:0.0; 
stroke:#000000; stroke-width:39.3701; stroke-opacity:1; 
stroke-linecap:round; stroke-linejoin:round;">
</g>
<g style="fill:#000000; fill-opacity:0.0; 
stroke:#000000; stroke-width:59.0551; stroke-opacity:1; 
stroke-linecap:round; stroke-linejoin:round;">
<path d="M112757 53332
L112733 53356
L112660 53381
L112611 53381
L112538 53356
L112489 53308
L112465 53259
L112440 53161
L112440 53088
L112465 52991
L112489 52942
L112538 52893
L112611 52869
L112660 52869
L112733 52893
L112757 52918
" />
</g>
<g style="fill:#000000; fill-opacity:0.0; 
stroke:#000000; stroke-width:39.3701; stroke-opacity:1; 
stroke-linecap:round; stroke-linejoin:round;">
</g>
<g style="fill:#000000; fill-opacity:0.0; 
stroke:#000000; stroke-width:59.0551; stroke-opacity:1; 
stroke-linecap:round; stroke-linejoin:round;">
<path d="M112465 73066
L112465 72554
L112587 72554
L112660 72578
L112708 72627
L112733 72676
L112757 72773
L112757 72846
L112733 72944
L112708 72993
L112660 73041
L112587 73066
L112465 73066
" />
</g>
<g style="fill:#000000; fill-opacity:0.0; 
stroke:#000000; stroke-width:39.3701; stroke-opacity:1; 
stroke-linecap:round; stroke-linejoin:round;">
</g>
<g style="fill:#000000; fill-opacity:0.0; 
stroke:#000000; stroke-width:59.0551; stroke-opacity:1; 
stroke-linecap:round; stroke-linejoin:round;">
<path d="M78881 88103
L78881 87513
L79022 87513
L79106 87541
L79162 87597
L79190 87653
L79219 87766
L79219 87850
L79190 87963
L79162 88019
L79106 88075
L79022 88103
L78881 88103
" />
<path d="M79725 88103
L79725 87794
L79697 87738
L79640 87709
L79528 87709
L79472 87738
" />
<path d="M79725 88075
L79669 88103
L79528 88103
L79472 88075
L79444 88019
L79444 87963
L79472 87906
L79528 87878
L79669 87878
L79725 87850
" />
<path d="M79922 87709
L80147 87709
" />
<path d="M80006 87513
L80006 88019
L80034 88075
L80090 88103
L80147 88103
" />
<path d="M80568 88075
L80512 88103
L80400 88103
L80343 88075
L80315 88019
L80315 87794
L80343 87738
L80400 87709
L80512 87709
L80568 87738
L80597 87794
L80597 87850
L80315 87906
" />
<path d="M80850 88047
L80878 88075
L80850 88103
L80822 88075
L80850 88047
L80850 88103
" />
<path d="M80850 87738
L80878 87766
L80850 87794
L80822 87766
L80850 87738
L80850 87794
" />
</g>
<g style="fill:#000000; fill-opacity:0.0; 
stroke:#000000; stroke-width:39.3701; stroke-opacity:1; 
stroke-linecap:round; stroke-linejoin:round;">
</g>
<g style="fill:#000000; fill-opacity:0.0; 
stroke:#000000; stroke-width:59.0551; stroke-opacity:1; 
stroke-linecap:round; stroke-linejoin:round;">
<path d="M69685 88387
L112205 88387
" />
</g>
<g style="fill:#000000; fill-opacity:0.0; 
stroke:#000000; stroke-width:39.3701; stroke-opacity:1; 
stroke-linecap:round; stroke-linejoin:round;">
</g>
<g style="fill:#000000; fill-opacity:0.0; 
stroke:#000000; stroke-width:59.0551; stroke-opacity:1; 
stroke-linecap:round; stroke-linejoin:round;">
<path d="M70220 89205
L70220 88615
" />
<path d="M70557 89205
L70304 88868
" />
<path d="M70557 88615
L70220 88952
" />
<path d="M70810 89205
L70810 88812
" />
<path d="M70810 88615
L70782 88643
L70810 88671
L70838 88643
L70810 88615
L70810 88671
" />
<path d="M71429 89149
L71401 89177
L71316 89205
L71260 89205
L71176 89177
L71120 89121
L71091 89065
L71063 88952
L71063 88868
L71091 88756
L71120 88699
L71176 88643
L71260 88615
L71316 88615
L71401 88643
L71429 88671
" />
<path d="M71935 89205
L71935 88896
L71907 88840
L71851 88812
L71738 88812
L71682 88840
" />
<path d="M71935 89177
L71879 89205
L71738 89205
L71682 89177
L71654 89121
L71654 89065
L71682 89009
L71738 88981
L71879 88981
L71935 88952
" />
<path d="M72469 89205
L72469 88615
" />
<path d="M72469 89177
L72413 89205
L72301 89205
L72244 89177
L72216 89149
L72188 89093
L72188 88924
L72216 88868
L72244 88840
L72301 88812
L72413 88812
L72469 88840
" />
<path d="M73201 88896
L73397 88896
" />
<path d="M73482 89205
L73201 89205
L73201 88615
L73482 88615
" />
<path d="M73735 89149
L73763 89177
L73735 89205
L73707 89177
L73735 89149
L73735 89205
" />
<path d="M74016 89205
L74016 88615
L74157 88615
L74241 88643
L74297 88699
L74325 88756
L74354 88868
L74354 88952
L74325 89065
L74297 89121
L74241 89177
L74157 89205
L74016 89205
" />
<path d="M74607 89149
L74635 89177
L74607 89205
L74579 89177
L74607 89149
L74607 89205
" />
<path d="M74860 89037
L75141 89037
" />
<path d="M74804 89205
L75000 88615
L75197 89205
" />
<path d="M75394 89149
L75422 89177
L75394 89205
L75366 89177
L75394 89149
L75394 89205
" />
<path d="M76575 89205
L76575 88615
" />
<path d="M76631 88981
L76800 89205
" />
<path d="M76800 88812
L76575 89037
" />
<path d="M77053 89205
L77053 88812
" />
<path d="M77053 88615
L77025 88643
L77053 88671
L77081 88643
L77053 88615
L77053 88671
" />
<path d="M77588 89177
L77531 89205
L77419 89205
L77363 89177
L77334 89149
L77306 89093
L77306 88924
L77334 88868
L77363 88840
L77419 88812
L77531 88812
L77588 88840
" />
<path d="M78094 89205
L78094 88896
L78066 88840
L78009 88812
L77897 88812
L77841 88840
" />
<path d="M78094 89177
L78037 89205
L77897 89205
L77841 89177
L77813 89121
L77813 89065
L77841 89009
L77897 88981
L78037 88981
L78094 88952
" />
<path d="M78628 89205
L78628 88615
" />
<path d="M78628 89177
L78572 89205
L78459 89205
L78403 89177
L78375 89149
L78347 89093
L78347 88924
L78375 88868
L78403 88840
L78459 88812
L78572 88812
L78628 88840
" />
<path d="M79612 88812
L79612 89205
" />
<path d="M79472 88587
L79331 89009
L79697 89009
" />
<path d="M79922 89149
L79950 89177
L79922 89205
L79894 89177
L79922 89149
L79922 89205
" />
<path d="M80315 88615
L80372 88615
L80428 88643
L80456 88671
L80484 88727
L80512 88840
L80512 88981
L80484 89093
L80456 89149
L80428 89177
L80372 89205
L80315 89205
L80259 89177
L80231 89149
L80203 89093
L80175 88981
L80175 88840
L80203 88727
L80231 88671
L80259 88643
L80315 88615
" />
<path d="M80765 89149
L80793 89177
L80765 89205
L80737 89177
L80765 89149
L80765 89205
" />
<path d="M80990 88615
L81384 88615
L81131 89205
" />
</g>
<g style="fill:#000000; fill-opacity:0.0; 
stroke:#000000; stroke-width:39.3701; stroke-opacity:1; 
stroke-linecap:round; stroke-linejoin:round;">
</g>
<g style="fill:#000000; fill-opacity:0.0; 
stroke:#000000; stroke-width:59.0551; stroke-opacity:1; 
stroke-linecap:round; stroke-linejoin:round;">
<path d="M69685 87206
L112205 87206
" />
</g>
<g style="fill:#000000; fill-opacity:0.0; 
stroke:#000000; stroke-width:39.3701; stroke-opacity:1; 
stroke-linecap:round; stroke-linejoin:round;">
</g>
<g style="fill:#000000; fill-opacity:0.0; 
stroke:#000000; stroke-width:118.11; stroke-opacity:1; 
stroke-linecap:round; stroke-linejoin:round;">
<path d="M104022 88103
L103825 87822
" />
<path d="M103684 88103
L103684 87513
L103909 87513
L103965 87541
L103994 87569
L104022 87625
L104022 87709
L103994 87766
L103965 87794
L103909 87822
L103684 87822
" />
<path d="M104500 88075
L104444 88103
L104331 88103
L104275 88075
L104247 88019
L104247 87794
L104275 87738
L104331 87709
L104444 87709
L104500 87738
L104528 87794
L104528 87850
L104247 87906
" />
<path d="M104725 87709
L104865 88103
L105006 87709
" />
<path d="M105231 88047
L105259 88075
L105231 88103
L105203 88075
L105231 88047
L105231 88103
" />
<path d="M105231 87738
L105259 87766
L105231 87794
L105203 87766
L105231 87738
L105231 87794
" />
</g>
<g style="fill:#000000; fill-opacity:0.0; 
stroke:#000000; stroke-width:39.3701; stroke-opacity:1; 
stroke-linecap:round; stroke-linejoin:round;">
</g>
<g style="fill:#000000; fill-opacity:0.0; 
stroke:#000000; stroke-width:59.0551; stroke-opacity:1; 
stroke-linecap:round; stroke-linejoin:round;">
<path d="M70192 88075
L70276 88103
L70417 88103
L70473 88075
L70501 88047
L70529 87991
L70529 87934
L70501 87878
L70473 87850
L70417 87822
L70304 87794
L70248 87766
L70220 87738
L70192 87681
L70192 87625
L70220 87569
L70248 87541
L70304 87513
L70445 87513
L70529 87541
" />
<path d="M70782 88103
L70782 87709
" />
<path d="M70782 87513
L70754 87541
L70782 87569
L70810 87541
L70782 87513
L70782 87569
" />
<path d="M71007 87709
L71316 87709
L71007 88103
L71316 88103
" />
<path d="M71766 88075
L71710 88103
L71598 88103
L71541 88075
L71513 88019
L71513 87794
L71541 87738
L71598 87709
L71710 87709
L71766 87738
L71795 87794
L71795 87850
L71513 87906
" />
<path d="M72048 88047
L72076 88075
L72048 88103
L72019 88075
L72048 88047
L72048 88103
" />
<path d="M72048 87738
L72076 87766
L72048 87794
L72019 87766
L72048 87738
L72048 87794
" />
<path d="M72779 87513
L72779 87991
L72807 88047
L72835 88075
L72891 88103
L73004 88103
L73060 88075
L73088 88047
L73116 87991
L73116 87513
" />
<path d="M73369 88075
L73426 88103
L73538 88103
L73594 88075
L73622 88019
L73622 87991
L73594 87934
L73538 87906
L73454 87906
L73397 87878
L73369 87822
L73369 87794
L73397 87738
L73454 87709
L73538 87709
L73594 87738
" />
<path d="M74100 88075
L74044 88103
L73932 88103
L73876 88075
L73847 88019
L73847 87794
L73876 87738
L73932 87709
L74044 87709
L74100 87738
L74129 87794
L74129 87850
L73847 87906
" />
<path d="M74382 88103
L74382 87709
" />
<path d="M74382 87822
L74410 87766
L74438 87738
L74494 87709
L74550 87709
" />
</g>
<g style="fill:#000000; fill-opacity:0.0; 
stroke:#000000; stroke-width:39.3701; stroke-opacity:1; 
stroke-linecap:round; stroke-linejoin:round;">
</g>
<g style="fill:#000000; fill-opacity:0.0; 
stroke:#000000; stroke-width:59.0551; stroke-opacity:1; 
stroke-linecap:round; stroke-linejoin:round;">
<path d="M103684 89205
L103684 88615
" />
<path d="M104219 89205
L104219 88615
" />
<path d="M104219 89177
L104162 89205
L104050 89205
L103994 89177
L103965 89149
L103937 89093
L103937 88924
L103965 88868
L103994 88840
L104050 88812
L104162 88812
L104219 88840
" />
<path d="M104500 89149
L104528 89177
L104500 89205
L104472 89177
L104500 89149
L104500 89205
" />
<path d="M104500 88840
L104528 88868
L104500 88896
L104472 88868
L104500 88840
L104500 88896
" />
<path d="M105540 89205
L105203 89205
" />
<path d="M105372 89205
L105372 88615
L105315 88699
L105259 88756
L105203 88784
" />
<path d="M106215 88587
L105709 89346
" />
<path d="M106721 89205
L106384 89205
" />
<path d="M106553 89205
L106553 88615
L106496 88699
L106440 88756
L106384 88784
" />
</g>
<g style="fill:#000000; fill-opacity:0.0; 
stroke:#000000; stroke-width:39.3701; stroke-opacity:1; 
stroke-linecap:round; stroke-linejoin:round;">
</g>
<g style="fill:#000000; fill-opacity:0.0; 
stroke:#000000; stroke-width:59.0551; stroke-opacity:1; 
stroke-linecap:round; stroke-linejoin:round;">
<path d="M69685 85631
L112205 85631
" />
</g>
<g style="fill:#000000; fill-opacity:0.0; 
stroke:#000000; stroke-width:39.3701; stroke-opacity:1; 
stroke-linecap:round; stroke-linejoin:round;">
</g>
<g style="fill:#000000; fill-opacity:0.0; 
stroke:#000000; stroke-width:157.48; stroke-opacity:1; 
stroke-linecap:round; stroke-linejoin:round;">
<path d="M70257 85909
L70707 85909
" />
<path d="M70384 86696
L70482 85909
" />
<path d="M70871 86696
L70937 86171
" />
<path d="M70970 85909
L70927 85946
L70960 85984
L71002 85946
L70970 85909
L70960 85984
" />
<path d="M71199 86171
L71499 86171
" />
<path d="M71345 85909
L71260 86584
L71288 86659
L71359 86696
L71434 86696
" />
<path d="M71809 86696
L71738 86659
L71710 86584
L71795 85909
" />
<path d="M72413 86659
L72334 86696
L72184 86696
L72113 86659
L72085 86584
L72123 86284
L72169 86209
L72249 86171
L72399 86171
L72469 86209
L72498 86284
L72488 86359
L72104 86434
" />
<path d="M72793 86621
L72826 86659
L72783 86696
L72751 86659
L72793 86621
L72783 86696
" />
<path d="M72844 86209
L72877 86246
L72835 86284
L72802 86246
L72844 86209
L72835 86284
" />
</g>
<g style="fill:#000000; fill-opacity:0.0; 
stroke:#000000; stroke-width:39.3701; stroke-opacity:1; 
stroke-linecap:round; stroke-linejoin:round;">
</g>
<g style="fill:#000000; fill-opacity:0.0; 
stroke:#000000; stroke-width:59.0551; stroke-opacity:1; 
stroke-linecap:round; stroke-linejoin:round;">
<path d="M70417 84880
L70220 84880
" />
<path d="M70220 85190
L70220 84599
L70501 84599
" />
<path d="M70726 85190
L70726 84796
" />
<path d="M70726 84599
L70698 84627
L70726 84655
L70754 84627
L70726 84599
L70726 84655
" />
<path d="M71091 85190
L71035 85162
L71007 85105
L71007 84599
" />
<path d="M71541 85162
L71485 85190
L71373 85190
L71316 85162
L71288 85105
L71288 84880
L71316 84824
L71373 84796
L71485 84796
L71541 84824
L71570 84880
L71570 84937
L71288 84993
" />
<path d="M71823 85133
L71851 85162
L71823 85190
L71795 85162
L71823 85133
L71823 85190
" />
<path d="M71823 84824
L71851 84852
L71823 84880
L71795 84852
L71823 84824
L71823 84880
" />
<path d="M72554 84796
L72554 85387
" />
<path d="M72554 84824
L72610 84796
L72723 84796
L72779 84824
L72807 84852
L72835 84909
L72835 85077
L72807 85133
L72779 85162
L72723 85190
L72610 85190
L72554 85162
" />
<path d="M73088 85190
L73088 84796
" />
<path d="M73088 84852
L73116 84824
L73172 84796
L73257 84796
L73313 84824
L73341 84880
L73341 85190
" />
<path d="M73341 84880
L73369 84824
L73426 84796
L73510 84796
L73566 84824
L73594 84880
L73594 85190
" />
<path d="M73791 84796
L74016 84796
" />
<path d="M73876 84599
L73876 85105
L73904 85162
L73960 85190
L74016 85190
" />
<path d="M74072 85246
L74522 85246
" />
<path d="M74916 85190
L74916 84599
" />
<path d="M74916 85162
L74860 85190
L74747 85190
L74691 85162
L74663 85133
L74635 85077
L74635 84909
L74663 84852
L74691 84824
L74747 84796
L74860 84796
L74916 84824
" />
<path d="M75197 85190
L75197 84796
" />
<path d="M75197 84909
L75225 84852
L75253 84824
L75310 84796
L75366 84796
" />
<path d="M75563 85190
L75563 84796
" />
<path d="M75563 84599
L75535 84627
L75563 84655
L75591 84627
L75563 84599
L75563 84655
" />
<path d="M75788 84796
L75928 85190
L76069 84796
" />
<path d="M76519 85162
L76463 85190
L76350 85190
L76294 85162
L76266 85105
L76266 84880
L76294 84824
L76350 84796
L76463 84796
L76519 84824
L76547 84880
L76547 84937
L76266 84993
" />
<path d="M76800 85190
L76800 84796
" />
<path d="M76800 84909
L76828 84852
L76856 84824
L76913 84796
L76969 84796
" />
<path d="M77166 85133
L77194 85162
L77166 85190
L77138 85162
L77166 85133
L77166 85190
" />
<path d="M77447 85190
L77447 84599
" />
<path d="M77503 84965
L77672 85190
" />
<path d="M77672 84796
L77447 85021
" />
<path d="M77925 85190
L77925 84796
" />
<path d="M77925 84599
L77897 84627
L77925 84655
L77953 84627
L77925 84599
L77925 84655
" />
<path d="M78459 85162
L78403 85190
L78291 85190
L78234 85162
L78206 85133
L78178 85077
L78178 84909
L78206 84852
L78234 84824
L78291 84796
L78403 84796
L78459 84824
" />
<path d="M78965 85190
L78965 84880
L78937 84824
L78881 84796
L78769 84796
L78712 84824
" />
<path d="M78965 85162
L78909 85190
L78769 85190
L78712 85162
L78684 85105
L78684 85049
L78712 84993
L78769 84965
L78909 84965
L78965 84937
" />
<path d="M79500 85190
L79500 84599
" />
<path d="M79500 85162
L79444 85190
L79331 85190
L79275 85162
L79247 85133
L79219 85077
L79219 84909
L79247 84852
L79275 84824
L79331 84796
L79444 84796
L79500 84824
" />
<path d="M79640 85246
L80090 85246
" />
<path d="M80231 84796
L80231 85387
" />
<path d="M80231 84824
L80287 84796
L80400 84796
L80456 84824
L80484 84852
L80512 84909
L80512 85077
L80484 85133
L80456 85162
L80400 85190
L80287 85190
L80231 85162
" />
<path d="M81018 85162
L80962 85190
L80850 85190
L80793 85162
L80765 85133
L80737 85077
L80737 84909
L80765 84852
L80793 84824
L80850 84796
L80962 84796
L81018 84824
" />
<path d="M81271 85190
L81271 84599
" />
<path d="M81271 84824
L81328 84796
L81440 84796
L81496 84824
L81525 84852
L81553 84909
L81553 85077
L81525 85133
L81496 85162
L81440 85190
L81328 85190
L81271 85162
" />
</g>
<g style="fill:#000000; fill-opacity:0.0; 
stroke:#000000; stroke-width:39.3701; stroke-opacity:1; 
stroke-linecap:round; stroke-linejoin:round;">
</g>
<g style="fill:#000000; fill-opacity:0.0; 
stroke:#000000; stroke-width:59.0551; stroke-opacity:1; 
stroke-linecap:round; stroke-linejoin:round;">
<path d="M69685 83269
L112205 83269
" />
</g>
<g style="fill:#000000; fill-opacity:0.0; 
stroke:#000000; stroke-width:39.3701; stroke-opacity:1; 
stroke-linecap:round; stroke-linejoin:round;">
</g>
<g style="fill:#000000; fill-opacity:0.0; 
stroke:#000000; stroke-width:59.0551; stroke-opacity:1; 
stroke-linecap:round; stroke-linejoin:round;">
<path d="M70192 84099
L70276 84127
L70417 84127
L70473 84099
L70501 84070
L70529 84014
L70529 83958
L70501 83902
L70473 83874
L70417 83846
L70304 83817
L70248 83789
L70220 83761
L70192 83705
L70192 83649
L70220 83592
L70248 83564
L70304 83536
L70445 83536
L70529 83564
" />
<path d="M70782 84127
L70782 83536
" />
<path d="M71035 84127
L71035 83817
L71007 83761
L70951 83733
L70867 83733
L70810 83761
L70782 83789
" />
<path d="M71541 84099
L71485 84127
L71373 84127
L71316 84099
L71288 84042
L71288 83817
L71316 83761
L71373 83733
L71485 83733
L71541 83761
L71570 83817
L71570 83874
L71288 83930
" />
<path d="M72048 84099
L71991 84127
L71879 84127
L71823 84099
L71795 84042
L71795 83817
L71823 83761
L71879 83733
L71991 83733
L72048 83761
L72076 83817
L72076 83874
L71795 83930
" />
<path d="M72244 83733
L72469 83733
" />
<path d="M72329 83536
L72329 84042
L72357 84099
L72413 84127
L72469 84127
" />
<path d="M72666 84070
L72694 84099
L72666 84127
L72638 84099
L72666 84070
L72666 84127
" />
<path d="M72666 83761
L72694 83789
L72666 83817
L72638 83789
L72666 83761
L72666 83817
" />
</g>
<g style="fill:#000000; fill-opacity:0.0; 
stroke:#000000; stroke-width:39.3701; stroke-opacity:1; 
stroke-linecap:round; stroke-linejoin:round;">
</g>
<g style="fill:#000000; fill-opacity:0.0; 
stroke:#000000; stroke-width:59.0551; stroke-opacity:1; 
stroke-linecap:round; stroke-linejoin:round;">
<path d="M77559 87206
L77559 88387
" />
</g>
<g style="fill:#000000; fill-opacity:0.0; 
stroke:#000000; stroke-width:39.3701; stroke-opacity:1; 
stroke-linecap:round; stroke-linejoin:round;">
</g>
<g style="fill:#000000; fill-opacity:0.0; 
stroke:#000000; stroke-width:59.0551; stroke-opacity:1; 
stroke-linecap:round; stroke-linejoin:round;">
<path d="M102756 87206
L102756 89765
" />
</g>
<g style="fill:#C2C200; fill-opacity:0.0; 
stroke:#C2C200; stroke-width:59.0551; stroke-opacity:1; 
stroke-linecap:round; stroke-linejoin:round;">
</g>
<g style="fill:#C2C200; fill-opacity:0.0; 
stroke:#C2C200; stroke-width:39.3701; stroke-opacity:1; 
stroke-linecap:round; stroke-linejoin:round;">
<path d="M101338 22362
L101338 8188
" />
<path d="M106456 25826
L101338 25826
" />
<path d="M106456 22362
L106456 25826
" />
<path d="M101338 22362
L106456 22362
" />
<path d="M15118 49133
L8228 49133
" />
<path d="M15118 8188
L15118 49133
" />
<path d="M15118 69212
L15118 71181
" />
<path d="M8228 69212
L15118 69212
" />
<path d="M8228 69212
L8228 49133
" />
<path d="M101338 25826
L101338 71181
" />
<path d="M15118 71181
L101338 71181
" />
<path d="M15118 8188
L101338 8188
" />
</g> 
</svg>
